<svg xmlns="http://www.w3.org/2000/svg" viewBox="0 0 503.88 191.65"><defs><style>.cls-1{fill:#56cbf9;fill-rule:evenodd;}</style></defs><title>circle</title><g id="Layer_2" data-name="Layer 2"><g id="Layer_1-2" data-name="Layer 1"><path class="cls-1" d="M99.25,176.87c.35.34-.73.43-.92.25C98,176.78,99.06,176.69,99.25,176.87Z"/><path class="cls-1" d="M56.44,162.49c.31.41-.82.3-1,.08C55.14,162.17,56.27,162.28,56.44,162.49Z"/><path class="cls-1" d="M119.21,181c.37.32-.69.47-.89.29C118,181,119,180.82,119.21,181Z"/><path class="cls-1" d="M87.47,173.13c-.15.43-1.07.06-1.72,0C85.9,172.67,86.83,173,87.47,173.13Z"/><path class="cls-1" d="M25.27,144.06c.25.5-.93,0-1.07-.23C24,143.33,25.13,143.79,25.27,144.06Z"/><path class="cls-1" d="M21.42,140.91c.24.54-.94,0-1.07-.33C20.12,140.06,21.3,140.63,21.42,140.91Z"/><path class="cls-1" d="M19.14,138.88c-.49.29-1.65-1-2.58-1.85C17.07,136.76,18.2,138.08,19.14,138.88Z"/><path class="cls-1" d="M143.93,185c.38.3-.66.51-.87.34C142.69,185,143.73,184.79,143.93,185Z"/><path class="cls-1" d="M233.85,191.14c0,.46-1,.35-1.59.45C232.29,191.13,233.24,191.24,233.85,191.14Z"/><path class="cls-1" d="M279.88,189.86c0,.46-.95.41-1.56.55C278.32,190,279.27,190,279.88,189.86Z"/><path class="cls-1" d="M393.52,170.69c.46.14-.43.72-.67.65C392.39,171.19,393.27,170.62,393.52,170.69Z"/><path class="cls-1" d="M218.28,181.81c1.77-1.38,5,.71,0,0Z"/><path class="cls-1" d="M217.51,181.31c.39.26-.59.59-.8.45C216.31,181.49,217.3,181.18,217.51,181.31Z"/><path class="cls-1" d="M215.94,181.25c.4.26-.59.58-.8.44C214.74,181.43,215.73,181.11,215.94,181.25Z"/><path class="cls-1" d="M92.55,156a.41.41,0,0,1-.76-.22A.41.41,0,0,1,92.55,156Z"/><path class="cls-1" d="M108.71,158.84c.34.33-.69.45-.87.27C107.51,158.78,108.53,158.66,108.71,158.84Z"/><path class="cls-1" d="M190.76,170.84c.38.27-.61.56-.81.41C189.57,171,190.55,170.69,190.76,170.84Z"/><path class="cls-1" d="M390.87,156.3c.09.45-.84.58-1.4.82C389.39,156.67,390.31,156.54,390.87,156.3Z"/><path class="cls-1" d="M59.23,53.66c2.92-.16-3,2.86,0,0Z"/><path class="cls-1" d="M70.65,48.75c-.47-.07.27-.77.52-.74C71.63,48.07,70.9,48.78,70.65,48.75Z"/><path class="cls-1" d="M406.36,151.29c.11.45-.81.61-1.36.87C404.9,151.71,405.81,151.56,406.36,151.29Z"/><path class="cls-1" d="M55.57,56.68c-.12-.61,1.12-1.16,1.35-.75C56.46,56.52,56,57.1,55.57,56.68Z"/><path class="cls-1" d="M415.11,148.21c-.27-1.19,2.19-1.66,4.13-2.31C418.75,146.9,416.28,147.38,415.11,148.21Z"/><path class="cls-1" d="M107.89,155.72c2.78-1,3.77,1.92,0,0Z"/><path class="cls-1" d="M104.9,155a.4.4,0,0,1-.75-.19A.4.4,0,0,1,104.9,155Z"/><path class="cls-1" d="M70.27,144.28c-.18-1.61,1.9-.13,3.21.25C72.78,145,71.63,144.75,70.27,144.28Z"/><path class="cls-1" d="M57.37,56.76c-.47,0,.2-.79.46-.77C58.29,56,57.61,56.77,57.37,56.76Z"/><path class="cls-1" d="M189.43,167.9c.39.28-.6.56-.8.41C188.25,168,189.23,167.76,189.43,167.9Z"/><path class="cls-1" d="M135.89,161.16c.35.31-.66.49-.84.33C134.7,161.18,135.71,161,135.89,161.16Z"/><path class="cls-1" d="M132.86,160.61c.35.31-.66.49-.85.33C131.66,160.62,132.67,160.44,132.86,160.61Z"/><path class="cls-1" d="M129.83,160c-.23.52-1.46.12-2.36,0C127.69,159.54,128.92,159.94,129.83,160Z"/><path class="cls-1" d="M121.52,158.37c-.24.51-1.46.09-2.36,0C119.39,157.83,120.61,158.25,121.52,158.37Z"/><path class="cls-1" d="M117,157.39c-.12.44-1,.14-1.61.11C115.51,157.06,116.39,157.35,117,157.39Z"/><path class="cls-1" d="M88.73,149.86c-.16.43-1,.07-1.61,0C87.28,149.41,88.12,149.78,88.73,149.86Z"/><path class="cls-1" d="M66.37,141.63c.28.38-.75.34-.89.13C65.21,141.37,66.23,141.43,66.37,141.63Z"/><path class="cls-1" d="M51.93,134.55c-.38.66-5.46-2-3.73-2.71C48.7,132.76,50.24,133.71,51.93,134.55Z"/><path class="cls-1" d="M44.11,129.77c-.42.39-1.4-.44-2.16-.92C42.37,128.48,43.31,129.34,44.11,129.77Z"/><path class="cls-1" d="M107.76,38.05c.17-.65.69-1.2,2-1.54C110.35,37.38,108.91,37.68,107.76,38.05Z"/><path class="cls-1" d="M26.49,84.11c-.4.21-.27-.78,0-.88C26.87,83,26.68,84,26.49,84.11Z"/><path class="cls-1" d="M27.26,82.85c-.37-.26.16-1,.42-1.51C28,81.61,27.47,82.3,27.26,82.85Z"/><path class="cls-1" d="M29.84,79.23c-.44.15-.14-.8.1-.89C30.36,78.19,30.06,79.14,29.84,79.23Z"/><path class="cls-1" d="M128.62,32.62a.4.4,0,0,1,.75-.18A.4.4,0,0,1,128.62,32.62Z"/><path class="cls-1" d="M124.24,34.15c0-.56.68-.43.75-.18A.4.4,0,0,1,124.24,34.15Z"/><path class="cls-1" d="M298.54,163.19c0,.46-.9.44-1.49.59C297,163.32,298,163.34,298.54,163.19Z"/><path class="cls-1" d="M296.25,163.36c.37.9-3.43.94-2.33-.3-1.66-.07-2.53.89-4.55.78a11.63,11.63,0,0,1-1.24-.41c-.56-.2-1.09-.4-1.11-.39.41,0-3.44.25-3.06.18-1.93.36-1.35.92-3,1.1s-2.05-.41-3.08-.32c-1.39.12-2.52.94-3.79,1.11-1.78.25-4.61-.61-9.22-.14.05-1.34,3.06-1.56,3.79-1.54,2.2,0,1.17.94,3.09.84,8.33-.47,18.93-2.28,27.42-3,2.81-.23,5.59.09,8.42-.23,1.69-.2,3.61-1.33,5.23-1.44,1.34-.09,1.7.39,3.09.16,2.54-.4,5.14-1.37,7.49-1.76s5.81-.21,8.38-.55a8.21,8.21,0,0,0,2.21-.76c1.43-.15,2.49.21,3.84,0,2.63-.5,4.77-2.23,7.47-1.56.6,1.42-1.88.6-2.94.91-1.23.35-2.09,1.2-2.89,1.37s-1.91-.18-3.09,0c-1.44.17-3,.89-4.48,1.07-1.88.22-4.25,0-6.12.28-4.27.63-8.14,2.5-12.87,1.87-1.93.24-2.57,1.11-3.67,1.77-2.32-1.24-5.41-.06-8.44.26-2.3.22-5.47-1.06-6.07.93Z"/><path class="cls-1" d="M343.17,156.34c.42.18-.46.67-.69.57C342.06,156.73,342.94,156.24,343.17,156.34Z"/><path class="cls-1" d="M353,154.8c-1.18-1.35,2.37-.76,1.2-2.1,3-.54,5.87-.78,8.23-1.45a9.85,9.85,0,0,1,3.07-.09c.91-.23,1.14-1,2.06-1.36a57,57,0,0,1,5.84-1.66c1.82-.34,3.32.25,5.08-1.56.63.71,3.48-.81,3.89.1,3-1.62,6.23-3,9.56-2.27-.18,1.74-2.44,1.17-3.67.9-4.44,2.89-11.05,2-15.87,5.45C365.27,151.45,359.53,153.69,353,154.8Z"/><path class="cls-1" d="M378.94,148.89c.44.15-.41.7-.64.62C377.86,149.35,378.71,148.8,378.94,148.89Z"/><path class="cls-1" d="M352,153.53c.43.18-.44.69-.67.59C350.88,153.94,351.75,153.44,352,153.53Z"/><path class="cls-1" d="M349.73,153.9c0,.45-.86.5-1.43.7L346,155C345.76,154,348.68,154.33,349.73,153.9Z"/><path class="cls-1" d="M40.66,117.65c-.78-1.57-3.12-2.86-4.62-4.63-.75-.87-.46-1.34-1.2-2.23-.93-1.19-1.81-1.52-2.38-2.7a9.36,9.36,0,0,1-.73-1.85c-.13-.72-.08-1.39.51-1.73-.86-1.57-1.57-2.56-.63-3.84a1,1,0,0,1-.75-1.28c.06-.48.07-.87-.88-1a2.07,2.07,0,0,0,.66-1.56c.06-.49,0-.95.48-1.27,1,0,1,.38.86.84a7.8,7.8,0,0,1-.39.75,1.93,1.93,0,0,0-.19.75,19.62,19.62,0,0,0,.94,4.52c.51,1.6,1.22,3.23,1.75,4.67.32.8.47,1-.22,1.44,1.16.51,2.5,2.15,4.06,3.79a36.71,36.71,0,0,0,4,3.87C43.16,117.77,40.78,116.58,40.66,117.65Z"/><path class="cls-1" d="M86.5,53.5c-.45-.09.3-.75.54-.7C87.48,52.89,86.74,53.55,86.5,53.5Z"/><path class="cls-1" d="M410.62,138.74c.44.12-.35.73-.59.67C409.59,139.28,410.38,138.67,410.62,138.74Z"/><path class="cls-1" d="M403.54,141.31c-.59.26-.73,0-.85-.25-.53-1.59-2.13,1.62-2.3.14-1.82-1.19,1.62-.87,2.05-1a23.59,23.59,0,0,0,1.9-1.52c.88-.3,3.44.22,3.58-1,1.8-.47.67,1.46.54,1.81C406.4,139.6,403.51,138.93,403.54,141.31Z"/><path class="cls-1" d="M375.1,145.38c.43.15-.41.7-.65.61C374,145.83,374.86,145.3,375.1,145.38Z"/><path class="cls-1" d="M75.74,168.91c.79.28,1.06,0,1.73.1,1.4,1.61,4.31,2.36,7.23,3.05s5.86,1.33,7.4,2.88c1.88-1,9.13,1.58,12.71,3.31.25-2.22,4.48.74,5.67.85.73.08,1-.71,2.58-.37,2,.38,5.27,1.59,7,2,.23-.71.22-1.63,1.86-1.07-.32,1.14-1.8,1.14.43,2,4.06-.51,6.61,1,12,1.74,1.27.17.83-1.08,2.55-.52-3,1.74,3.85-.12,4.61,1.7-.35.2-4,.07-1.74.68,1.9,0,2.38-1.2,4.26-1.23,1.1,1.49,7.16,1.81,8.74,1.27.11.85-3.95.91-1.85,1.64,1-1.59,4.95.3,5.64.29a14.21,14.21,0,0,1,2.5-.62c2.44-.1,4,.06,5.51,1.14.21-.4.14-.86.9-.85a13.38,13.38,0,0,0,1.59.18A32.81,32.81,0,0,1,171,188c-.8-.08-1.08.71-.09.93.88-1.5,1.81-.23,3.18.33,0-1,.8-1.42,2.52-1.17,3.38.69,12.31,2.18,16.73.93,2,1.57,7.58,1.32,11.86,1.68.2-.36.08-.94.84-.91.17.37,0,.93.75,1,.2-.35.07-.93.84-.9a28.69,28.69,0,0,1,4.73,1.17c.2-.36.06-.94.84-.92,2.89,1.39,4.89.77,7.13.74,1.13,0,3.1.63,4,.59,1.24-.07,2.61-.73,4-.85,5.4-.52,6,.49,9.53,1.07,0-2.07,3.64-.29,4.77-.44.72-.1.75-.9,2.38-1,0,0,.5.11,1.16.23a14.09,14.09,0,0,0,2,.23c2.37,0,5-.45,7.14-.55,1.52-.07,2.79.51,4-.07,1.65-.17-1.2-1.25,1.55-1.45-1.54,1.13.21.52.83,1.39,4.19,1,6.95-.72,10.28-.78a13.59,13.59,0,0,0,3.19.34c5.48-.44,14.37-2.13,17.46-.47,1.51-2.88,8-.69,11.74-2.75-.12,1.28,5.68.87,6.36-.08-1.22,0-.19-.76.7-1,3.27.13,6.16-1,6.41.33,1.43-.08,1.55-1,3.06-1.26,1.31-.28,2.49.22,4,0,3.5-.45,7.51-1.87,11-1.34,1.05-.13.61-.91,1.46-1.14,2.87-.74,5-.13,7.14-.51,1.13-.2,1.18-1.09,2.23-1.27a3.74,3.74,0,0,0,2.42.11c.52-.2-.3-.79.64-1a4.07,4.07,0,0,1,2.43.1c.47.25.86-.63.71-.59,3.53-.9,3.13.4,5.64,0,1.41-2,5.13-.59,6-2.48,1.08.89,3.45.35,5.72-.45s4.42-1.9,5.13-2.08a5.65,5.65,0,0,0,.66.34,2.35,2.35,0,0,0,1.09.26c1.75-.3,3.93-2.19,5.36-1.6.56.57-2.8,1.78-.48,1.55,2-2.83,6.61-2.33,8.72-4.85.75.78,2.36.73,4.21.45.24-2.65,6.73-.33,3.31-3.25,1.83,1.19,4.37-.66,5.52-.94.75-.17,2.56.27,3.32.08a13.19,13.19,0,0,1,2.2-1.09c2.47-.86,5.81-1.09,7.06-1.56.46-.18.67-1.13,2-1.6s1.84-.06,3.21-.52c1.52-3.48,3.38-1.21,4.44-1.93.52-.37-.59-.79.47-1.15s1.56.42,2.58.11a5.84,5.84,0,0,1,2-1.68,14.74,14.74,0,0,0,3.19-.65c3.83-1.54,10-4.47,13.22-6.21,1.48-.79,2.78-2.27,4.09-2.83a5.09,5.09,0,0,0,2.42-.58c1.25-.78,2-1.91,3.28-2.61s2.93-.88,4.6-1.8c.38-.21,2.2-1.59,3.4-2.37.76-.46,3.13-1.84,2.88-1.63.45-.39-.65-.63.24-1.23s1.39,0,2.37-.87c.67-.59.23-1.1,1.62-2.11,2-1.48,5.17-2.86,8.26-5.73,1.87-1.74,4.65-4.09,6.89-6.45,1.51-1.6,2.14-3.28,3.59-5a10.16,10.16,0,0,0,2.08-1.72c1.24-1.56.76-1.57,1.66-2.13.51-.32-.23,1.94.76.56-.43-1.12.55-2.82,1.54-4.42s2.07-3.07,2.09-3.24c.15-.73-1-.09-.44-1.27a10.48,10.48,0,0,0,.82-.71,7.1,7.1,0,0,0,1.18-1.54c.55-1.08-.13-1.47.51-2.91.22-.49,1.16-.52,1.42-1.67.09-.45-.35-.68,0-2.06a16.34,16.34,0,0,1,.51-1.61c.18-.56.35-1.17.48-1.78a5,5,0,0,0-.4-3.65c-.14,1.58-1,.69-1.41,0A36.31,36.31,0,0,1,499,97a74.45,74.45,0,0,1-4.36,7.89c-.54.93-1.08,2.78-1.84,3.86-3.18,4.47-6.72,7.54-10.32,10.73s-7.27,6.29-10.36,9.06c-.31-1.51-1.92-.4-2.22-1.92-3.4.93-6.33,3.47-8.29,4.45-4.15,2.1-6.9,3.5-9,4.68a58.55,58.55,0,0,1-6.36,2.94c-1,.41-1.38,1.12-2,1.36-2,.86-3.92,1-5.93,2-3.36,1.55-7.92,4.61-10.75,4.54-1.43,2.12-3.13,1.57-5,2.21-4.71,1.64-10.08,3.64-13.25,4.6-1,.3-1.16-.21-2.38.19a253.18,253.18,0,0,1-27.82,7.34c1-.94.94-2.23,2.53-3,2.94-.45,3.32-.68,5.61.19.73-.89.17-2.21,2.58-2.55,1.94-.61,1,1.64,3.35.64,4.36-1.53,6.67-3,9.51-3.44,0-.57-.48-1.25.37-1.57,3.69-.24,3.81-2.64,5.81-2.13.59.54-2.57,1.94-.35,1.58.75-.67.57-1,1.82-2-.18.16.43.53.88.23s-.38-.7.46-1.12c1.88-.94,4.33-.95,6.47-2.5,1.08.21,4.57.78,5.41-.81-1.16.37-2.52.91-2.49-.15a38.46,38.46,0,0,0,12.44-4.49,108,108,0,0,1,12.18-6.05c-.11-1.73-2.1-1.23-1.16-2.57,2.11-1.25,3.29-1.18,5-1.8,2.78-3,7.1-3.84,9.68-5.62-.55.2-.94.08-1.1-.45,2-.71,1.32-1.53,2.93-2.26,1.06-.36,1,0,3-.74,1.08-1.49,3.68-3,5.82-4.48s3.91-2.78,3.53-3.45a5.91,5.91,0,0,0,2.48-1,12.21,12.21,0,0,0,2.12-1.79,33.37,33.37,0,0,1,4.25-4c-.82-1.27-1.75-.55-2.6-1.29-3.53,3.25-7.19,6.85-11.12,10.07a47.09,47.09,0,0,1-12,7.67c.22.72-2.37,3.22-3.64,2.5.77-2,3.57-3.14,6-4.43s4.48-2.62,3.78-4.52c-.52.21-.9.11-1.1-.41-1.94,1.93-.79.76-2,.72-1.93-.06-4.65,3.46-5.64,4.36-4,.87-6.7,3.38-8.37,4.25-.88.48-1.67.26-2.17.5-1.18.6-1.58,1.87-2.94,2.36-1.89.68-5.73,2.25-8.18,3.39-4.48,2.15-9.11,5.11-14.08,7.07-1.4.56-2.92.8-4.3,1.39-1,.42-1,1.13-1.87,1.58-.7.32-.69-.26-.86-.24-.37.06-3.21,1.38-4.21,1.75-5.31,2.06-10.62,4.76-14.9,6-1,.28-2.59.07-3.81.44-1.63.5-3.07,1.52-5,2.13-5,1.61-12.54,2.55-13.93,4.38-3.12-.38-7.29,1.67-11.38,1.62-1,.19-.55.94-1.35,1.2.15-1.54-4.18-.39-5.45-.05-3.11.81-6.59,1.71-8.2,2.21-.68.21-1.08-.42-1.58-.24-.2.06-.35.93-.63,1a2.41,2.41,0,0,1-1.59-.26c.58-.18,1.5-.22,1.46-.67-11.13,1.9-16.84,1.61-24.29,3.91,1.73,1.34,4.92-1.42,6.17-.19-.94,1.19-5.3.77-7.6,1.28a1.81,1.81,0,0,1,.62-1.48c-1.93,1.1-5.52-.07-7.69.27-.32,0-1.49,1.08-2.21,1.14-1.71.15-4.81-.11-6.94.09-3,.31-7.61.58-10.73.74-3.65.2-7.59,1.18-11.49,1.09-3.66-.09-8.46,0-12.28,1.39-2-1.54-4.55,0-6.93-.31-4-.42-7.19,0-10.78.12-2.13,0-4.58-.44-6.92-.47a4.48,4.48,0,0,1-1.54.45c-2,.1-4.15-.54-6.15-.54-1.32,0-2.56.94-3.86.4-.48,1.26,3.12,2.47,3.83,1.48-.43,0-.87-.39,0-.46,2.11-.32,1.54.95,3.07,1,.87-2.16,6-.32,6.95.05.18-.36,0-.93.78-.94,1.09.11,1.29.78,2.31.94.17-.36,0-.93.77-.94,1.47,1.18,3.34-.61,5.4.43,1.6-2.16,2.89,1.11,3.83-1.46,1.59.1.75,1.75,2.35,1.84-.61-2.05,1.54.36,1.52-1-2.94-.22,3-1.17,2.31-.06-.94.08-1.82.19-1.52,1,3.23-.26,6.58-1.35,9.21-1.68a3.25,3.25,0,0,1,1.55.42c1.79-.26,2.24-1,3.82-1.1a1.8,1.8,0,0,1-.72,1.45c1.52.08,1.5-.7,2.27-1,.74,1.36,1.11-1.13,3.06-.61l.06,1.41c3.51-.43,7.15-1.35,10-.08.14-.37,0-.93.71-1,.6.07,1.51-.09,1.56.37-1.5.49-2.6,1.45-3.76,1.65a3.71,3.71,0,0,0-2.37-.8c-.45.06-.81,1.43-2.26,1.07-1,.05-.75-.79-1.59-.87-3.43,2.47-10.31,1-15.39,1.59-1.92.21-4.18.52-5.38,1.55-1.09-1.56-6.36-.06-11.6.17-2,.1-3.39-.45-5.43-.45-3,0-6.76.27-9.29.41-1.71.08-4.44-.07-5.42-.09a13.47,13.47,0,0,0-3.89.85c.33-.1,1,.49,0,.47-2.44-1.94-10.44.3-14.69-1.48-.19.35-.07.93-.82.9-3-.19-12.6-1.32-15.52-.46.36-.1,1.71.33,1.52.58-1-.75-6.21-.42-8.49-1.12-.55-.16.34-.89-.7-1,.09,0-.39.86-.85.87-1.13,0-1.62-.62-2.28-.67a10.94,10.94,0,0,1-2.36.25c-8.29-.48-18.82-1.69-29.22-3.17s-20.69-3.21-28.64-4.3a3.64,3.64,0,0,1-1.43-.78c-1.56-.21-1.7.46-2.48.43-3.62-.16-2.89-1.3-1.33-1.25-4.08-.53-10.31-3.27-12.38-1.95-.28-2.53-7.71-2-8.32-2.22-1.33-.42-1.32-2.85-2.88-1.3.76.22.72,1.07-.26.9.47-.86-2.25-.76-2.88-1.34-.13-.13.44-.82.27-.91-2.42-1.25-6.87-2.08-8.2-2.59C78,151.06,74,149.58,69,147.33c-2-.11-.8.7-2,.73-.82-.44-.5-1-.18-1.62-4.4-1.81-9.23-4-10.52-5.3-.43.57-.52,1.68-1.55,1.33.55-1.55-3.18-.3-2.6-1.87.18-.61,1.1,0,2,.49s1.64.81,1.49-.3A17.22,17.22,0,0,1,48,136.67c-1.49.37.88,2.57-1,1.63-1-1.24.79-2.4-2.41-3.68-2-1.44,1,2.23-1.44.77-1.3-1-1.26-2-1.88-2.94a3.53,3.53,0,0,1-2.12.25,1.75,1.75,0,0,1,1.47-.69c-2-.63-4.1-2.57-6-4.5s-3.75-3.75-5.68-4.05c1.53-1.29-1-1.53-1.68-1.81l1.05-.94a31.8,31.8,0,0,1-6.51-9.54,33.57,33.57,0,0,1-2.43-9.23c-.13-1-.68-1-.7-2.42,0-2.18.9-4.24,1.36-6.44.39-2,.48-4.45,1.4-6.3a32.18,32.18,0,0,1,4.2-5.85c1.7-2.17,3.29-4.16,4.92-6a29.58,29.58,0,0,1,5.24-4.71c-.11-.38-.6-.7-.05-1.22.82.51,1.57-.09,2.46-.88a6.52,6.52,0,0,1,3.27-1.91c-.37-.89-1.4-.13-2.09-.18,1-.82,2.09-1.56,3.13-2.34-.15,2.47,2.57-.81,3.74-1.43-.47.26-.9-.1-.26-.39.18-.08.89.48,1.16.37.77-.33,1.47-1.52,2.36-2.06,1.38-.87,3.53-.47,3.32-2-2.66,0,2.94-.55.87-1.59a159.52,159.52,0,0,0-14.27,8.2c-.84.57-.49,1.12-1.57,1.82-1.44,1-2.92,1.27-4.23,2.38-1.14.93-1,1.52-2,2.53-.06.06-.42-.4-.91.23a16.12,16.12,0,0,1-1.68,2,10.26,10.26,0,0,1-2.45,1.9c-.12.91-.25,1.84-.38,2.78-.6-.75-1.39.34-2.08.5-1.38,2.55-2.52,4.34-3.44,6a22.1,22.1,0,0,0-1.22,2.5,13.15,13.15,0,0,0-.74,2.76c-.9-.25-1.15,2.15-2.25,1.26a31.76,31.76,0,0,0,3.23-6.35,34.49,34.49,0,0,1,3.16-6,63,63,0,0,1,4.75-5.64c.74-.85,1.51-1.61,2.22-2.45s1.48-1.64,2.23-2.52c-.89.55-1.63.72-2.17.11,1-1.26.18-2,2.44-3.52.74,1-2.32,2.75-.27,3.41a76.31,76.31,0,0,1,7.13-5.3.71.71,0,0,1,.36-.85c1.15-.81,2.09-1.05,4.19-2.39s4.84-2.54,7-3.8,4.83-3,7.7-4.57a46.26,46.26,0,0,1,8.37-3.72c1-.28,1,.35,1.81.22.74-1.72,3.69-2.69,6.8-3.65s6.38-1.91,7.87-3.84c.29,1.27,3.53-.43,7.67-1.73,5-1.53,4.78-1.19,7.26-2.87,6.87-.62,17.31-4.68,26.6-5.88,0-.56-.44-1.27.43-1.55.9-.13,1,.53,1.08,1.19,8-2.7,15.9-2.9,23.6-4.5,4.75-1,7.67-1.51,13.74-2.39,4.71-.65,5.38-.48,7.58-1.65,4.69.56,10.78-1,14.66-1.51,2.59-.3,5,.33,7.79,0,1.86-.2,3.33-.9,5.33-1,4.32-.34,10.6-.32,15.48-.48,6.14-.16,11.77.18,17.81.23.93,0,1.08-.56,2.29-.59,4.25-.15,7.14.84,10.07,1,1.41.07,2.37-.58,3.06-.58.2,0,.9.88,1.58.89a6,6,0,0,1,2.29-.54c3.19.1,6.5.82,9.26.74,1,0,1-.57,2.3-.5,1.52.07,2.5.82,3.86.9,3,.19,6.28-.16,9.22,0,1.33.07,2.88.86,4.6,1a8.49,8.49,0,0,1,2.31-.44,4.17,4.17,0,0,1,1.52.5c1,.07,1.1-.67,2.31-.44a8.38,8.38,0,0,1,3,1.49c1.86-1.5,6.13-.19,9.19.29,2.12.34,4.55-.23,4.56,1.13-3.19.21-7.79.46-9.16-.82-.18.53-.88.71-1.57.9-.23-1.61-4.56-.41-6.86-.65a10.24,10.24,0,0,0-2.29-.5c-1.38-.06-2.24.44-3.84.41-4.81-.1-11.3-2.31-13-.49-2.21-1.79-6.21-.08-10-.33-2.22-.16-5.14-.74-6.11.62L250.94,21c-6.5.87-18.83-.15-30,.55-4.15.26-8,1.27-11.45,1.38-1.09,0-1.37-.67-2.38-.72.23,0-.9.56-1.49.61-1.1.09-1.44-.53-3.1-.18-1.08.23-1.79,1.55-3,1.25-.16-.65-1.29-.23-2.34-.23-1.74,0-1.18-.52-3.92-.52-4,0-4.06,1.65-6.76,1.75-1.22-.06-.84-1.4-3.17-.55-2.5-.1-.85,1.67-2.86,1.79,0-.6.89-.77.57-1.5-3.29,1.28-7.71.27-11.56.69-2.82.32-5.2,2.15-7.61,1.21-1.75.93,1.6,1.18-.45,2-.29-1.9-5.46.5-6.37-.82-1.91.26-2.22,1.15-3.62,1.62,2.76-1.76-7-.53-4.71-.07,1.19-.19,2.6-.57,2.44.49-4.13,1.07-5.37-.53-8.67-.2-.87,2-5,.3-5,2.51-2.65,1.24,2.22-.41,1.7.59-1.63.56-3.82,1.94-4.59.53,2.08-.14,1.23-1.28,1.94-1.88-2.45-.61-5.36,3.45-8,2.81,0,.91,1.08.81,1.17,1.65-1.39-1.22-7.51.76-4.39-1.84-2.21.15-1.78,1.12-3.62,1.39.21-.64-1-.69-2.27-.58a25.4,25.4,0,0,0-2.56.38c-.55.19-.49,1.14-2,1.52-1,.24-1.19-.3-2.35.16-.95.85-.67,2-1.58,2.9-1.85-.63-6.75,3.32-8.48,1.06A15.18,15.18,0,0,0,106.15,38c-.26.18,1.4.3.61-.66-2.48.16-1.59,1.24-2.68,1.78.22-1.65-2.6.08-3.36-.46a4,4,0,0,1-1.06,1.82c-1.44,0-1.24-1.6-2.48-.21-1.51,1.7-1.8.39-3.82.76-.33.06-4,2-4.22,2s-.23-.91-.32-.89c-.65.22-2.37,1.4-3.47,1.75-2.62.89-2.84.29-3.45,1.8-.25-.55-1.15-.25-1.23-1a101.52,101.52,0,0,1-9.64,5c-.94.39-1.14-.34-2.51.09-3.34,1-7.95,4.4-6.37,4.59-.09-.28-.15-.55.48-.77,4.69-.58,9.08-3.76,13.55-5.58,5.38-2.21,11.54-2.77,14.41-5.44,1.79.15,3.26.67,5.13.75,0-.86-1.46-.78-.44-1.34.25.74,2.1-.41,2.47.18-1.92,1.62-4.09,3.46-6.54,2.19,1.49-.83,2.73.47,2-1.2a36.94,36.94,0,0,0-9.4,3.36c.73-.27,1.2.44.34.88-4.06.49-6.35,2.78-9.77,2.37-2.3.75-1.36,2-3,2.82-2.65-.13-3.68,1-5.52,2.55a16.77,16.77,0,0,0-5,1.47c-1.61.83-2.74,1.91-2,3.14.82-.36,1.85-1.07,2.21-.64-1.52.46-4,2.86-4.85,2.09,2.79-2.5-.56-.53.18-2.79C53,60.54,48.8,64.66,45.1,66c-.43.61-1.09,3.2-1.88,2.53.83-2.37-.77.26-2.07,1-.74.39-2.5-.16-3.23.82-1.1,2.2-2.14,3.5-3.91,3.58-.2.85-.37,1.74-.55,2.6a14.16,14.16,0,0,0-5,7.13c-.52-.2-1.06.68-1.5,1.6-.72-.09-1.13.39-1.23-.69A32.14,32.14,0,0,0,23.05,92a46.44,46.44,0,0,0-1,8c.13,1.15,1.25.44,1.19,2a1.06,1.06,0,0,0-1,1,4.59,4.59,0,0,0,.34,2.07c.48,1.56,1.49,3.17,1.55,4.26,1,.68,2.21-.71,3.09.86-.71.18-1,.51-.92,1a3.26,3.26,0,0,0,.82,1.44c.88,1,2.1,1.92,2.06,2.33-.51.38-1.1-.79-1.62-.65.57.92,1.4,1.83,2.06,2.71A5.68,5.68,0,0,1,31,119.4c1.13-.25.46-1-.29-1.76s-1.62-1.65-1.05-2a10,10,0,0,1,2.24,2c.85,1-.3,1.66,0,2a18.35,18.35,0,0,0,9.09,6.76c-1,1.61.47.53,1.21.88A13.18,13.18,0,0,1,44,128.57c1.81,1.57,1.1.27,3.42,1.66,1.19.74,2,1.65,3,2.37.34-.23.49-.79,1.13-.43-.1.72,1.06,1.71,2.35,2.56a13.13,13.13,0,0,0,3.2,1.51c.9.85.35,1.85,2.11,2.63.34-.45.46-1.26,1.3-1,2.16,1.84,7.07,2.42,7.82,5,1.27-.73,2.57-.74.91-2.17,1.36,1.27,3.1,0,2.82,1.15-.42.55-1.46.27-2,.74,2.76.23,5,2.07,4.66,2.84.93-.32,2.64.35,3.38-.25-.33.75.14,1.33,1,1.85.08-1.22,4.4-.45,4.67.63.11,1.39-3.32-1.5-3.22-.11,1.59.26,4.61,2.19,5.26,1.27-.32,0-1.72-.85-1.31-.92,1.37-.24,3.78.83,6,1.88s4.3,2.11,4.84,2c-.76-.34-1.55-1.26-.47-1.12,2,.59,1.19,1.9,3.31,2.42,1.11-2.21,1.84,1.29,4.47,1.22a3.72,3.72,0,0,1,1.84-1c.08,1,2.9.57,5.22,1.32.91.29,1.39,1.24,2,1.45,2.38.79,2.64-.48,1.4.82,2.32.95,1.37-1.28,3.31-.69,1.56,1.33,3.39.5,4.51,1,1,.41.78,2.33,3.48,2.17.3-1.5,3.43-.21,5.83-1.72a2,2,0,0,1-1.11,1.7c2.69-.38,4.16,1.24,5.47.06,1.39.37,2.07,3.18,3.54,2.07-.57-.21-.81-.54-.6-1.06,1.18,1.7,4.13-.44,4.56.78.1,1.34-2.91-.05-3.28.87l4.57.76c.85-1.62-1.85-2.67-1-3.5,1.37,1,1,.12,3,.49-1.77,1.25.33,2.14-1.28,3.14l3,.48c2.36.5-1.73-1.64,1-1.28,2.48,2.69,6.69-.41,8.26,2.14-1-.2-5.52-.85-3.12,0,2.78.55,4.32.07,6.24-.11,1.12.58,5.11,2.07,6.06,1.24-.58-.18-1.51-.2-1.47-.66,2.94-.45,1.17.43,3.77.93.22-.55.88-.19,1.53.17.18-.54,0-1.34.92-1.32,0,1.67,3-.85,3,.81-.19.88-2.57,0-2.45,1.15,3.22-.89,6.51.51,9.29,0-.58-.16-1.5-.15-1.48-.61,1.94-.47,2.31,1.07,3.74,1.29s1.86-.5,3.12-.2c.07,0,.66,1.91,1.5.6-.59-.15-.86-.47-.69-1,2.63,1,6.13-.15,6,1.9.18-1.68,5.05,0,6.25-1,1,.72,4.39,2.48,6.1,1.31-1.26.06-2-.76-.72-1,3-.52,0,2.12,3,1.58.18-1.46,2.59.16,3.17-1.73,1.78.26,3.59.46,3,2,3-1,10.54.5,12.36,0-.71-.52-2.85-.22-2.28-1.47,2.38-.29,1.45,1.33,3.83,1,1.31-1.44-2.81-2-.71-2.37.8.79,2.35-1.13,4.6.1.84-.43.28-1.74,2.33-1.38-.71,1.51,2.5.7,3.06,1.45-.94-1.32,2.49-1.29,1.54,0,1.51.15,1.52-.62,2.3-.92,4.58.6,7.23-.49,10,0-.59.11-1.51,0-1.53.49,2.1.32,1.54-1,3.07-1,3.77-.07,5.91.28,7.67-.12.83-.2,4.72,0,4.56-1.53-10.35,1.17-20,.51-29.12,1.65-.68-.42-4.3-1.41-4.59-.54.43,0,.87.4,0,.47-3.89-.65-8.07-.85-10,1.16-.1-.56.18-1.34-.72-1.44-2.35,0-5.9.47-7.77,2.05-2-1.28-9.1.87-10.69-1.51,5.31-.27,7.13.87,11.52.14-2.78-.87,3.1.23,1.6-1.36-14.88,0-32.48-.61-45.91-2.6-1.18-.16-2.72.16-3.86,0-4.73-.59-9.37-2.17-14.3-2.89-1.93-.27-4.55-.27-6.87-.6-11.72-1.67-21.32-3.38-30-5.92-2.45.27,1.69,1.91-.44,1.83l-2.23-.53c.18-.58,1.1-.41,1.07-1.2-1.77.66-3.16-1.18-5.06-1.74-1-.3-1.72.06-2.34-.11-2.61-.69-7.19-2.18-10.28-2.88-2.13-.46-3.86-1.19-5.81-1.79-2.75-.88-4.75-1.53-6.48-2.18-3.4-1.29-7.1-1.67-8.35-3.61-2,.22-4.4-1-6.79-2.31s-4.74-2.65-6.7-2.6c-2.85-2.63-5.91-3.49-9.64-5.75-1.55-.95-3.49-2.83-4.71-3.58s-2.93-.88-4.11-1.81c-4.32-3.27-7.55-7.76-10.44-11.62a10.56,10.56,0,0,1-.78-1.11c-.6-.66-1.41-.51-1.88-1.22a15.16,15.16,0,0,0-.84-2.6,5.34,5.34,0,0,0-.8-1.12,4,4,0,0,1-.64-1.16,7,7,0,0,1-.23-2.26A22.77,22.77,0,0,0,26,101a12.54,12.54,0,0,0-.4-2.42,11.93,11.93,0,0,1-.28-1.32,20.52,20.52,0,0,1,1.06-5,37.13,37.13,0,0,1,2.35-5.34,5.65,5.65,0,0,1,.58-2,3.9,3.9,0,0,1,1.14-.89c.77-1.19,1.09-2.51,2.08-3.63,1.15-1.27,2.53-1.92,3.66-3.36.74-.88.27-2.24,1.42-2.67.74-.5,3.28-.41,3-2-.8.62-1.36-.42,0-1.2,1-.64,1,.48.9,1.1,2.5-2.66,5.76-3.85,8.56-5.65,2.26-1.47,4.09-3.5,6.73-4.65,3.17-1.34,5.88-3.1,9.3-4.86,1.37-.68,3.41-.92,5-1.8C73.34,54,75,53.92,77.45,53c1.66-.6,2.3-1.46,4-2.13.54-.22,3.44-.75,4.41-1.18a59,59,0,0,1,8.56-3.05,24.39,24.39,0,0,0,2.74-1.4c3.72-1.26,7.64-.9,10.57-1.81,1.38-.41,3.21-2,4.85-2.36,1.8-.43,3.62-.09,5.39-.49a54.39,54.39,0,0,0,11-3.22c-3.83.66,2-1.18,2.76-1.6,0,.69-1,1-1.17,1.71,3-.5,5.35-.92,7.54-1.19,3.32-.44,6.41-1.93,9.61-2.45,1.46-.25,3.3.22,4.67.07,8.72-1,18-2.83,27.16-3.87,2-.23,5,.06,7.63-.52,3.52-.76,6.11-.46,9.89-.66,3.59-.2,7.73-.91,11.38-1.13,14.58-.86,26.19.14,38.86-1.47,4.2,1.94,9.55.45,13.74.6,2.56.09,5.05.75,7.61.86s5.09-.91,6.85.47c.16-.36,0-.93.76-.94,1.17.7,3.54.66,4.54,1.46a179,179,0,0,1-22.77.09c-.64.45-3.88,1.67-4.54.58,0-.63,1.32-.47,1.49-1-1.93.57-5.27.31-6,1.58-3.11.83-4.71-.62-5.34-.75a44.22,44.22,0,0,0-9.13,0c-3.47.46-7.13.38-10.57,1.11-.15-1.88-2.73-.29-3.83-.2s-1.42-.42-3.06-.24c-1.38.15-1.67.63-3,.71s-2.68-.38-3.82-.15-1.75,1.55-2.94,1.22c-1.07,0-1-.95-1.64-1.27-3.7,1.73-10.34,1.26-15.86,1.7-2.4.06-1.53,1.63-4.4,1.49.76-.78.67-1.24-.93-1.3-5.41,2.55-10.79.36-15.56,3.63.08-1-1.15-.77-1.72-1.16-4.66,1.4-9.36,1.6-12.61,2.62-.33.11-1.18-.18-.82-.32-.79.31-1.29,1.21-2.07,1.34a13.78,13.78,0,0,1-2.49-1c-1.1.05-1.51.78-2.14.9-1,.2-1.12-.38-2.32,0-.29.09-1.44,1.16-2,1.38.21-.07-.38-.41-.83-.3a4.69,4.69,0,0,1-1.39.76c-.73.19-1-.29-1.57-.14s-3,1.72-3.05.18c-2.61,1.54-2.65,1.3-5.9,1.35-1.62,1.65-1.77.85-4.28,1.52-1.37.37-1.51.87-2.81,1.18a12.81,12.81,0,0,0-1.7-.53c-1.9.33-4,1.61-6.41,2.2a60.33,60.33,0,0,1-6.76.95c-.95.29-.43,1-1.17,1.34-2.91-.36-7.41,2.21-10.84,2.95-1.69.38-2.44-.37-3.84.33,1.29,1.12.22,1.24,1.49,2,1-.86,4.4-1.11,5.48-2.35-.16.19-1.1-.15-.14-.45,0,0,.4.09.89.16a5.27,5.27,0,0,0,1.53,0c1.15-.21,2.41-.8,3.55-1.12.77-.2,3.29-.43,3.71-.62.59-.25.5-1.06,1.89-1.53,0,0,.34,0,.8,0a5.17,5.17,0,0,0,1.49-.19c1.6-.48,3.36-2.36,3-.34,19.85-5.91,42.75-9.55,63.66-11.76,1.13-.12,2.6-.84,3.69-1,1.83-.23,3,.17,4.57-.11,1.09-.19,1.3-.65,2.94-.83,3.43-.36,7.28.13,10.64-.22,1.59-.17,3-.82,4.48-.91,6.29-.43,12.51-.22,19-.59,1.15-.07,2.47-.68,3.74-.71,4.49-.14,9.11.35,13.67.24,1,0,1.49-.51,3-.6,1.85-.09,4.14.25,6.07.27,7.11.05,14.39,0,22,.16,1.43,0,1.67-.5,3-.45a4.22,4.22,0,0,0,1.51.48l13.78.36c3.84.13,7.63.31,13.41.85,1.52.15,4.44.21,5.27.27,9.77.64,18.83,2.27,27.66,3.57.92.13,1.11-.38,2.29-.24,2.27.26,4.36,1.38,6.61,1.67,2.79.4,4.82-.22,7.5.46a48.94,48.94,0,0,0,5.19.7c3.47.53,8.26,2.18,12.4,2.85a12.32,12.32,0,0,1,3,0c3.51.75,8,2.29,10.06,2.82,8.26,2.17,13.41,2.94,21.44,5.32,5.08,1.54,9.7,3.82,14.26,5.52,2.46.91,5.13,2.15,7.31,2.91,1.42.46,2.79.44,4.16,1A151.24,151.24,0,0,1,446.75,66c4.33,2.29,7.9,4.45,10.57,6,1.29,1.69,2.8,2.74,3.34,2.72.83,0,1.27,1.1,2.47.59.52-1.24-.38-2.46-1.46-3.65s-2.22-2.37-1.9-3.69c2.3,2.41,5,3.61,7.06,5.41,2.23,2,3.62,4.35,5.18,6,.47.47.85.14,1.34.81s-.13,1.13.13,1.67c0-.14.9.37,1.13.78a3.89,3.89,0,0,1,.45,1.43,5,5,0,0,1-.1,1.14,8,8,0,0,0-.22.92,1.43,1.43,0,0,0,0,.79A3.53,3.53,0,0,0,476,88.66c1.22,0,1.55-.27,1.64-.76s-.17-1.09-.16-1.67a8.93,8.93,0,0,0-.57-4.22,7.79,7.79,0,0,0-3.49-4c-.08-.72,1.17-1.31-.13-2.18-1.79-1.44-2.58-3.32-4.42-5.11-2.8-2.69-6.74-4.91-10.32-7.36a17.59,17.59,0,0,1-1.89-1.56,22,22,0,0,0-2-1.6,92.76,92.76,0,0,0-15.22-8.36c-3-1.14-.74.33-1.89-1.22-.55-.77-4.73-1.69-5.55-2-3.5-1.51-7.29-3.68-10.9-5-.71-.26-1,.21-1.57,0-3.6-1.22-7.9-3.38-10.5-4.37a81.36,81.36,0,0,0-12.39-3.45c-2.17-.4-3.84-1.32-5.94-1.26-1.49-.45-1.2-1.55-2.7-2-2.77.86-5.39-1.34-8.16-2-1.37-.35-2.35.06-3.08-.06-2.24-.4-4.33-1.91-5.95-1.47,2.33.77-1.43.4-2.33.1-.18-.85,1.3-1,.21-1.39-3,1.94-7.17-2.23-9.84-1.44,1.14.28,0,.78-.89.84-.68-.73-.48-1.83-2-2.17-2,1-4-1.17-5.45.27-4.19-2.48-9.53-.59-12.76-3.3-.43,1-3.79-.16-5.4,0-3.85-1.29-11.28-3.21-14.44-3-.59,0-.82-.53-.74-.53-1,0-2.83.33-3.11.28-1.2-.22-1.78-1-3-1.12s-2.62.39-3.87.27c-1.48-.13-3-.92-4.59-1.16-7.88-1.21-17.06-.77-23.16-1.55a102.88,102.88,0,0,0-11.61-1c-1.31,0-2.61.59-3.87.51-1.71-.12-1.65-.63-3.11-.9l-.6.11a8.92,8.92,0,0,1-1.23.11c-.86,0-1.63-.21-1.29-1.11,4.09,1.35,9.14.24,13.19.33,3.21.06,5.75.77,8.53.5,1.06-.11,7.29-.43,7.76-.35.71.1.73.91,2.31,1,2.16.12,4.59-.62,7-.27A109,109,0,0,0,315,15.34c-1.81-.11.36-1.27,1.61-.84-.08.6-1,.59-.86,1.36a64,64,0,0,1,10.81.77c1.9.21,4.28.26,6.18.52,2.08.29,4.5,1.3,6.84,1.59,1.6.2,4-.18,5.43.1,1.07.21,1.86,1.11,3,1.28,1.4.22,1.79-.18,3.12-.1,1.07.07,2.06.72,3,.84,1.45.19,1.76-.2,3.13-.07,1.11.1,2,.76,3,.88,5.33.55,15.63,2.8,19.76,3.58,4.47.82,8.66,1,13,2,1.52.36,4,1.29,5.94,1.76,3.94,1,9.72,2.76,15.48,4.62s11.48,3.8,15.47,4.76c-1,1.76,3.25,1.57,3.49,1.66-.2-.06,2.06,1.1,2.73,1.46a48.48,48.48,0,0,0,6.44,2.4c.73.27.67.77,1.24,1s1.26-.09,1.59.13c.69.43.32,1,1.75,1.74s1.75.17,3,.77c.87.43,1.59,1.69,2.38,2.11,3,1.53,6.87,2.13,8.52,4.78a37.62,37.62,0,0,1,7.56,4.4,58.84,58.84,0,0,1,6.55,5.8c4,4.1,7.08,8.31,10,11.58.84-.36.47-1.2,1.2-1.6-1.59-2.3-2.3-4.7-4.74-7.16-.63-.6-1.65-.88-1.9-1.18-.78-.84-.75-1.85-1.59-2.66-1-1-1.58-.65-2.61-1.5-1.39-1.2-2.73-3-4.3-4.27-4.7-3.69-9.33-5.44-13.13-7.59-1.33-.75-2.5-2.11-4.42-3.17-.8-.46-1.2,0-2.29-.52-4-1.92-6.78-3.93-7.78-5.31-.36-.47-1.26-.86-1.12-1.43-6.54-3-13.68-4.59-18.57-8.26-1.1.78-4.75-1.2-6.87-1.48.59-1-3.5-.67-1.9-2,8.76,3.31,18.92,6.7,25.82,9.13,3.87,1.35,7.47,3.85,11.25,5.57,1.33.62,1.81.21,3.05.85,2.74,1.43,5.25,3.63,8,5,1,.51,1.51.2,3,1.1a64.89,64.89,0,0,1,6.38,4.87A28.29,28.29,0,0,0,479,58.91c1.48-.76-.08-1.91.18-2.83-1.58-1.71-2.08-.7-3.53-2a29.3,29.3,0,0,0-3.42-3.72,24.86,24.86,0,0,0-3.72-3c-.34-.18-.66.27-1.64-.37-.79-.52-1.47-1.88-2.37-2.36a24.23,24.23,0,0,0-2.35-.7c-1.2-.83-1.22-1.5-2.45-2.27-.88-.53-2.06-.81-2.9-1.37-1.09-.72-2.13-1.86-3.27-2.5-.88-.48-1.66-.08-3.14-.82-1.32-.67-2.67-1.91-4.09-2.68-3.44-1.78-7.05-2.53-9-3.3-1.1-.44-2.28-1.67-3.48-2.17-1.71-.73-2.72-.41-4.69-1s-5.12-1.9-7.47-2.72c-9.72-3.42-20.89-7.43-31.06-9.82-1-.22-1.18.29-2.43,0-2.21-.5-4.85-1.19-6.91-1.75-3.39-.89-9.13-1.77-13.19-2.62-2.42-.53-4.56-1.47-6.9-1.94-1.13-.21-1.75.25-2.42.16-1.91-.26-4.55-1-6.21-1.26-2.54-.47-3.63-.36-6.27-.72-3.55-.49-7.48-1.68-11.69-2.12-1.43-.15-1.88.45-3.19.2-.19,0-1.95-1.1-2.28-1.14-3.54-.4-6.9.18-10.27-.28-1-.14-1.06-.5-2.33-.63-1.49-.14-1.78.42-3.18.28-.11,0-2-1-2.31-1.07-1-.13-2.66.39-4,.27-2.27-.21-4.4-1.07-5.54.22-4-1.74-9.84-1.07-15.73-1.41-2-.09-3.25-.92-5.51-1s-5.23.54-7.89.43C270.19.75,263.37.05,260.6,0c-5.24-.1-9.83.72-13.41.8-3.85.08-7.86-.55-11.08-.49-2.92.06-5.69,1.18-7.92,0-2.26.64-5.58.77-7.83,1.44-2.44-1-6.31-.51-9.5.26-1.11,2,3.42-.12,3.27,1.15a8.12,8.12,0,0,1-4-.14c1.13,1.25-3.55,2.59-3.11.73.53-.54,3,.07,3-1.67-2.77-.76-5.67.15-8.72.31-7.79.43-16,1.16-22.06,2.52a57.2,57.2,0,0,0-5.7-.66c-.43.7-1.56,1.1-3,1.39-4.46.34-9.33.41-13.52,1.16-3.19.56-6.32,1.9-9.25,2.59-.8.18-1-.27-1.66-.17-1,.14-1,.71-2.27.91s-1.53-.48-3.32-.31a2.64,2.64,0,0,1-1.47.77,43,43,0,0,0-6.26,1.31c-1.6.41-3.75.38-5.59.76-2.09.4-4.16,1-6.26,1.46-4.38.88-8.85,1.21-12.61,2.74-1.21.5-1.55,1.84-2.87,1.77-1.85-1.62-6,1.2-8.68,2-3.8,1.18-8,1.46-11.15,2.61-2.22.79-4.16,1.61-6.21,2.19a101.15,101.15,0,0,0-13.37,5c-4.25,1.89-8,3.83-10.5,5-2.25,1.1-5.19,1.75-5.88,3.51l-.66-1.26c-3.77,1.52,1.62.53-.86,2.06-1.26.68-1-.91-2.2-.4.56.88-.17,1.37-1.16,1.66a22.82,22.82,0,0,1-2.66.51c-2,3.11-9.21,5-14.59,9.24-1,.82-1.1,1.45-2.67,2.76-.86.7-1.81,1.3-2.75,2a15,15,0,0,0-2.69,2.26c-.82.89-3.31,3.66-5.28,6.07s-3.51,4.23-2.79,2.23a3.61,3.61,0,0,0-1.27,2.54,4.19,4.19,0,0,1-1.19,2.63,24.58,24.58,0,0,0-5,7.83c-.3.73-.6,1.47-.92,2.23s-.58,1.59-.89,2.43-.63,1.71-1,2.66-.69,1.92-1,3a33.71,33.71,0,0,0,.61,9.7c-.84.54-.93,2.64-.54,4.71a46.51,46.51,0,0,0,1.28,4.8A55.48,55.48,0,0,0,5,119c.65,1.46,1.28,2.8,1.85,4s1.08,2.38,1.51,3.38c1.05,1.31,1.75,1.22,2.78,2.29a70.7,70.7,0,0,0,7.68,8.77,66.74,66.74,0,0,0,8.57,7.05c-2.22-1-.46,2.45,1,1.88-.79-.57-.49-1.36.55-.76.54,1.54,5.11,5.65,4.11,2.27-.27.7,2.59,3.29,5.39,5.23s5.51,3.38,4.81,2.48c-1.34-.84-4.17-1.77-2.68-2.55a35.75,35.75,0,0,0,4.63,2.89c1.26.66,2.54,1.14,4.76,2,0,.88-1.7.5-.62,1.27,1.85-.52,2.35.56,5.32.92,2.51,2.4,6.85,4,10.22,4.3,0,1.27,1.85,1.72,2.82,2.09,2.77,1,4.52,1.47,5.54,2,.61.32,1.35-.16,1.73.1s0,1.39.33,1.61c.54.38,2.33-.07,2.68-.09C77.05,169.79,75.69,169.48,75.74,168.91ZM.38,90.82c.16-.9.3-1.8.49-2.69l.92.2c-.18.87-.33,1.76-.48,2.64ZM72.5,28.08c.76-.28.81.3,1.12.58C72.86,28.94,72.81,28.35,72.5,28.08Zm64,8.08c-.67-1.37,1.74-1.65,1.74-2.79,2-.44,1.93,1.11,4,.6.15,1.15-2.45.61-2.34,0C137.29,34.17,139.37,36.05,136.49,36.16Zm-60.61,17c-.75-.09-.92-1-1.95-.7,0-1.5,1.69-.2,1.58-.17,2-.72,6.41-4.49,7.91-2.67C80.5,50.69,77.61,51.83,75.88,53.16ZM38.34,73.06c2.36,0-2.59.79,0,0Zm353.17,82.61c-.09-1.71,2.45-1.11,3.65-1.39C395.53,155.23,392.55,155.15,391.51,155.67Zm-52,25c-3.32,1.06-5.46-1.5-7.92.55-2.3-1.89,7.75-2.19,11.58-3,1.13-.37-.4-.55-.2-1.4,2,1.43,4.83-.87,6.46.48,3-.69,5.7-2.26,9.14-2.91,1.4-.26,1.72.25,3.19-.07,13.37-2.92,28.43-7.81,39.32-9.43.74-.21.45-.71.53-1.11,1.73.37,5.67-1.57,7.15-1a31.66,31.66,0,0,1,13.47-5c1.18-1.83,2.33-1.41,5.91-2.47-.43,2.2-7.63,2-7.77,4.54-2-.06-3.82,1.13-6.12,1.87a10.24,10.24,0,0,1-2,.35l-.84.07h-.33c-1.89.66-2.78,1.74-4.36,2.21s-3.89.58-5.5,1c-2.91.7-5.44,2.2-8.27,3-1.53.46-3.25.24-4.76.63-.7.18-1.79,1.35-2.11,1.45-.61.17-1.37-.34-2.44.05-1.25.45-2.18,1.32-3.68,1.76a6.7,6.7,0,0,0-2.53-.45c-3.34,1.84-8.14,2.46-12.57,3.08s-8.5,1.19-10.5,3.06c-4.47-1.09-9.46,1.23-14.17,1.63C339,179.94,341,180.34,339.55,180.65Zm-280-18.88c.31.4-.8.31-1,.1C58.26,161.48,59.37,161.56,59.54,161.77ZM160.8,185.85c.39.29-.64.53-.85.38C159.57,185.93,160.6,185.7,160.8,185.85Zm-9.52-1.25c.38.29-.66.51-.85.35C150.05,184.65,151.08,184.44,151.28,184.6Zm-20.68-2.84c-2-.42-4.07-.84-3.71-2.13C129.05,180.77,130.62,179.62,130.6,181.76Zm-7.94-1.5c.46-.5,1.21-.76,2.56-.47C125.4,180.85,123.92,180.46,122.66,180.26ZM118.8,179c.36.32-.7.47-.89.3C117.55,179,118.61,178.82,118.8,179ZM15.71,133.43c-1.56-1.49-2.15-2.62-1.41-3,.7.8,1.39,1.64,2.11,2.4ZM6.88,120.26c.09.67-.94-.5-1-.87C5.83,118.73,6.84,119.9,6.88,120.26Zm-1.6-3.33c-.33,0-.71-.53-.91-1.09s-.27-1.15,0-1.24C5.17,114.87,4.65,115.68,5.28,116.93Zm206.37,72.64a.41.41,0,0,1-.8,0A.41.41,0,0,1,211.65,189.57Zm-15.09-.83c.4.27-.61.56-.82.41C195.35,188.88,196.36,188.59,196.56,188.74Zm-25.39-2.17c.38.28-.64.54-.84.38C169.94,186.67,171,186.42,171.17,186.57Zm-83-15.7c.34.35-.75.4-.93.21C86.88,170.73,88,170.68,88.14,170.87Zm-22.76-7.74c.31.39-.79.34-.95.13C64.11,162.87,65.21,162.92,65.38,163.13ZM214,189.19c.41.26-.59.58-.8.44C212.84,189.37,213.83,189.05,214,189.19Zm-48.36-3.71c2,1.67-2.27-1.54,0,0Zm-42.74-6.61c-.11.44-1,.16-1.67.14C121.38,178.56,122.31,178.85,122.94,178.87Zm-23.66-5.4c.35.35-.72.43-.91.25C98,173.38,99.1,173.29,99.28,173.47Zm-2.36-.63c-1.77.08-1.8,0-.66-.66C98,172.37,97.45,174.4,96.92,172.84Zm-17.28-5.11c.33.36-.76.38-.94.19C78.38,167.56,79.46,167.53,79.64,167.73ZM50,155.87c-.23.4-1.12-.14-1.77-.35C48.45,155.13,49.34,155.67,50,155.87ZM31.53,145.16c-.44.34-.91-.33-.75-.54C31.23,144.29,31.69,145,31.53,145.16Zm-9-7c-.78.23-.62-.6-1.47-1.31C21.65,136.53,22.84,137.75,22.54,138.11Zm169.33,49.36c.39.27-.62.55-.82.4C190.65,187.6,191.66,187.32,191.87,187.47Zm-10.3-.84c.39.29-.63.55-.84.4C180.35,186.75,181.36,186.48,181.57,186.63Zm-3.17-.29c-2.77.88,2.06-1.4,0,0Zm-3.17-.31c.39.29-.63.54-.84.39C174,186.14,175,185.88,175.23,186Zm-2.42.23c-1.68,0-2.07-.53-3.12-.8C169.53,184.62,174.21,185.08,172.81,186.26Zm-8.67-1.43c.39.29-.64.53-.84.37C162.92,184.91,163.94,184.68,164.14,184.83ZM66.33,163c.49-.7,1.72-.49,3.45.31C70.08,164.93,67.75,163.42,66.33,163Zm-.61-.74c-.41.48-1.72-.18-1.56-.62C65,161.64,65.76,161.66,65.72,162.25ZM20,135.07c-.52.25-.92-.52-.72-.7C19.74,134.12,20.13,134.88,20,135.07ZM8.86,121.89c-.4-.65-.76-1.38-1.14-2.08l.83-.43c.37.68.73,1.39,1.13,2ZM4.45,110.53c-.29,0-.58-.48-.84-1.11A13,13,0,0,1,3,107,13.68,13.68,0,0,1,2.92,103c1-.51,1,3.63,2,3.56a1.75,1.75,0,0,1-.4,1.82C4.22,108.71,4,109.15,4.45,110.53ZM2.65,97.74c-.25.68-.59-1-.44-1.32C2.47,95.75,2.79,97.38,2.65,97.74Zm1.87-14c.49-2.1,1.15-2.06,1.71-2-.46.91-.23,1.11,0,1.27C5.72,84.34,5.11,83.72,4.52,83.73ZM291.65,187.31c0,.46-.94.43-1.55.57C290.09,187.42,291,187.46,291.65,187.31Zm-10.25,1.05c-1.58.24-2.49,0-2.42-.82l2.37-.12Zm-60.2.62c-1.28.09-1.35-.49-2.36-.55C218.56,187.51,222.46,187.86,221.2,189Zm-24.54-1.65c.2.84-4.5.54-3.14-.69C195.19,186.55,195.6,187.1,196.66,187.33Zm-184.3-61c-1.42-1.73-1.9-2.94-1.1-3.29.6,1,1.24,1.83,1.87,2.73Zm-4.35-8c-.59,0-.75-1-.51-1.07C8.08,117.25,8.24,118.25,8,118.34Zm-1-2.17c0,.68-.91-.54-.92-.92C6.07,114.58,7,115.83,7,116.17ZM3.64,91.33c-.45-3.12.59-5.25,1-5.52.24-.14.37.17.23,1A42.49,42.49,0,0,1,3.64,91.33Zm14.69-29c.89.42,0,1.47-1.15,2.81a25.31,25.31,0,0,0-3.42,4.1C13.68,66.73,15.77,65.86,18.33,62.29Zm5.23-4.46c.11.33-.27.8-.8,1.32s-1.19,1.13-1.68,1.67C20.5,59.86,22.2,58.19,23.56,57.83ZM29.31,53c-.19-.53.58-.78.73-.57C30.22,53,29.47,53.22,29.31,53ZM298,186.87c-2-.53-3.18-.92-5.56-.09-.16-.84.9-1.05.67-1.93a6.84,6.84,0,0,0,3.18.26C293.8,186.77,298.62,185.12,298,186.87Zm-54.58,2c.11-1.36,3.3-.86,5.54-1C249.57,189.68,245.19,188.51,243.39,188.85Zm-.79-.48c.41.25-.57.61-.79.48C241.4,188.6,242.38,188.25,242.6,188.37Zm-13.45-.6c2.35.69,4.84.63,5.55-.86,1.41.36.11.86,0,1.41,1.4-.25,4.65.61,4.76-.43,2.14,1-2.16.91-4.76.91C232.53,188.78,228.3,189.17,229.15,187.77Zm-2.38.41c-2.44,1.69-2.63-1.49,0,0Zm-8.71-.25c0,.46-1,.34-1.6.42C216.5,187.89,217.44,188,218.06,187.93Zm-7.93.15-1.59-.07a1.77,1.77,0,0,0,.86-1.38C211,187,211,187.45,210.13,188.08Zm-27.69-2.32c.4.28-.62.56-.83.4C181.22,185.89,182.24,185.62,182.44,185.76ZM8.57,77.63c-.2-.11-.13-.48,0-.92s.44-.91.61-1.32C9.61,75.65,8.85,76.75,8.57,77.63Zm2.18-3.95c-.51.36-.09-1,.18-1.18C11.44,72.16,11,73.5,10.75,73.68Zm1.17-1.85c-.51.34-.07-1,.22-1.16C12.66,70.36,12.19,71.63,11.92,71.83ZM40.38,45.36c1.46-1.13,2.14-.94,3.23-1.39C44.26,44.51,39.89,47.2,40.38,45.36ZM306.62,185.71c-1.85.9-2.09-.7-2.44-.74a34.17,34.17,0,0,1-6.31.49c3-2.64,7.95-.6,10.88-2.77,1,.07,1.3.71,2.44.72,2.73-1.63,7.6-1.55,10.18-1.49,2.4-.32,6.59-3,7.12-.34-2.6,1.14-7.21,0-9.34,2-3.1-1.58-8.87,1.48-12.65.73Zm-43.46,2.41c2.3-2.25,10-1.11,13.38-1.88,3,.67-1.67.84-1.52,1.47A95.76,95.76,0,0,0,263.16,188.12Zm-3.17-.39c-.07,1-3.35.26-4.73.55C255.92,187.37,258.7,187,260,187.73Zm-5.53.09c-.19.61-1.57.5-1.58,0C253.22,187.16,253.57,187.89,254.46,187.82Zm-79.88-3.28a.41.41,0,0,1-.79-.08C174,184,174.61,184.29,174.58,184.54ZM136.93,12c-.5-.83,3.43-1.41,2.44,0l-1.56.32C137.87,11.85,137.42,11.9,136.93,12Zm19.59-3.68c-.45-.17.46-.69.7-.59C157.67,7.87,156.75,8.38,156.52,8.29ZM289.19,186s0,.45,0,.47c-2.87-.06,1.27-1.61,2.31-1.08C292.12,185.73,289.57,186,289.19,186Zm-1.57.1c-.17.6-1.55.56-1.59.09C286.34,185.53,286.73,186.24,287.62,186.14Zm-3.95.22c.41.22-.54.63-.77.51C282.48,186.65,283.44,186.24,283.67,186.36Zm-71.11.42c.4.26-.6.57-.81.43C211.35,187,212.35,186.64,212.56,186.78ZM13.89,125.27c-1-.23-.91-.56-.4-.48a3.14,3.14,0,0,1,2,1.87C16.42,128.37,14.74,126.5,13.89,125.27ZM91.19,24.4c-.11-.44.84-.67,1.41-.95C92.72,23.89,91.76,24.1,91.19,24.4ZM165.94,6.77c.08,2.1-4.19.4-4.57,1.67C158.27,7.74,164.2,7,165.94,6.77Zm2.35-.35c2.19.1-.35,2.16-1.43,1.16C167,7,168.38,7,168.29,6.42Zm8,177.35c.39.29-.62.54-.83.39C175,183.87,176.05,183.62,176.25,183.77Zm-33.89-4.32c.37.31-.67.51-.86.34C141.13,179.48,142.16,179.29,142.36,179.45ZM13,123.24c-.4.24-1-.91-1.57-1.6C11.88,121.42,12.47,122.63,13,123.24Zm-2.29-3.75c.07.64-.91-.43-.95-.77C9.75,118.09,10.72,119.16,10.75,119.49Zm-1.55-3c-.58,0-.71-1-.47-1C9.31,115.41,9.44,116.36,9.2,116.47ZM4.62,95.25c.21-1.45,1-1,1.52-1.1-.06,1.94-.6,2-.66,3.62C5,97.45,5.21,95.31,4.62,95.25Zm7.51-22c.85-.75,1.49-.37,2.55-2.1a3.41,3.41,0,0,1-.36,1.69,16,16,0,0,1-1.16,2.3C12.37,74.83,13,73.54,12.13,73.26ZM9.78,79.47c-.75.1-.12-1.09.56-2.21s1.4-2.17.66-2.15c.62-.57,1-.63,1.1-.47s.05.6-.14,1.18A11.3,11.3,0,0,1,11,77.71,9.57,9.57,0,0,1,9.78,79.47ZM156.67,9.22c-.45-.18.47-.69.71-.6C157.82,8.8,156.91,9.31,156.67,9.22ZM170,7.12c-.28-1,2.75-.63,3.86-1C174.55,7.93,170.7,8.14,170,7.12ZM174.65,6c1.43.25,4.22-.59,4.11.87C177.42,6.23,175.25,8,174.65,6Zm30.73-3.05c.63,2.28-5.1,1.78-6.25,1.08-2.45-.1-1.37,1.44-3.83,1.34-3.21-1-6.86.59-9.53.14C191,3.27,199.14,4.08,205.38,2.93ZM166.05,182.21c.38.28-.64.53-.84.38C164.83,182.29,165.85,182.05,166.05,182.21Zm-7.88-1c-.27.56-1.63.27-1.57-.2C157,180.4,157.28,181.18,158.17,181.24Zm-14.17-2c-.22.51-.82.13-.78-.13A.41.41,0,0,1,144,179.24ZM7.66,84.77c-.29-2,.47-2.74.84-2.65.19,0,.31.32.21.76A5.78,5.78,0,0,1,7.66,84.77Zm7.62-14.45c-.28-.79.58-.69,1.24-1.61C16.82,69.28,15.66,70.57,15.28,70.32Zm12-12.58c-.28-.37.62-1,1.1-1.54C28.6,56.57,27.7,57.2,27.23,57.74Zm153-51.56c0-1,3.31-.64,4.65-1.07C184.47,6.86,183,5.41,180.27,6.18Zm40.19-3c.15-1,2.9-.64,3-1.62,3.06,1.25,7.49,1,11.06-.17,3.91.86,10.49.57,17.4.74,1.94-.11,1.35.54,0,.47-9.32,1.84-15.3-1.69-22.81,1C225.29,3.5,224.43,1.87,220.46,3.13ZM193.69,184.3c.39.26-.61.55-.82.4C192.48,184.43,193.49,184.15,193.69,184.3Zm-18.83-2.57a7.88,7.88,0,0,0,3.89.86C178.55,184,173.93,183.39,174.86,181.73Zm-50.4-6.4c.36.31-.69.48-.88.3C123.23,175.32,124.27,175.16,124.46,175.33ZM77.71,163.11c-2.76.41,2.57-.63,0,0ZM43.33,46.87c-.14-.55.61-.67.74-.44.67-.29.6-.57.49-.84C47.13,44.79,44.46,47.28,43.33,46.87ZM219.61,2.25c-.48.66-1.63,1-3.08,1.17C215.62,2.07,218.21,2.45,219.61,2.25Zm-38.5,180.56c-.05.45-1,.27-1.61.32C179.56,182.67,180.5,182.86,181.11,182.81Zm-7.87-.77c.39.29-.63.54-.83.39C172,182.15,173,181.89,173.24,182Zm-5.5-.59c-.27.57-1.63.29-1.58-.18C166.89,181.06,167.63,180.86,167.74,181.45Zm-10.23-1.24c1.34-.74,5.35.49,5.5.69C163.66,181.71,159.27,180.72,157.51,180.21Zm-31.4-5c.37.31-.68.47-.87.31C124.89,175.16,125.92,175,126.11,175.17Zm-7.82-1.58c.36.32-.69.46-.88.29C117.06,173.55,118.11,173.41,118.29,173.59Zm-2.34-.51c.35.32-.7.46-.88.29C114.71,173,115.76,172.9,116,173.08Zm-3.9-.87c.35.33-.71.46-.89.28C110.81,172.16,111.86,172,112.05,172.21Zm-20.38-4.73c2.09-.9,4.83,1.93,0,0Zm-2.19-1.13c-.29.49-1.54,0-2.47-.24C87.29,165.62,88.54,166.15,89.48,166.35Zm-5.43-1.66c-.29.49-1.53-.06-2.47-.29C81.88,163.91,83.12,164.49,84.05,164.69Zm-7.72-2.55c.31.36-.76.37-.93.18C75.08,162,76.16,161.94,76.33,162.14ZM65,157.38a6.09,6.09,0,0,1,2.47.49c0,1.14-1.71,0-2,.7-.31-.92-2.17-1.63-1.58-2.67C64.4,156.36,65,156.83,65,157.38ZM10.63,79.87c-.4-.41.24-1.1.47-1C11.49,79.32,10.86,80,10.63,79.87ZM51.69,42.71c-.66,1.44-3.56,2-3.7,2S50.62,42.45,51.69,42.71Zm3-1.54c0-.78.68-.29,1.49-.75C56.23,41.05,54.88,41.59,54.66,41.17Zm93.49,137.26c.37.31-.66.51-.86.35C146.93,178.48,148,178.27,148.15,178.43Zm-37.56-7c.35.33-.7.46-.89.29C109.35,171.34,110.4,171.22,110.59,171.39Zm-57-19c-3,.45-1.91-2.53,0,0Zm16.17,6.36c.3.38-.78.35-.94.15C68.49,158.51,69.57,158.54,69.74,158.74ZM21.55,130.68l-1.32-1.4.69-.64L22.23,130ZM186,7.36c-.43-.19.5-.67.74-.56C187.16,7,186.23,7.46,186,7.36ZM189.13,7c.08-.54.76-.35.79-.09A.41.41,0,0,1,189.13,7Zm23.54-2.31c-.43-.21.52-.66.75-.54C213.84,4.34,212.9,4.78,212.67,4.67Zm42.45-2.2c4.19-1.18,11.8-.38,17.32-.66-.93,1.06-4.65.91-7.08,1C261.89,2.84,258,2.51,255.12,2.47Zm54.28,1.7c.9,1.42-1.71.28-3.17.31-2.59.07-7.26.74-9.42-.85-1.94-.13-3.81-.21-3.95.82-5.54-1.73-13.71-1-17.27-1.7-1.56-.44-1.56-1.59,0-.47C287.33,2.38,298.17,3.26,309.4,4.17ZM258.34,184.46c-1.27.16-1.36-.42-2.36-.43C255.65,183.12,259.54,183.28,258.34,184.46Zm-11-.33c-1.48,1.19-2.75-.43-4.71.48C241.88,182.87,246.75,183.74,247.32,184.13Zm-24.39-.28c0,.45-1,.33-1.59.42C221.38,183.81,222.32,183.93,222.93,183.85Zm-4.7-.63c-2-.78-8.24,2.34-9.42-.86,3.4,1.44,4.26-.73,7.08.3-.5-.49-1.79-.56-1.52-1.47-2-.46-6.8.61-6.22-1.23,4.88,1.16,13.39-1.53,15.62,2,1.07-.12.68-1.16.84-1.86a6.62,6.62,0,0,0,3.12.54c0,.46-1,.35-1.58.44,0,1.67,2.61-.94,2.34.52,1.09-.45-.32-.77,1.59-1.38,3.36,0,5.95-1,7.83.57-.11,1-3.33.18-4.71.42,3.3,1.76,7.17-1.27,10.19.07,1.52,0-1.64-2,2.35-1.41.87.58.68,1-.78.94,1.57.38,5.42.83,6.25-1,1.4.33.12.86,0,1.41a20.78,20.78,0,0,0,4.68-1.47c3.68-.74,7.46,1.4,8.58-.66,1.42.44,4.86,1.64,5.47-.18,3.2,1.17,8.74-.33,13.3-.12,3.36.14,6.15-.7,9.34-1,1.81-.19,3.3,0,5.46-.38,2.48-.41,4.82.83,5.38-1.37.05,2.27,9.35-.3,13.28-.75,6.65-.7,12.52-.33,18-1.13,3.07-.73-.24-2.2,1.18-3,5.7-2.58,12.78-1.11,17.54-4,.95,1.52,3.73,0,7-.71,2.79-.6,5.89-.51,7.76-.93,1.61-.37,1.37-1.1,2.12-1.37,0,0,3-.57,3.83-.76,1.91-.45,4.1-.33,6.2-.81,3.47-.77,6.92-2.19,10.56-2.88,1.15-.21,1.48.14,2.38-.09,1.19-.3,1.24-.83,2.16-1,.62-.13.91.34,1.63.08,1.67-.6,2.66-1.63,4.3-2.09,2.93-.86,6-1,9.16-2.06,4-1.33,8.45-2.62,13.45-4.21,1.87-.6,4.68-2.05,5.77-2.5.57-.23.9.21,1.63-.09,9.41-3.9,17.36-7.45,25.34-10.83.14.69-2,1.21-1.71,1.91-7.19,2.53-12.6,7.1-20.6,10.32-1.18.47-1.48,0-2.39.37-3.25,1.35-6.38,3.19-9.39,4.25a7.33,7.33,0,0,1-2.41.28c-2.3.93-5.79,4-8,3.45-1.6-.4-.95.47-2.9,1.32-1.59.7-2.09.09-3.17.4-5.45,1.57-13.69,4.82-18.76,6.17-4,1.09-8.46,1.65-12.31,2.65-2.09.55-4.08,1.7-6,2.14s-4.58.63-7,1.27c-3.44,1-7.36,1.4-10.79,2.28-1.26.32-1.4-.28-2.4-.1-3.57.63-6.72,2.18-10,1.92-1.59.93,1,1.2-1.3,2.09-2.39,0,.61-1.1-.25-1.87-4.56,1-9.42,1.57-13.22,2.09-1.71.24-3.87,0-5.51.13-1.28.14-1.28.55-2.3.71-1.26.19-1.41-.39-2.39-.24a4.64,4.64,0,0,1-1.52.62l-11.74,1c-1.67.13-3.27-.23-4.73-.12-6.47.51-13,1.75-19.54,2.07-4.86.23-9.31-.28-14.13,0-3.44.23-5.69.82-9.41.65s-6.3.76-10.2.06a18.82,18.82,0,0,0-5.51,1.38c-3.93-3-9-.35-16.5-1.27a3.63,3.63,0,0,0-2.41,1.34C214.92,184,218,183.85,218.23,183.22Zm31.43-2.41h-1.57v-.94h1.56ZM60,154.29c-1.29-.19-.44-.52.19-.43,1.14.15,1.57,1,.57.75C60.55,154.56,60.23,154.32,60,154.29ZM46.5,147.71c.27.43-.83.24-1,0C45.26,147.29,46.36,147.49,46.5,147.71Zm-8.36-4.38c-1.47-1-2.92-1.9-4.37-2.94.3-1.85,3.21,1.45,4.88,2.15Zm-6.24-4.88c.22.47-.88.09-1-.17C30.68,137.8,31.78,138.19,31.9,138.45ZM20.27,127.93c-.51.24-1.47-1.08-2.26-1.93C18.53,125.8,19.47,127.1,20.27,127.93ZM16,122.5c.11.57-.92-.27-1-.58C14.91,121.36,15.92,122.2,16,122.5ZM8.39,107a6.55,6.55,0,0,1,1.28,1.88c.2.42.4.91.6,1.45s.44,1.11.66,1.75c-.54.82-1,.08-1.47-1.13S8.7,108.05,8.39,107Zm-1-9.22c0-.78,0-1.56.07-2.34l1,.06c-.07.77-.06,1.53-.08,2.29ZM8,94.33c-.3.57-.53-.9-.36-1.21C8,92.56,8.18,94,8,94.33Zm1.08-7.9c.71.49.47,2.11-.14,4.59-.8.44-.91-.23-.75-1.26S8.84,87.38,9.1,86.43ZM16,73.34c-.34-.46.36-1,.57-.81C16.93,73,16.24,73.49,16,73.34Zm8.36-10.49c.18.46-.39,1.14-.8,1.79s-.64,1.27.18,1.5c-1.11,1.19-3.25,2.39-4.43,3.56a8.89,8.89,0,0,0-1.17,1.93c-.3.54-.57.8-1,.09C19,67.63,22.17,65.78,24.39,62.85Zm4.06-3.68c1.44-.76.65.58.92,1.08s1.12-.2,1.95-1a17.27,17.27,0,0,1,2.44-2c0,1.5-1.32,2.44-2.77,3.15A16.54,16.54,0,0,1,27,61.67C26.13,60.26,28.89,60.06,28.45,59.17Zm2.37-1.35c-.21-.52.53-.75.69-.54C31.71,57.8,31,58,30.82,57.82Zm1.79-2c1.72-1.71,2-.3,3.38-1.32C36.69,54.74,32.64,57.2,32.61,55.81ZM39,51.28c1.57-.3.81.54,0,1S37.48,53,39,51.28Zm66.24-27.7c-1.43,2-4-.21,0,0Zm20.05-5.19c-.45-.14.43-.73.67-.64C126.41,17.89,125.54,18.46,125.29,18.39Zm3.1-.71c-.46-.14.43-.72.67-.64C129.51,17.19,128.63,17.76,128.39,17.68ZM270.11,183.19c0,.46-.94.4-1.55.52C268.56,183.26,269.51,183.31,270.11,183.19Zm-2.36.08c-.27,1.63-4.33-.58-3.91.59C260.73,182.85,267.32,182.46,267.75,183.27Zm-7.84.69c.33-.59,1-1,2.33-1C262.64,184,261.14,183.88,259.91,184Zm-9.44-.33c.4.24-.57.61-.78.48C249.27,183.87,250.25,183.5,250.47,183.63Zm-21.24-.1c0,.46-1,.34-1.58.43C227.69,183.5,228.63,183.62,229.23,183.53Zm-45.5-3.33c-.72,1.88-1.39,1.17,0,0Zm-1.7,1.27a21.41,21.41,0,0,1-4.58-1.85c.2-1.19,2.72-.69,4.79-.5.22.83-.69.83-1.65.8C181.05,180.44,182.35,180.57,182,181.47Zm-7-1.14c-.24.56-1.6.31-1.57-.16C174.17,180,174.9,179.74,175,180.33Zm-3.92-.41c.38.29-.63.54-.83.38C169.87,180,170.88,179.77,171.08,179.92Zm-7.9-.43c-.08-1.26,3.08,0,2.57-1.58,1.91-.08,5.62,1.22,6.32.22,2.51,1.7-3.29,1.41-4.8.42C165.24,178.36,166.21,180.47,163.18,179.49Zm-8.43-2.5a2.05,2.05,0,0,0,1.43,1.14c-1.64,1.51-2.05-1.11-3.85-1,.47-1.59,2.11.33,2.48-.61C155.68,176.73,155.18,177.06,154.75,177Zm-29.06-3.83c3.21-1,3.72,2,0,0Zm-6.33-.79c-2.08-.3-1.79-1.4-1.93-2.35-2.75-.63-6.32-1.07-5.89-2.76,1.83,1.41,7.08,1.66,9.08,3C118.08,170.82,118.31,170.53,119.36,172.37Zm-10-2.72c-.5.59-.67-.2-1.55-.37C108.13,168.75,109.45,169.19,109.35,169.65Zm-11.74-2.48-1.55-.41c-.09-1.07,1.34-.57,2.57-.29C98.38,166.8,97.72,166.72,97.61,167.17ZM11.47,82.62c-.42-.21.16-1.37.44-2.14C12.31,80.7,11.67,81.79,11.47,82.62Zm3.31-6.49c-.49.32-.13-.94.14-1.1C15.4,74.72,15,76,14.78,76.13ZM41,51.13c-.5,0,.2-.84.47-.86C41.92,50.23,41.22,51.11,41,51.13ZM56,42.06l1.48-.73c.78.72-.66,1.33-1.8,2C55.69,42.86,56.25,42.48,56,42.06Zm3-1.45,1.48-.71.4.86-1.48.7Zm5.21-2.42c2.81-1.74,2.82.3,5.62-1.4.15,2-3.88,2-5.23,2.26-.61.14-1.43,1.64-1.68.25C63.82,39,64.21,38.6,64.22,38.19Zm24.33-8.95c-.47-.09.36-.76.61-.7C89.64,28.64,88.81,29.29,88.55,29.24ZM109.21,23c-.46-.13.4-.74.65-.67C110.32,22.42,109.46,23,109.21,23Zm31.68-7.47a.41.41,0,0,1,.78-.16A.41.41,0,0,1,140.89,15.49ZM252,3.49a.4.4,0,0,1,.78,0A.4.4,0,0,1,252,3.49Zm44.8,178.27-1.57.11-.07-.94,1.57-.11Zm-4.74-.15c.42.22-.53.64-.75.52C290.9,181.92,291.85,181.49,292.07,181.61Zm-18.05,1c0,.46-.95.4-1.55.54C272.47,182.65,273.42,182.7,274,182.57Zm-81.73-.74-3.94-.3c-.67-1.64,2.51-.55,4-.64Zm-7.86-.63c.26-.81,1.44-1,3.21-.67C188.32,182,185.83,181.21,184.43,181.2Zm-22-2.27a42,42,0,0,1-5.36-1.63C158.15,176.46,162.85,177.69,162.45,178.93ZM143,175.26c2.38.29-2.76,1.39-4.05.3C138.2,174.93,142.72,175.76,143,175.26Zm-5.54-.43c.16.95-3.67.07-2.26-.86l1.56.26C136.57,174.61,137,174.72,137.48,174.83Zm-14.81-2.75c.13,1-3.69-.05-2.24-.94l1.56.32C121.76,171.83,122.21,172,122.67,172.08Zm-6.22-1.3c-.26.49-.83.08-.78-.17A.41.41,0,0,1,116.45,170.78Zm-3.88-.87c.35.33-.7.46-.88.28C111.34,169.86,112.38,169.74,112.57,169.91ZM20.45,125.25c2.29.85,4.72,4,7.05,5.92l4.33,3.56,2.3,1.82c.86.63,1.81,1.35,3,2.13,2.71,1.85,4.8,2.92,7.86,4.93,4.26,2.75,8.46,3.95,11.19,5.29a115.35,115.35,0,0,0,11.17,4.85c4.55,1.66,9,4,13.45,5.42,4.72,1.54,8.21,2.09,13,4,.27.1,2.18-.34,1.4.88.87.13.78-.75,1.79-.47,4,2.29,9.37,2.14,11.42,3.41-1.8,2.32-6.78-.76-10.25-1.64-2.9-.69-7.79-1.2-10.27-1.95-.58-.18-2.23-.72-3.07-1-.63-.17-.6-.74-1.39-.93s-.82.76-1.82.4c0-1.12-5.41-2.28-9.8-3.91-1.63-.63-3.61-1.29-5.31-2.06-4.08-1.78-12.35-4.85-20.23-9.46-3.43-2-6.56-4.85-9.66-7a19.47,19.47,0,0,0-3.16-1.7,18,18,0,0,1-3-1.68A30.8,30.8,0,0,1,28,134c-.88-.94-1.88-1.94-2.81-3.06C23.29,128.74,21.55,126.36,20.45,125.25ZM46.24,48.44c-.22-.41.7-.83,1.21-1.26C47.66,47.59,46.75,48,46.24,48.44ZM78.86,33.21c-2.22,2.59-4.29.25,0,0ZM107,24c-.46-.13.4-.73.65-.66C108.14,23.5,107.28,24.11,107,24ZM118.57,21c-.46-.14.41-.72.65-.65C119.68,20.48,118.81,21.07,118.57,21Zm3.74-1.4c4.62-.6-.66,3.38-2.75,2.12C119,20.55,124,21.08,122.31,19.59Zm9.28-2.15c.08.46-.87.57-1.44.81-.06.42.39.36.87.28.23.36-.21.51-.67.64-1.28.47-1.54,0-1.75-.57C130,18.35,130.1,17.66,131.59,17.44ZM317.1,179c.43.2-.5.66-.74.55C315.93,179.39,316.87,178.93,317.1,179Zm-166.26-2.6c.37.3-.66.52-.86.36C149.62,176.5,150.64,176.28,150.84,176.44Zm-3.91-.58s-.07.45-.07.47c-2.8-.66,1.58-1.32,2.48-.58C149.85,176.17,147.31,175.91,146.93,175.86Zm-1.57-.23c-.22.51-.82.14-.78-.12A.41.41,0,0,1,145.36,175.63ZM79.78,33.37c-.07-.56,1.23-.9,2.1-1.28C82,32.65,80.64,33,79.78,33.37Zm5.44-1.48c-2.61.37.28-1.54,2-1.68,3.31-1.14.39.73-1.37,1C85.15,31.32,85.17,31.6,85.22,31.89Zm14.29-5.16c-1,.18-5.35,1.31-1.66,0C100,26,102.2,26.17,99.51,26.73Zm2.93-1.37c1.8-.52,2.48.13,4.72-.86C106.77,25.76,103.09,26.8,102.44,25.36ZM127.05,19c-.2.64-.77,1.16-2.1,1.46C125.15,19.77,125.71,19.22,127.05,19Zm7.74-1.71c.07.45-.87.56-1.45.79-.06.42.39.37.87.29.08.46-.87.57-1.44.8,0-.42-.4-.37-.87-.3C132.27,18.1,133.36,17.61,134.79,17.24Zm2.32-.49,1.55-.32.19.92-1.55.32ZM171.4,11.2c-2.67,1.48-3.67,1-6.87,2C165.08,11.35,168.34,11.56,171.4,11.2Zm71.21-6.45c0-.46.95-.41,1.55-.53C244.16,4.67,243.22,4.62,242.61,4.75Zm19.62-.53a.41.41,0,0,1,.79,0A.41.41,0,0,1,262.23,4.22Zm47.9.93c.16-.55,1.45-.32,2.38-.34C312.35,5.35,311.06,5.12,310.13,5.15Zm3.93.22c-.39-.26.6-.56.81-.42C315.26,5.22,314.27,5.52,314.06,5.37Zm1.57.09A292.26,292.26,0,0,1,358.68,10c2.12.37,4,1.41,6.11,1.8,1.19.21,2.59-.09,4,.1,3.42.48,7.28,1.94,10.75,2.69,8.36,1.83,16.3,3.57,24.56,5.9,4.81,1.37,9.8,2.59,14.46,4.13a16.86,16.86,0,0,1,2.28.64c.16.1.43,1.1.51,1.13,1.06.4,2.79.21,3.93.65,2.65,1,5.34,2.37,8,3.51,6.06,2.55,12,5.28,18.06,8.28-1.23,1.11-3.25-1-5.31-1.67a21.92,21.92,0,0,0-5.49-1.09c-3.47-2.5-8.45-4.58-13.56-6.29s-10.35-3-14.4-4.3c-3.2-1-8.13-2.82-12.76-4-.62-.16-.89.36-1.64.13-1.23-.38-3.06-1.57-4.42-1.9-1.68-.42-3.77-.33-5.48-.61a98.28,98.28,0,0,1-13-3.29c-1.11-.34-2.37-.71-3.81-1.08a4.29,4.29,0,0,1-2.39.1c-.2-.08-.53-1-.64-1-.48-.14-1.4.36-2.4.11C351.42,10.25,331.5,7.55,315.63,5.46ZM446.38,148.92c.06.55-.65.55-.75.31C445.57,148.68,446.28,148.68,446.38,148.92Zm-12.59,5.44c-1.24-1.06,1.39-1.39,2.68-2C436.59,153.19,435.56,153.86,433.79,154.36ZM173.53,179.23c.4-.54,1.1-.86,2.45-.7C176.24,179.57,174.77,179.31,173.53,179.23Zm-62.3-10.59c.34.33-.7.46-.88.28C110,168.59,111,168.46,111.23,168.64ZM38.64,53.8c1.31-1.12,2.26-1.38,2.63-.63-.7.46-1.41.92-2.1,1.41Zm75.55-30.72c-.1-.44.84-.59,1.41-.85C115.69,22.68,114.75,22.83,114.19,23.08Zm3.07-.79c-.46-.14.4-.72.65-.65C118.37,21.78,117.5,22.36,117.26,22.29ZM140.4,17c.07-.62,1.44-.78,1.54-.31C141.74,17.46,141.26,16.8,140.4,17Zm3.09-.61c-.44-.16.45-.7.69-.62C144.62,16,143.74,16.5,143.49,16.42Zm1.55-.31c-.44-.16.45-.69.69-.61C146.17,15.66,145.28,16.2,145,16.11Zm3.88-.73a.41.41,0,0,1,.78-.14A.41.41,0,0,1,148.92,15.38Zm6.21-1.11c0-.46.89-.53,1.47-.74C156.66,14,155.71,14.06,155.13,14.27Zm3.11-.53c1.1-1.73,3.24-.13.85.33C158.67,14.16,158,14.08,158.24,13.74Zm3.11-.52c0-.45.89-.52,1.47-.71C162.88,13,161.93,13,161.35,13.22Zm36-3.81c-1.39.2-1.7-.41-3.17-.14C194.08,7.92,197.38,8,197.31,9.41ZM198,7.92c1.38-.28,1.65.28.83.39-.13,1.27,4.33-.89,3.26,1.09a7.75,7.75,0,0,0-3.95-.07Zm243,142.7c.48.07-.32.77-.58.73C439.92,151.28,440.71,150.58,441,150.62Zm-10.52,3.93c.13.45-.8.67-1.35,1C429,155.08,429.9,154.86,430.45,154.55Zm-228.62,26c.39.26-.61.56-.82.42C200.62,180.72,201.62,180.42,201.83,180.57Zm-11-.27c1.5-1.48,4.62.39,8.66.13C200.91,181.45,193.16,180.31,190.82,180.3Zm-1.53-.59c-.24.58-1.6.35-1.57-.12C188.44,179.36,189.16,179.13,189.29,179.71ZM161.9,177c-2.76.82,2.08-1.34,0,0Zm-32-4.9c-.31,1-1.84-1-3.89-.75C127.55,170.31,128.64,171.1,129.94,172.06Zm-114.57-54c.66-.72,1.45.37,2.35,1.83.46.7.94,1.53,1.42,2.25a11.34,11.34,0,0,0,1.44,1.76c-.54.81-1.48-.12-2.47-1.52-.48-.72-1-1.54-1.44-2.31A15.7,15.7,0,0,0,15.37,118.08Zm-.56-2c-.57.09-.71-.78-.47-.89C14.91,115.12,15,116,14.81,116.08ZM9.8,95.6c.06-.72.13-1.45.2-2.18l.94.12c-.07.71-.14,1.42-.2,2.12ZM36.39,56.53c-.5.07.15-.85.42-.89C37.3,55.59,36.66,56.5,36.39,56.53Zm14.88-9.32c-.49,0,.24-.82.5-.82C52.26,46.4,51.53,47.21,51.27,47.21Zm3.63-1.93c-.49,0,.25-.81.51-.8C55.9,44.51,55.16,45.28,54.9,45.28Zm3.65-1.84c-.48,0,.27-.81.53-.78C59.57,42.7,58.81,43.45,58.55,43.44Zm13.33-6c-.49-.07.31-.78.56-.75C72.92,36.8,72.13,37.51,71.88,37.48Zm2.23-.92c-.48-.07.32-.77.58-.73C75.16,35.91,74.37,36.6,74.11,36.56Zm111.44-26.3c.17-.66,1.91-.62,3.07-.84C188.53,10.53,186.66,10.75,185.55,10.26ZM191,9.61c0-.45.91-.46,1.51-.64C192.55,9.43,191.61,9.44,191,9.61Zm92.4-4.42c0-.46,1-.35,1.57-.45C285,5.2,284,5.09,283.42,5.19Zm-79.21,175c.39.27-.61.57-.82.43C203,180.39,204,180.09,204.21,180.23Zm-32.88-2.65c-1.54.82-7.46-.12-6.08-2.11C167.72,176.87,168.77,176.89,171.33,177.58Zm-14.84-1.79c-3.28.68-9.63-1.16-14.1-1.58C148.12,173.69,152.06,175,156.49,175.79Zm-16.36-2.43c-.3.66-6.59,0-5.36-1.38C136.48,172.72,137.27,172.44,140.13,173.36Zm-9.41-1.16c2-1.11,4.88,1.44,0,0Zm-7.68-2c-.3.54-1.63.15-1.55-.31C122.25,169.78,123,169.64,123,170.23Zm-13.15-2.87c.35.34-.69.45-.88.27S109.71,167.18,109.89,167.36ZM13.5,112.21c0,.6-.83-.47-.81-.8C12.73,110.82,13.52,111.9,13.5,112.21Zm172.73,66.31c3.14.77-2.51.13-2.38.27C183,177.83,186,178.45,186.23,178.52Zm-10.16-.93c-.07.46-1,.27-1.61.31C174.53,177.45,175.45,177.64,176.07,177.59ZM12.89,109.15c-.08.59-.79-.54-.75-.86C12.22,107.71,12.93,108.84,12.89,109.15ZM66.31,40.87c-.06-.62,1.28-1.07,1.47-.64C67.25,40.78,66.69,41.32,66.31,40.87Zm19.38-7.65c0-.63,1.35-1,1.51-.52C86.62,33.21,86.05,33.7,85.69,33.22ZM88,32.44c-.07-.77.86-.32.91.19C88.93,33.39,88,33,88,32.44ZM37.22,57.68c-.25-.39.62-.92,1.1-1.37C38.56,56.69,37.68,57.2,37.22,57.68ZM74.07,38.61c0-.09-.25-1.34.39-1.17S73.52,40.28,74.07,38.61Zm178-31.82c-1.81,1.57-3.22-1.57,0,0ZM43,54.3c-.49,0,.18-.83.44-.85C43.93,53.42,43.26,54.28,43,54.3Zm84-32c-.09-.45.85-.57,1.43-.81C128.54,22,127.6,22.1,127,22.34Zm31.67-5.81a.41.41,0,0,1,.78-.13A.41.41,0,0,1,158.7,16.53Zm8.52-1.37c0-.57,1.35-.61,2.26-.82C169.43,14.91,168.12,14.94,167.22,15.16Zm4.65-.69c-.44-.19.48-.68.71-.58C173,14.07,172.11,14.57,171.87,14.47Zm1.55-.23c-.44-.18.48-.68.71-.57C174.57,13.85,173.65,14.34,173.42,14.24Zm2.33-.32a.4.4,0,0,1,.77-.11A.4.4,0,0,1,175.75,13.92Zm-50,9.7a.4.4,0,0,1,.76-.18A.4.4,0,0,1,125.71,23.62Zm351,102.92c3.15-2.84,7.25-5.05,10.46-8.17a24.53,24.53,0,0,0,2.34-2.69c.71-1,1.4-1.93,2-2.78,1.27-1.7,2.37-2.94,3.65-2.54a37.88,37.88,0,0,0-5.36,6.12A44.12,44.12,0,0,1,485,122.3c-.93.9-1.38.15-2.88,1.84a12,12,0,0,1-2.5,2.2A2.68,2.68,0,0,1,476.67,126.54Zm.17,1.64c.49-.05-.14.84-.41.86C475.94,129.08,476.58,128.21,476.84,128.18Zm-37.09,19.37c.47.08-.31.77-.57.73C438.71,148.21,439.5,147.51,439.75,147.55ZM222.32,178.17c-.38.67-.7-.07-1.57,0C221,177.53,222.32,177.69,222.32,178.17Zm-2.36.4c-1-.24-1.59-.66-1.52-1.47C219.4,177.34,220,177.75,220,178.57Zm-3.89-.61c.4.25-.59.58-.8.44C214.87,178.13,215.86,177.82,216.07,178Zm-7-1.26c1.59,1.6-2.92,1-5.51.66,0-.45,1-.31,1.59-.38.16-.39-.28-.46-.76-.52.14-.87,2.6-.18,2.41-1.28,1.59-.07-.23,1.35-.85,1.37C205.37,177.29,209.61,177.5,209.09,176.7ZM16.89,112.87c-.8-.1-.31-.78-.78-1.74C16.75,111.13,17.31,112.65,16.89,112.87Zm-1.45-3.53c-.58,0-.57-.83-.31-.91C15.68,108.45,15.68,109.25,15.44,109.34ZM29.89,66.08c-.49.12.05-.86.31-.92C30.69,65.05,30.15,66,29.89,66.08ZM191.34,12.42c-.28.61-.89,1.08-2.23,1.21C188.64,12.68,190.12,12.6,191.34,12.42ZM302.13,8.55c1.26-.08,1.32.5,2.32.56C304.71,10,300.86,9.66,302.13,8.55Zm-52.49,169.9c-.92-.07-.67-.85-.79-1.41,1.05-1,1.75.38,3.12.45.38,0,2.6-1.47,3.12-.05.52-.93,4.35,0,4.65-1,.93.52,2.77.46,4.68.35C262.59,179.14,252.73,176.88,249.64,178.45Zm-10.15,0c-.63-.1-.78-.48-1.56-.49.15-.38.79-.46.79-.93.63.09.77.47,1.55.48C240.13,177.91,239.49,178,239.49,178.47Zm-14-.69c1.87-1.47,3.11,1.73,0,0ZM190.36,176c.38.27-.61.56-.81.41C189.16,176.15,190.16,175.86,190.36,176Zm-3.89-.31s-.09.44,0,.47c-3.18-1.7,3.51-.47,1.55.13C187.85,176.34,186.83,175.74,186.47,175.7Zm-2.34-.2c.38.28-.62.55-.82.4C182.93,175.63,183.93,175.35,184.13,175.5Zm-21.77-2.28c.38.29-.63.53-.83.38C161.16,173.3,162.16,173.07,162.36,173.22ZM153.05,172c.37.3-.64.52-.84.36C151.84,172.05,152.85,171.83,153.05,172Zm-27-4.53c.35.32-.68.49-.87.32C124.8,167.46,125.82,167.3,126,167.46ZM18.58,115.14c-.41.2-.86-.83-1.29-1.42C17.71,113.54,18.15,114.56,18.58,115.14Zm-.73-32.88c.18,1.64-.47,2.16-.84,2S16.52,83.35,17.85,82.26ZM44,55.89c-.49,0,.17-.84.43-.85C44.94,55,44.28,55.87,44,55.89ZM82.17,37.5c-.47-.08.33-.77.58-.72C83.22,36.87,82.42,37.55,82.17,37.5Zm15.7-5.33c-.47-.11.36-.75.61-.69C98.94,31.59,98.11,32.23,97.87,32.17Zm76.52-16.64c-.43-.18.48-.67.71-.57C175.54,15.15,174.63,15.63,174.39,15.53Zm37.22-4.63,1.55-.13.08.94-1.55.14Zm283.74,97.44c.45-.26.16.87-.09,1C494.81,109.6,495.11,108.48,495.35,108.34ZM266.77,177.17c.42.23-.54.62-.76.5C265.6,177.44,266.56,177.05,266.77,177.17Zm-18.7.35c.4.25-.56.61-.78.48C246.89,177.76,247.86,177.4,248.07,177.52Zm-13.26,0c-.13.56-1.42.38-2.34.44C232.61,177.37,233.9,177.55,234.81,177.48Zm-3.9-.06c-.12.55-1.43.38-2.34.43C228.7,177.31,230,177.49,230.91,177.42ZM216.1,177c.4.27-.59.58-.79.44C214.91,177.19,215.89,176.87,216.1,177Zm-2.33-.09c-.15.54-1.44.34-2.37.37C211.56,176.75,212.84,177,213.77,176.92Zm-13.25-.68c.39.27-.6.57-.81.42C199.32,176.39,200.31,176.1,200.52,176.24Zm-23.39-1.38-1.56-.16.1-.94,1.55.16Zm-2.29-.71c.38.29-.62.54-.83.39C173.64,174.25,174.64,174,174.84,174.15ZM157,172.06c.37.29-.64.52-.84.36C155.79,172.13,156.8,171.9,157,172.06Zm-1.55-.21c-.27.56-1.6.26-1.55-.22C154.33,171,154.57,171.78,155.44,171.85Zm-134-94.78c-.35-.44.29-.87.5-.71C22.31,76.8,21.68,77.22,21.47,77.07ZM23,74.94c-.34-.53.7-1.66,1.08-1.36C23.83,74.37,23.57,75.14,23,74.94Zm2.41-3.64c.37-.44.77-.86,1.16-1.27l.69.64c-.39.41-.78.82-1.15,1.25ZM46.33,55c-.15-.53.56-.65.69-.42A.42.42,0,0,1,46.33,55ZM165.19,17.39c-.44-.19.46-.69.7-.59C166.33,17,165.42,17.48,165.19,17.39Zm69.06-7.06a.4.4,0,0,1,.78,0A.4.4,0,0,1,234.25,10.33Zm133.88,5.81c-.37-.31.65-.51.84-.35C369.34,16.09,368.32,16.3,368.13,16.14ZM392,20.34c-.35-.32.67-.48.86-.31C393.25,20.36,392.23,20.51,392,20.34ZM284.66,175.92c.42.22-.52.64-.75.52C283.5,176.21,284.45,175.81,284.66,175.92Zm-7.75.86c-.75-.47-2.88,0-2.4-1.31,1.66,1,2.5-.52,3.91.31C278.25,176.3,276.89,176.16,276.91,176.78ZM50.73,52.91c-.48,0,.21-.82.47-.81C51.68,52.1,51,52.9,50.73,52.91Zm7.76-4.17c-.48,0,.24-.79.5-.77C59.47,48,58.74,48.76,58.49,48.74Zm7-3.87c.32,1-1.4,1.75-3.2,2.54C60.85,46.34,64.18,45.66,65.47,44.87Zm5.09-2.24L72,42c.73.78-.69,1.25-1.82,1.79C70.19,43.4,70.75,43.06,70.56,42.63Zm5.13-2.13c1.75.15.92-.41,2.94-1.16C80.29,40.22,75.08,42.27,75.69,40.5Zm105.8-25c0-.46.9-.49,1.48-.67C183,15.32,182.07,15.34,181.49,15.53Zm27.13-2.95a.4.4,0,0,1,.77-.07A.4.4,0,0,1,208.62,12.58ZM376.55,18a.4.4,0,0,1,.77.13C377.09,18.59,376.51,18.21,376.55,18Zm-83.36,157c-.09.56-1.39.49-2.3.63C291,175,292.28,175.06,293.19,174.92ZM70.36,150.41c.29.37-.75.34-.91.14C69.16,150.17,70.2,150.2,70.36,150.41ZM67.84,44.32l1.45-.63c.74.78-.68,1.25-1.79,1.82C67.48,45.09,68,44.75,67.84,44.32Zm19.42-6.65c-.16.73-6.26,3.48-6.07,1.71C82.86,38.11,84.33,38,87.26,37.67ZM121.69,27c-.45-.14.4-.72.64-.64C122.78,26.5,121.93,27.09,121.69,27ZM142.19,22c1,0,1.69.28,1.81,1.08C143,23,142.31,22.76,142.19,22Zm242.75-2.05c2.65-1.27,2.33,1.9,0,0ZM304,173.63c0,.46-.92.44-1.52.6C302.5,173.77,303.44,173.78,304,173.63ZM15.42,99.7c-.24-1.51.42-1.62.45-2.78.46-.16.61.87.51,1.76S16,100.38,15.42,99.7ZM74,42.71a.41.41,0,0,1,.73-.3A.41.41,0,0,1,74,42.71Zm14-5.3a183.73,183.73,0,0,1,22.3-7c7.79-2,15.57-3.59,22.25-5-1.91,2.69-7.29,2.1-10.52,2.94C111.09,31.19,98.93,34.88,88,37.41ZM283.33,10.84c-.4-.24.58-.59.79-.46C284.52,10.64,283.55,11,283.33,10.84ZM395.59,22.51c-.35-.32.67-.47.86-.3C396.8,22.54,395.77,22.69,395.59,22.51Zm57.75,17.74c.42-.46,1.64.21,1.45.65C454,40.88,453.26,40.84,453.34,40.25ZM463,133.54c.12.61-1.15,1.18-1.39.77C461.6,133.53,462.25,134,463,133.54Zm-4.19,2.26c.19.41-.69.78-1.19,1.15C457.44,136.54,458.32,136.18,458.82,135.8Zm-111.42,28c7.78.11,17.89-4,25.8-5,1.28,1.47-3.47.89-4.38,1.82-1.41,1.44.76.31-.76.15-.76-.09-.62.6-.67.6a39,39,0,0,0-7.62,1.39c-1.76.52-2.83,1.29-4.42,1.71-4.19,1.14-10,1.35-12.07,3.31-6.5.21-14.6,2.48-20.65,4.07-4.64-.51-9.68.39-16.31,1.14a15.23,15.23,0,0,1-3.15-.2c-.62.08-1.35,1.06-1.47,1.06a101.18,101.18,0,0,1-10.93-.15c-1.17.38-1,.74-3,1.13.3-.06-.48-.71-.8-.43s-4.22,1-4.71-.68c1.56.79,2.44-1.37,6.17-.82,1.56-1,1,.15.78-.05a1.92,1.92,0,0,0,3-1.14c2.68.76,6.59.17,9.31-.21a3,3,0,0,1,1.59.34c.95-.13,1.78-.91,3-1.2a37.36,37.36,0,0,1,10-.94c.24-1.15,6.23-1,10.73-1.66,1.67-.23,3.19-.89,4.55-1,1.69-.17,6.37.58,7.75-.55.08-.07-.2-.92-.13-.93-.48.08,3.39,1.53,4.73.27.11-.1-.27-.88-.14-.93C345,164.43,349,165.56,347.4,163.81Zm-79.91,11.45c.4-1.36,3.59-2,3.89-.13A7.77,7.77,0,0,1,267.49,175.26Zm-41.21.18c-2.39,1.23,2.16-1.38,0,0Zm-93.68-9.13c-.3.55-1.62.19-1.54-.28C131.8,165.87,132.54,165.72,132.6,166.31ZM114.14,163l-1.53-.35.21-.92,1.53.35Zm-6-1.9c.34.34-.69.46-.87.28C107,161.07,108,161,108.15,161.12ZM89.28,156c-2.67.52,2.46-.73,0,0Zm-3.75-1.17a.41.41,0,0,1-.75-.25A.41.41,0,0,1,85.53,154.78Zm-6.11-1.55c-1.36-.4-1.38-1.08-2.82-1.49C76.65,150.89,81,152.41,79.42,153.23Zm-4.3-2c-.56.52-.63-.28-1.47-.55C74,150.17,75.28,150.75,75.12,151.2Zm-6.62-2.56c3.33-.43,3.25,2.69,0,0Zm-23-10.75c-1.27-.55-1.11-1.12-.89-1.65.54.44.74.25.93,0C46.26,136.81,45.63,137.35,45.46,137.89Zm-9.77-7.22c.68-.55,1.74,0,3.16,1.18-.34.57-1,.55-1.69.25A3.14,3.14,0,0,1,35.69,130.67Zm-9.64-9c-.35.28-1-.53-1.44-1C25,120.39,25.55,121.22,26.05,121.64ZM46,57.43c-.54-.59,4-3.56,3.64-1.69A8.39,8.39,0,0,1,46,57.43ZM151.65,21.59c-.43-.17.45-.69.69-.61C152.78,21.15,151.89,21.68,151.65,21.59ZM311.31,12.3c2.46-1.61,2.54,1.58,0,0ZM404,24.38c2.93,1.18,6.34,2.23,9.65,3.36-.38,1.13-3.25.4-3-.78C408.28,26.39,403.3,26.78,404,24.38ZM393.81,158.5c-.18.75-.68.13-1.52.37C392.34,158.26,393.68,158,393.81,158.5Zm-53.54,10.16c.43.18-.47.67-.7.57C339.13,169.05,340,168.56,340.27,168.66Zm-59.59,5.58c-.2.65-1.92.5-3.08.63C277.81,174.22,279.52,174.38,280.68,174.24Zm-4.66.22c-.27,1.06-4.52.83-3.14-.81C274,173.85,274.87,174.27,276,174.46Zm-11.65.43c-.17.6-1.53.51-1.55,0C263.5,174.62,264.19,174.32,264.37,174.89Zm-13.2.25a.4.4,0,0,1-.78,0A.4.4,0,0,1,251.17,175.14Zm-125.38-10.6c.35.32-.67.47-.86.31C124.59,164.53,125.6,164.37,125.79,164.54ZM81.2,152.85c-.31.46-.82,0-.74-.25A.4.4,0,0,1,81.2,152.85ZM65,146.7c.29.38-.76.33-.91.12C63.86,146.45,64.9,146.49,65,146.7Zm-2.17-.94c-.2.41-1-.06-1.63-.22C61.45,145.13,62.27,145.61,62.87,145.76Zm-5-2.31c2.31,2.25-1.83-1.1-1.21-1.11C57.53,142.35,57.73,143.34,57.84,143.45Zm-6.58-2.81c-.47-.24-.94-.51-1.4-.77l.45-.82c.47.25.93.52,1.4.76ZM29.82,125c.14.47-.85,0-.92-.24C28.76,124.24,29.75,124.7,29.82,125Zm-5.52-6.21c.08.49-.86-.11-.88-.4C23.36,117.84,24.26,118.49,24.3,118.74Zm-4.07-5.51a4.32,4.32,0,0,1-.81-1.85.72.72,0,0,1,.53-.89c.35.78.7,1.56,1.11,2.3Zm-1.07-3.35c-.06.52-.78-.37-.74-.65C18.48,108.72,19.2,109.61,19.16,109.88Zm-1.59-3.17c-.17-.57-.34-1.14-.46-1.73.45-.32.74,0,.95.44a14.58,14.58,0,0,1,.66,1.85C18.31,107.24,18,106.57,17.57,106.71Zm115.85-81c6.77-2.72,12.7-2,21.47-3.76C146.82,24.89,141,24.91,133.42,25.73Zm83.11-11.91c0-.46.92-.44,1.52-.59C218.06,13.69,217.13,13.67,216.53,13.82Zm5.43-.4c0-.45.92-.43,1.52-.57C223.48,13.31,222.55,13.28,222,13.42ZM389.91,159c.45.14-.41.71-.65.64C388.81,159.45,389.67,158.88,389.91,159ZM361,165.38c-3.33-.52,2.66-.92,1.2-2.12,2.53.19,2.58-.37,5.35-1C367.19,165,362.06,163.25,361,165.38Zm-14.66,1.92c.44.18-.46.68-.7.58C345.23,167.7,346.13,167.2,346.36,167.3ZM35,128.92c-.46.32-.8-.32-.63-.51C34.84,128.09,35.17,128.72,35,128.92ZM17.4,95.23c-.28.43-.54-.69-.38-.93C17.3,93.88,17.55,95,17.4,95.23ZM258.46,12.3c.11-.55,1.41-.42,2.32-.51C260.66,12.34,259.37,12.22,258.46,12.3Zm4.66-.07c-.41-.24.56-.61.76-.48C264.29,12,263.33,12.35,263.12,12.23Zm3.11,0c-.41-.24.55-.61.77-.48C267.4,12,266.44,12.32,266.23,12.2ZM430.15,146.65c.46.09-.33.76-.57.71C429.11,147.27,429.9,146.6,430.15,146.65ZM377,161.83a5.57,5.57,0,0,0-2.38,0c-1.3-1.75,3-1.48,3.41-2.63,2.55,0-.45,1.48-2.08,1.4A1.77,1.77,0,0,1,377,161.83Zm-19.11,3.62c-1.35.37-.35-1.79,1.29-1.66C359.77,164.75,357.82,164.71,357.88,165.45Zm-6.22.55c.44.18-.45.68-.69.59C350.54,166.41,351.43,165.9,351.66,166Zm-71,7.3c-5.13,2-5.69-1,0,0Zm-60.53.55c.39.26-.58.59-.79.45C218.93,174,219.9,173.71,220.11,173.85ZM22.72,114.74c0,.51-.83-.2-.84-.46C21.87,113.79,22.71,114.48,22.72,114.74ZM156.5,22.16a.4.4,0,0,1,.77-.13A.4.4,0,0,1,156.5,22.16Zm6.06-1.49c3.56-.26-.17,2.91,0,0Zm75-7.21c-.41-.22.53-.63.75-.51C238.69,13.18,237.74,13.58,237.52,13.46Zm31-.81c0-.46.94-.37,1.55-.47C270.09,12.63,269.16,12.54,268.56,12.65Zm24.83.3c3.88-1.59,5.49,1.22,0,0ZM19,93.72c-.31.39-.49-.69-.32-.9C19,92.44,19.18,93.52,19,93.72Zm4.23-10.57c-.38-.24.15-1.06.4-1.63C24,81.76,23.45,82.55,23.24,83.15Zm135.8-60c-.44-.18.45-.69.68-.59C160.16,22.74,159.27,23.25,159,23.16Zm18.38-2.81c-.43-.19.47-.68.7-.57C178.55,20,177.65,20.45,177.42,20.35ZM31.79,72.76c-.46.11,0-.83.23-.89C32.48,71.76,32,72.69,31.79,72.76ZM214.43,16.82c-.42-.22.51-.65.74-.53C215.59,16.5,214.66,16.93,214.43,16.82ZM233,15.58c-.41-.22.53-.63.75-.51C234.14,15.29,233.19,15.7,233,15.58Zm105.31,150c0,.46-.89.49-1.47.68C336.77,165.82,337.7,165.79,338.28,165.6ZM204.45,18.17c-.42-.21.5-.65.73-.54C205.6,17.83,204.67,18.28,204.45,18.17ZM396.77,154.36c-2.88-.52,3.56-2.1,0,0Zm-18.28,3.31c-2,1.75,1.76-1.85,0,0Zm-2.27.47c.44.16-.43.7-.66.62C375.12,158.6,376,158.06,376.22,158.14ZM234.59,16.91c.31-.7.68,0,1.54-.08C236,17.44,234.62,17.39,234.59,16.91ZM387.42,155.19c.44.76-4,1.78-3.11.22C385.84,154.86,386.38,155.28,387.42,155.19Zm-5.26,1.2c.07.45-.84.55-1.41.79C380.67,156.72,381.6,156.62,382.16,156.39ZM237.7,17.23c-.41-.23.53-.63.75-.51C238.86,17,237.92,17.35,237.7,17.23ZM391.82,153.65c.44.14-.4.72-.64.64C390.73,154.14,391.58,153.58,391.82,153.65Zm-98.27,15.1c-1-.14-1.63-.49-1.64-1.3C294.55,166.85,294.6,168,293.55,168.75Zm3-1.15c-.15.61-1.5.58-1.54.11C295.32,167,295.7,167.72,296.56,167.6ZM256.24,17.53c-.4-.24.55-.61.76-.49C257.41,17.28,256.46,17.65,256.24,17.53Zm8.48-.13c2.33-1.77,2.61,1.4,0,0Zm41.06,149.45c-.9-1.34,1.64-1,3-1.21C308.32,166.32,307.21,166.68,305.78,166.85Zm-83.19,1.9c0,.45-1,.33-1.56.41C221.07,168.71,222,168.83,222.59,168.75ZM36.28,122.59c.13.44-.8.09-.87-.15C35.28,122,36.22,122.36,36.28,122.59ZM25.42,108.87c-.42.17-.7-.66-1-1.14C24.82,107.58,25.1,108.4,25.42,108.87Zm-1-19.31c-1,0,.62-3.34,1.24-1.81l-.54,1.32C24.81,88.8,24.61,89.16,24.43,89.56ZM118.16,35.2c1.2-.24.24,3.49-1.76,2.41C117,36.81,118.17,36.19,118.16,35.2ZM313.41,165.68l-1.53.15-.09-.94,1.53-.15Zm-3.11-.18c-2.46,1.37,1.71-1.75,0,0Zm-6.14.55c-2.22,1.48,2-1.61,0,0Zm-7.67.6c1.7-1.64,3.23,1.42,0,0ZM89.88,148.74c.42-.55,1.94.2,3.06.44C92.43,150.18,90.68,149.62,89.88,148.74ZM37.72,72.35c-.29-.36.43-.89.81-1.34C38.82,71.38,38.07,71.88,37.72,72.35Zm94.87-39.67c-.45-.15.4-.71.64-.63C133.67,32.2,132.82,32.76,132.59,32.68ZM279.37,18.34c.13-.56,1.41-.39,2.31-.45C281.55,18.44,280.28,18.26,279.37,18.34Zm10-.31c-1.37.71-4.12.54-6.18.83C282.77,17,287.45,18.36,289.39,18Zm143,121.26c.46.09-.3.76-.55.71C431.36,139.92,432.13,139.25,432.37,139.29ZM327.91,163.61l-1.53.18-.11-.93,1.52-.18Zm-26.09,2.16a.39.39,0,0,1-.76.07A.39.39,0,0,1,301.82,165.77Zm-145.74-4.3c3.46.55,2.93.79,6.09.81.54,1.05-2.74,1.44-2.41.63C158.35,162.53,155.08,162.94,156.08,161.47Zm-30.42-4.17c-1.35,1.14-.36-1.19,1.6-.16C128.56,157.77,126.71,157.55,125.66,157.3Zm-19.94-5.53c1.51,2.25-5.52-.3-8.36-1.3C100.06,149.94,103.13,152.89,105.72,151.77Zm-25.28-6.16L79,145.08l.32-.88,1.44.52Zm-14.72-6.32c.1.09,1.91,1,1.21,1C66.07,140.39,64,137.79,65.72,139.29Zm-9.56-4.59a.38.38,0,0,1-.66-.35A.38.38,0,0,1,56.16,134.7ZM23.63,101.34c0-.56,0-1.13,0-1.71a13.18,13.18,0,0,1-.07-1.78,5.58,5.58,0,0,1,.23-1.74,3.57,3.57,0,0,1,.84-1.52A2.25,2.25,0,0,1,25.07,96a8.33,8.33,0,0,1,0,1A8.19,8.19,0,0,1,25,98.05a9.12,9.12,0,0,1-.45,2.07A1.85,1.85,0,0,1,23.63,101.34Zm64.85-55.6c-.6-.77,3.06-1.81,2.32-.32l-1.44.51C89.36,45.5,88.93,45.61,88.48,45.74ZM120,36.18c-.45-.14.39-.72.63-.64C121.07,35.68,120.23,36.26,120,36.18ZM290.9,19c0-.45,1-.34,1.56-.43C292.42,19,291.5,18.92,290.9,19Zm32.87,4a224,224,0,0,0-30.57-3.48c.72-2.08,7.47-.34,10-.11,5.2.47,9.78.85,14.53,1.75C320,21.6,323.9,21.07,323.77,23Zm42.74,133.68c.44.17-.43.7-.67.61C365.41,157.15,366.28,156.62,366.51,156.71Zm-31.08,5c.42.19-.48.68-.71.57C334.29,162.09,335.19,161.62,335.43,161.71Zm-3.82.49c.35.8-4.17,1.38-3.11-.08A6.24,6.24,0,0,0,331.61,162.2Zm-116.67,4.86c.39.26-.57.58-.78.44C213.77,167.24,214.74,166.92,214.94,167.06Zm-23.05-.86c1.74-2.4,5.46-.43,8.5-.36A25.3,25.3,0,0,1,191.89,166.2Zm-.77-.06-3.07-.24c-.66-1.48,1.77-.69,3.14-.7Zm-19.86-2.32c1.93,1.66-2.18-1.54,0,0Zm-3.87,0c-1.25,0-1.26-.6-2.24-.75C165,162.17,168.71,162.85,167.39,163.86Zm-12.14-2c-.2.53-1.44.2-2.34.15C153.11,161.45,154.35,161.78,155.25,161.83ZM140,160l-3.78-.65c-.5-1.7,2.47-.31,3.94-.28Zm-18-3.9c.35.33-.66.47-.85.3C120.82,156,121.82,155.89,122,156.06Zm-1.49-.32c0,.79-5.11-.15-3.64-1.29A7.87,7.87,0,0,1,120.51,155.74ZM77.17,143.42c.29.37-.72.37-.87.17C76,143.22,77,143.22,77.17,143.42ZM60.9,137.07c.53-.67,1.63-.41,3.14.43C63.53,138.19,62.41,137.93,60.9,137.07ZM43.31,126.93c2.3-.52,3.46,2.19,6.52,3.69.47.79-.76.18-2.29-.82-.78-.49-1.62-1.08-2.37-1.61S43.74,127.19,43.31,126.93Zm-1.52-1.69c-.43.37-1.32-.5-2.06-1C40.17,123.9,41.05,124.77,41.79,125.24ZM33.57,118c.08.43-.8,0-.85-.21C32.64,117.37,33.53,117.78,33.57,118Zm-1-1.06c-.36.29-.85-.43-1.3-.78C31.65,115.89,32.15,116.6,32.59,117Zm-2.69-3.32c-.58.21-1.2-.89-.8-1.15C29.84,112.35,29.41,113,29.9,113.63Zm-4.23-7.88c-.45.14-.62-.67-.86-1.15C25.27,104.49,25.36,105.3,25.67,105.75Zm-1-11.81c-.34-.14-.32-1.58.07-2.83s1.1-2.22,1.67-1.53C25.22,91.52,25.81,91.74,24.71,93.94Zm3.4-8.89c-.4-.38.14-.74.36-.6A.35.35,0,0,1,28.11,85.05ZM110.5,39.23c-.37-1.64,2.71.28,2.08-1.07C115.39,38.21,111.23,40,110.5,39.23Zm18.66-4.32c.12-.14-.4-.82-.22-.92l.24,0,.56,0a6.19,6.19,0,0,0,.8,0C130.69,34.49,127.11,37.27,129.16,34.91Zm9.62-2.63c.63-1.43,3.93-.8,5.26-1.08C143.41,32.63,140.13,32,138.78,32.28Zm29.46-5.35a.4.4,0,0,1,.76-.12A.4.4,0,0,1,168.24,26.93Zm14.49,138c.26-.81,1.41-.95,3.14-.67C185.32,164.88,184.16,165,182.73,165Zm-.72-.54c-2.6,1.42-4-1.35,0,0Zm-32-3.83c.35.3-.64.51-.84.35S149.82,160.44,150,160.6ZM134.13,158c-.11.44-1,.19-1.6.19C132.63,157.71,133.52,158,134.13,158ZM45.91,67.11c1-.71,2-1.43,3.1-2.1,1.5.9-1.53,1.88-2.56,2.86Zm5.88-3.31c-.22-.4.59-.79,1-1.19C53,63,52.23,63.4,51.79,63.8Zm1.92-1.17c-.47,0,.16-.79.41-.78C54.58,61.86,54,62.64,53.71,62.63Zm17.44-9c.13,1.09-3.32,1.71-4.6,2.65C67.1,54.5,68.81,54.67,71.15,53.68Zm79-23.18c-.06-.46.86-.54,1.43-.75C151.64,30.2,150.72,30.28,150.16,30.5Zm231.93,122c.44.15-.41.71-.65.63C381,153,381.86,152.46,382.09,152.54ZM178.23,163.6c.37.28-.61.54-.81.39C177.05,163.71,178,163.45,178.23,163.6ZM61.82,58.68c3.63-3.66,5.53-1.65,0,0ZM87.69,48c-1.69-.22-.9.37-2.85,1.06C83.23,48.17,88.31,46.28,87.69,48Zm.55-.7c0-.62,1.27-1,1.43-.52C89.13,47.32,88.59,47.81,88.24,47.33Zm58.24-15.65c-.06-.45.86-.54,1.42-.75C148,31.38,147.05,31.46,146.48,31.68Zm2.26-.44c-.43-.16.44-.7.66-.6C149.84,30.8,149,31.33,148.74,31.24Zm15.86-2.79c-.43-.18.45-.68.68-.58C165.71,28,164.83,28.54,164.6,28.45Zm1.51-.24c-.43-.18.45-.68.69-.58C167.23,27.81,166.34,28.31,166.11,28.21ZM92,46.51c-.06-.57,1.18-.83,2-1.19C94.05,45.88,92.81,46.14,92,46.51Zm7.08-2.86c-1.15,1.88-4.81,1,0,0Zm.87.22c.72-1.64,4-1.32,5.83-1.79,2.58-.71,4.48-1.76,5.85-1.7C108.84,42.76,105.16,42.54,99.93,43.87Zm93.71-17.95c-.23,1.41-2.16.69-3.74.91a12.49,12.49,0,0,1-3,.36c-4.72.1-8.92,2.14-11.45,1-.94.25-.63,1,.14.93,0,.78-3.29,0-3.23-1,3-1.14,8.37-.68,10.68-1,1.84-.05-.7-2.08,2.1-1.7-1.22,2.53.84.39,3.1.1,1.72-.22,1.53.59,2.4.66C192.14,26.39,193.27,25,193.64,25.92Zm9.05-1.9c-.41-.2.5-.66.72-.55C203.83,23.68,202.92,24.12,202.69,24Zm123.44-1.76,3.06.26c.66,1.48-1.77.68-3.13.68Zm11.47,1c-.91.5-.76.89.67,1-2.44,1.93-4.49-1.14-8.43-.3C330.81,22.53,335.22,23.67,337.6,23.28ZM113.21,40.43c-.44-.13.37-.73.61-.65C114.27,39.91,113.45,40.5,113.21,40.43ZM149.67,32c-.11,1.31-9.8,1.95-3.75.73A4.27,4.27,0,0,1,149.67,32Zm7.53-1.37c2.33-1.56-1.55,1.88,0,0Zm37.15-5.28c.06-.56,1.35-.55,2.24-.72C196.53,25.21,195.24,25.2,194.35,25.37Zm19.08-1.85c-.42-.21.51-.64.73-.53C214.57,23.2,213.65,23.63,213.43,23.52Zm6.88-.53c.15-.61,1.49-.58,1.53-.11C221.55,23.59,221.17,22.88,220.31,23Zm6.89-.46c-.41-.23.52-.64.73-.52C228.35,22.23,227.42,22.64,227.2,22.53Zm192,22.41c-2.49.18-6.39-1-11.64-2.72-7.66-2.41-14.89-6.23-24.67-6.88-5.65-3.42-13.76-3.88-20.59-5.78-1-.27.18-.14-.75-.1S355.55,28.29,354,28c-5.33-1.11-10.14-2.78-15-3.13,5.27-1.21,11,2,14.5,1.16,2.33.43,3.29,1.46,5.13,2.1,4.31,0,10,2.42,15.68,3.33,3.58.58,9,.27,11,3,4.54.49,6.67,1.57,11.76,2.92.06,0,0,.56.63.62s.92.27,2.94.67a3.69,3.69,0,0,0,1.58-.1c1.43.42,1.35,1.21,2,1.44,1.22.47,1.7-.17,3,.27,1.6.54,3,1.52,4.85,2.24C414.27,43.32,416.69,44,419.15,44.94Zm-301.4-5.25c-.1-.44.81-.59,1.35-.84C119.2,39.3,118.29,39.44,117.75,39.69Zm47.83-10c-.34-.71,4-1.29,2.34.11.13-.12-.46-.15-1.08-.15H166A2.25,2.25,0,0,0,165.58,29.73Zm6-1.4c1,1.29-1.57,1.07-2.89,1.39C168.73,28.88,169.81,28.45,171.56,28.33ZM369,35.82c-2,1.42-5.08-.67-7.45-1.12-1.33-.25-1.64.31-3,0-3.51-.65-7.57-2-11.12-2.37-2.18-.23-4,.09-6.06-.19-3.59-.5-6.73-1.46-10.46-2-1.66-.21-2,.28-3.06.22-2.58-.16-5.67-1.29-8.25-1.58-1.75-.18-3.83.23-5.33.13-3.18-.22-5.91-1.22-9.05-1.44-2.58-.18-5.86.32-8.38.13.17,0-.26-.91-.73-1-2.44-.31-5.88-.11-9.13-.25-2-.08-4.19-.56-6.09-.57-1.33,0-1.64.57-3,.44-2.4-.21-4.09-1.22-6.1-1.43-.5,0-1.28.55-2.28.47-.65-.05-.75-.47-1.54-.46-.38,0-3.19.05-3.05,0-1.18.17-1.52.13-1.51.95a18.82,18.82,0,0,1-4.6-1.33c-6.4.54-17,.17-24.42.87-.94.07-3.35-.61-3.85-.26a9.1,9.1,0,0,0,.06.94c-1.1,0-1.68-1.38-2.37-1.28-2.58,1.37-8.8.22-11.44.8-.21,1.14,3.45-.53,2.39,1.23-3.23.87-2.51-1.15-3.95-1.59a3.81,3.81,0,0,0-1.41,1.54c-1.38-.23-.18-.85-.12-1.41-4.52.16-11.58,1.09-16.84.65,3.71-1.75,8.78-.14,12.11-2.14,3.82.59,9.19.1,16.11-.3-.19,0,.43.74.8.42,1.62-1.42,11.71-.25,15.31-.34,3.94-.15,7.42-.59,12.24-.43,7.68.26,15.76.54,23.71.71,2.05,0,6.24-.45,7.65-.38,1.75.09,3.58.87,5.32,1.06,5.43.61,13.75,1,19.78,1.72,8.33,1,16.26.94,24.25,2.25,2.11.34,4.5,1.26,6.71,1.61,4.48.71,9.26.78,13.55,1.58,1.78.34,3.2,1.16,5.13,1.64C362.69,34.23,366.39,33.92,369,35.82ZM231.82,22.72c-.35-.9,3.45-.87,2.32.35l-1.53.08C232.73,22.74,232.29,22.72,231.82,22.72ZM412.72,143l-1.46.43-.27-.9,1.45-.43Zm-2.32.2c-4,3-4,.18,0,0ZM122.29,39c0-.57,1.25-.73,2.11-1C124.41,38.56,123.14,38.72,122.29,39Zm10.37-2.48c-.07-.45.83-.57,1.39-.8C134.13,36.18,133.22,36.29,132.66,36.53ZM309.18,23c-.38-.26.59-.57.79-.42C310.35,22.87,309.39,23.17,309.18,23ZM417.5,140.52c0,.63-1.29.93-1.45.47C416.61,140.52,417.17,140,417.5,140.52ZM151.43,33.13c-.43-.16.44-.69.67-.6C152.53,32.7,151.67,33.22,151.43,33.13Zm3-.55c0-.57,1.29-.64,2.17-.86C156.58,32.28,155.3,32.34,154.44,32.58Zm163.15-9c.89.13.59.9.66,1.46-1.84.07-1.59-1-3.77-.72C314,23,318.05,24.85,317.59,23.54Zm111.7,111.88c4-1.11,4.87-3.7,6.81-3.16C436.92,133.58,430.18,137.1,429.29,135.42ZM165.8,31.12c-.43-.18.45-.68.68-.58C166.91,30.72,166,31.22,165.8,31.12ZM272.44,23c0-.45.93-.36,1.53-.47C273.94,23,273,22.91,272.44,23Zm35.17.89c.46-1.09,3.63-.11,1.5.55C308.49,24.32,308.37,23.94,307.61,23.9ZM190.82,28.14c.12-.61,1.45-.65,1.52-.18C192.08,28.69,191.66,28,190.82,28.14Zm2.28-.26c.49-1.45,2,.4,3.79-.42C196.82,28.58,193.59,28.1,193.1,27.88ZM446.52,128.22c-.15-.9.67-1.73,1.81-2.38a12.48,12.48,0,0,1,3.74-1.4A14.73,14.73,0,0,1,446.52,128.22ZM199.22,27.69c-.42-.2.49-.66.71-.55C200.35,27.34,199.44,27.8,199.22,27.69Zm3.8-.39c0-.46.89-.46,1.47-.62C204.52,27.15,203.6,27.13,203,27.3Zm135.68.35a.39.39,0,0,1,.76.08A.39.39,0,0,1,338.7,27.65ZM225.15,26.44c0-.46.91-.43,1.49-.58C226.65,26.32,225.73,26.29,225.15,26.44Zm160.66,9.48,1.48.28c-.07.31-.13.62-.19.93l-1.48-.29C385.69,36.54,385.75,36.23,385.81,35.92ZM267.86,26.8c0-.46.94-.38,1.53-.48C269.37,26.78,268.46,26.68,267.86,26.8Zm2.3.46c-.4-.24.54-.6.75-.47C271.31,27,270.37,27.39,270.16,27.26Zm98.36,6.58c1.85.23,3.61.5,4.4,1.18C371.49,35.4,367.75,35.82,368.52,33.84ZM159.09,37c-.43-.17.43-.69.66-.59C160.17,36.6,159.31,37.11,159.09,37Zm264,10.11c1.18-.06,8.18,2,7.25,3.88C429,49.45,425.24,48.47,423.14,47.13Zm-252-11.59c0-.46.87-.5,1.43-.69C172.58,35.31,171.67,35.35,171.1,35.54Zm9.75-1.39c-.43-.19.46-.67.69-.57C182,33.77,181.07,34.25,180.85,34.15Zm115.88-5.53c-.39-.26.57-.58.77-.45C297.88,28.43,296.93,28.76,296.73,28.62ZM443.65,55.07c-.25-.38.72-.35.85-.16C444.75,55.28,443.78,55.26,443.65,55.07ZM216.32,30.86c0-.46.9-.44,1.48-.59C217.81,30.73,216.89,30.71,216.32,30.86Zm71.3-2.5c.07,1.44-4,1.25-4.57.87C283.15,28,285.61,28.32,287.62,28.36Zm.76,0,1.52,0,0,.94-1.52,0Zm14.42.48c0,2-4.9,2.18-5.33.26C299.92,29.49,301,28.94,302.8,28.86Zm87.42,11.79c-1.94,1.12-6.27-.51-9.64-1.41-3.75-1-6.7-2.56-11-2.37,2.16-1.08,6-.58,9.91.44S387.46,39.84,390.22,40.65Zm-1.28-1.22c.11-.45,1-.17,1.57-.16C390.39,39.71,389.53,39.44,388.94,39.43ZM434,51.79c1.79-.53,5.73,2,8.32,2.71-.55.65-2.29.23-4.06-.48A19.51,19.51,0,0,1,434,51.79ZM290.63,29.38c0-.46.94-.35,1.54-.43C292.13,29.4,291.22,29.29,290.63,29.38ZM295.2,29l1.51.05c.32,1-1.11.86-2.3.87C294.57,29.59,295.18,29.52,295.2,29Zm8.33.32c1.2.1,2.9-.08,3,.62.69,1.62-2.39.61-3.83.76A1.76,1.76,0,0,0,303.53,29.36Zm92.63,12.09c.31-.54,1.56-.13,1.46.33C396.91,41.92,396.19,42,396.16,41.45ZM323.09,32c.05-.45,1-.29,1.54-.36C324.58,32.06,323.68,31.9,323.09,32Zm30,3c.08-.45,1-.24,1.56-.27C354.59,35.17,353.71,35,353.11,35ZM365,36.64a.38.38,0,0,1,.74.12A.38.38,0,0,1,365,36.64Zm38.78,8.06c-1,1.43-2.87-.83-5.28-.29,0-.42.38-.37.83-.3.09-.45-.8-.55-1.34-.78C399.68,42.18,402.44,43.6,403.82,44.7Zm11.56,2.58c.14-.43,1-.11,1.55-.05C416.78,47.66,416,47.33,415.38,47.28ZM319.29,32.16c0-.46.95-.31,1.54-.37C320.78,32.25,319.88,32.08,319.29,32.16Zm40.47,4.2c.09-.46,1-.24,1.56-.27C361.23,36.55,360.36,36.33,359.76,36.36Zm36.92,6.17c-2,.15-5.2-.09-5.93-.81A15.29,15.29,0,0,1,396.68,42.53Zm8.69,2.07c1.48.21,2.22.67,1.92,1.46l-2.15-.55C405.21,45.21,405.29,44.91,405.37,44.6Zm9.75,3.58c-.11.17-3,.57-3.79-.07-.67-.52.13-1.46-.72-.19-.33-.87-3.51-.83-2.49-2.13C409.85,45.45,412.51,47.48,415.12,48.18Zm2.12.62c1.29.59,3,1.06,2.41,2.19C417.78,50.57,416.68,49.93,417.24,48.8ZM344.62,36.35c.07-.46,1-.27,1.54-.31C346.1,36.5,345.21,36.3,344.62,36.35Zm17.11,2.19c.08-.46,1-.24,1.55-.25C363.19,38.74,362.32,38.51,361.73,38.54Zm5.17.77c-.1-.86,4.28-.17,2.88.94C368.21,40.2,367.88,39.61,366.9,39.31Zm39.68,9.49c-.3-.33.67-.45.83-.28C407.72,48.85,406.74,49,406.58,48.8Zm69,36.5c.15-.25.65,0,.57.1S475.54,85.43,475.62,85.3ZM427.34,55.44l1.36.47-.31.89L427,56.33Z"/><path class="cls-1" d="M391.07,170.79c3.24.32-2.14.29-1.66-.1C390.13,170.13,390.91,170.78,391.07,170.79Z"/><path class="cls-1" d="M172.53,159.22c4,0,7.82.89,12.14,1.19,1.26.08,2.47-.27,3.08-.21,1.53.16,4.74,2.06,5.32.42,2.88-.44-2.23-.25-1.44-1.06l3.79.29c-.21,1,.52,1.53,2.18,1.56,2.41.56,2.41-.58,3.87-.7a29.11,29.11,0,0,0,6,1.29c1.85,0,2.15-.91,3.09-.79.1,0-.13.87,0,.94.61.49,3.62-.75,3.8.64.68-1,3.37-.61,4.63-1.24,2,.91,6.14.17,8.37.72,1.15-.25,3.23-2.3,3.84-1.34-1.53,1.07.18.53.74,1.43,5.93-.65,13.6-.27,20.62-.43,1,0,.68-.83,1.51-1,11,1.05,20.84-.75,29-.53,0-.58.16-1.13,1.47-1,6.7,1,13.23-.81,19.74-1.41,2.4-.21,5.12,0,7.62-.22,8.84-1,18.52-3.88,26.31-4.06.65-.73,2.45-1,2.8-1.83-.45,1.61,2.54.3,3.21,1a8.84,8.84,0,0,1,4.35-1.62c3.69.37,8.06-1.53,11-2.82.37.94,3.28-.48,3.88.24.26-2.11,2.2-.33,3.72-.7.15,0,.71-1,1.29-1.22.73-.22,1,.29,1.58.17,1.22-.25,3.87-1.72,5-2,.08,0,1.07.73,1.66.61,1.83-.35,4.21-1.35,6.51-1.93s4.88-1.63,7.19-2.21c2.74-.66,5.56-.81,8.09-1.6,3.51-1.12,6.5-3.1,9.64-4.22a13.7,13.7,0,0,0,3-.41c2.31-.77,6.59-3.33,8.06-1.62-5.14,2.07-8.56,1.94-9.37,5,3.33-.47,3.32-1.86,5.42-2.67.26.52.56,1,1.72.43,1.1-2,4.1-1.73,6.2-2.6,1.18-.5,1.8-1.53,3.16-2.14.87-.4,2.67-.41,3.62-.86a41.69,41.69,0,0,0,7.62-4.61c-.08.07,1.2-.06,1.15-1,.14,2,3.64-1.23,4.55-.49.7-1.94,3.65-2.11,5-4.5,1.84.77,4.62-1.69,6-3.73,1.72.34,3.24-.71,4.65-2s2.73-2.65,4.29-3.08l-1.07-1.55a88.59,88.59,0,0,0-12.88,6.13,82.88,82.88,0,0,1-13.34,6.28c-.86.38-.27,1-.95,1.42a62.69,62.69,0,0,0-13.36,5.63,2.17,2.17,0,0,1-1.54,0c-1.61.8-1.48,1.49-2.47,1.85-2.29.83-7,1.48-10,2.66-2.51,1.06-6.69,2.12-9.84,3.3-1.32.5-2.09,1.45-3.35,1.86-1.51.49-3.56.38-5.18.83-6.2,1.73-18.88,5.43-24,5.72-.67,0-.59.59-.65.6-4.54,1.08-11.41,2.85-14.68,3.53a25.2,25.2,0,0,1-3.06,0c-.09,0-.42,1-.6,1-2.15,1-4,.1-5.3.32-4.89.81-11.24,2.27-14.13,2.83-5.54,1.11-13.51,1.6-16.54,2.26-1.24.27-1.24-.76-2.27.21-.32.3-1.05-.36-.8-.4-1.68.29-2.89,1.14-4.45,1.33s-5.41-.23-7.62.12a26.86,26.86,0,0,1-5.3.37c-.77,0-.88.55-1.49.56-1.6,0-3.56.25-4.56.27s-1.4-.44-3.06-.31c-4,.32-8.16,2-12.13,1-1.5-.09-1.49.69-2.26,1-1.36-.37-2-1.26-4.59-.81-1.81,1.62-7.12.41-11.4.66a41.53,41.53,0,0,0-6.09,1c-5.74-1.9-12.2-.67-18.27-.69-2.69,0-5.53-.21-9.13-.29-.86.28.09,1.57-2.36,1.79-.05-.74.16-1.63-1.47-1.47-1.91-.6-4,1.41-3.78-.66-1.29-.58-1.32.82-1.57.87-3.77.79-2.56-1.19-.71-1-1.33-.15-2.35.34-3.82.25-4.83-.28-12.32-1.26-15.94-1.14-.71,0-2.4-.7-3.75-.79-4.77-.26-14-1.17-16-.71-2.8.65-.43-.53,0-.47-3.82-.46-9.66-.94-11.35-1-.62,0-3.08-.9-4.44-1.12-5.64-.82-12.4-1.85-16.52-2.24-3-.27-4.93-1.43-7.34-1.89-1.38-.27-1.72,0-3-.14-1.78-.24-6.88-2-8-2.24-.82-.13-1.76.7-2.42.41-.34-.14,1.7-.49-.51-1.09-2.4-.64-4.94-.73-7.42-1.35-4.86-1.27-9.21-3.3-14.27-4.57a78.2,78.2,0,0,1-9.17-3,26.22,26.22,0,0,0-2.95-.57,108.68,108.68,0,0,1-10.76-4.81c-4.67-2.42-9.09-4.5-13.21-6.74A52.78,52.78,0,0,1,45,118.77c-1,1.49-.57-.2-1.86-.89-.25.44-2.82-1.14-1.43.65,3.44,1.69,6.07,5.3,10.59,8,1.57,1,3.53,1.54,5.24,2.44,6.65,3.4,9.47,5.59,13.4,5.83,1.18,1.57,6.34,4.1,6.17,2.48,2.26.61,1.05,2,3.85,2.44.3-.49.34-1.31,1.18-1.08-.12,1.7,2.6,2.64,5.42,3.37s5.76,1.27,6.06,2.4a3.83,3.83,0,0,1,1.85-.93c-.55.91.49,1.34,1.67,1.55a13.83,13.83,0,0,0,2.52.16.65.65,0,0,1,.6.66c4.81,1.38,9.37,2,11.06,2.4,3.4.89,7.16,2.5,8.94,1.59-.1.46-.72.42-.94.76,2.18.47,3-1.59,4.63,0-4,1.53,3.69,1.38,8.08,2.09,1.09.19,2.45.93,3.65,1.15,2.76.52,5.21-.17,5.9,1.51,4.91-.43,12.39,1.9,17.38,2.14,1.83.08,3.44-.71,4.65-.36.69.21-.41.95,1.39,1.13a24.29,24.29,0,0,0,2.64.06c.74,0,1.23-.08,1.2-.08.42,0,1,.54.7.55,2.47-.07,4.41-2,6.92-.2C175,158.74,171.93,157.56,172.53,159.22Zm11.47.18c1.92-1.35,2.92,1.92,0,0Zm-25.71-2.86c.36.29-.62.53-.81.37C157.12,156.61,158.1,156.39,158.29,156.54Zm-29.18-4.8c-.12.45-1,.18-1.59.17C127.64,151.46,128.51,151.74,129.11,151.74Zm103.6,10.16c.51-.48,1.76-.46,1.55-1.39l3.81,0c-.44,1-1.2,1-2.29.46C234.26,161,234.79,162.27,232.71,161.9Zm-4.55-1c0,.46-.95.34-1.54.44C226.65,160.85,227.56,161,228.16,160.87Zm-3.81-.09c.39.25-.57.59-.78.45C223.19,161,224.14,160.65,224.35,160.78Zm-6.09-.19c.38.26-.57.58-.78.44C217.1,160.77,218.05,160.45,218.26,160.59Zm44.94-.29c.4.23-.53.62-.75.49C262.05,160.56,263,160.17,263.2,160.3Zm161-28c-1-.2-2.64.37-4.35,1-1.06-1.63,2.23-2.17,4.41-3C424.6,131,423.72,131.49,424.17,132.27Zm3.83-2.41c.34-2.21,2.6-1.91,5.61-3.71C432.56,128.44,431.34,128.21,428,129.86Zm13.3-6a4.86,4.86,0,0,0-2.17.45c0-.41.48-.72.28-1.15l1.31-.59C440.91,123,441.1,123.45,441.3,123.88Zm-15.69,5.87c.44.1-.29.74-.53.69C424.64,130.34,425.37,129.7,425.61,129.75Zm-11.44,2.94c.44.11-.32.73-.56.67C413.18,133.24,413.94,132.63,414.17,132.69Zm5.43-2.31c.44.1-.3.74-.54.68C418.63,131,419.37,130.32,419.6,130.38Zm-322,13.79c.3.35-.69.42-.86.24C96.43,144.06,97.43,144,97.59,144.17Zm11.73,2.68c.32.33-.68.44-.85.27C108.15,146.78,109.15,146.67,109.32,146.85Z"/><path class="cls-1" d="M81.13,56.09c.39-.14.63-.72-.18-.44-.66.26-2.63,1.51-4.85,2.74s-4.73,2.36-6.65,2.3c1.48,1.49-2.26,1.46-1.78,1.38-.69.16-1,1-1.09,1.07-.65.3-1,0-1.52.23s-.65.95-1.07,1.09c-1,.36-1.29-.45-3,.53l-2,1.1-1.16.67c-.28.29.75,1.27-.77,1.54-1.81.87-.18-.53-2.56-.09-2,3.36-6.1,5.34-9.27,6.45a15.25,15.25,0,0,1-4,4.31,46.44,46.44,0,0,0-3.88,3c-1.55,1.45-2.1,3.92-3.76,4.94-.41.67.38.89.19,1.48a5.16,5.16,0,0,0-2.5,3,4.75,4.75,0,0,0-.28,2,2.1,2.1,0,0,0,.71,1.38c-.21-1.34,1-2.19,1.67-3.56.85-1.62,1.24-3.4,2.71-5.47,1-1.33,2.72-2.36,3.95-3.9a11.63,11.63,0,0,1,1.5-1.71c.38-.36.83-.67,1.76-1.42,2.16-1.73,4.95-4.17,7.63-6s5.12-3.16,6.23-2.79c.12-1,1.21-1.73,2.52-2.36a36.25,36.25,0,0,0,4.07-1.89c5.53-3.54,10.79-5,16.15-8.54.64.4,2.53-.17,3.78-.5,3.14-.88,8.38-2.48,8-4-1.64-.31-3,1.35-4.89,1.79-1.36.31-1.67-.68-3.12.18C84.34,55.58,81.58,55.93,81.13,56.09Zm-35.3,19.3c-.43,0,0-.78.25-.79C46.51,74.57,46.06,75.38,45.83,75.39Zm-9,9.38c-.39.1-.2-.72,0-.77C37.26,83.91,37.07,84.72,36.87,84.77Z"/><path class="cls-1" d="M393.47,144.5c-1.21-.12,0-.74-1.2-1.65,3.54-.69,5.31-2.23,6.3-2.61,2.45.37-1.61,2.25-1.45,3.31C396.39,142.77,393.44,143,393.47,144.5Z"/></g></g></svg>