<svg xmlns="http://www.w3.org/2000/svg" viewBox="0 0 711.85 292.75"><defs><style>.cls-1{fill:#56cbf9;fill-rule:evenodd;}</style></defs><title>circle-strk</title><g id="Layer_2" data-name="Layer 2"><g id="Layer_1-2" data-name="Layer 1"><path class="cls-1" d="M148.57,273.25c.44.67-1.15,1.09-1.39.73C146.74,273.31,148.33,272.89,148.57,273.25Z"/><path class="cls-1" d="M87.43,252.69c.38.77-1.38.86-1.59.45C85.47,252.39,87.22,252.29,87.43,252.69Z"/><path class="cls-1" d="M176.74,278.68c.47.66-1.07,1.15-1.33.79C175,278.83,176.49,278.33,176.74,278.68Z"/><path class="cls-1" d="M132,267.59c-.32,1-1.61.37-2.55.33C129.78,267,131.07,267.55,132,267.59Z"/><path class="cls-1" d="M41.17,224.85c.29.91-1.69.38-1.84-.11C39.05,223.85,41,224.37,41.17,224.85Z"/><path class="cls-1" d="M35.2,220c.27,1-1.74.25-1.9-.28C33.05,218.73,35.06,219.45,35.2,220Z"/><path class="cls-1" d="M31.61,216.76c-1,.73-2.8-1.45-4.31-2.72C28.35,213.36,30.08,215.53,31.61,216.76Z"/><path class="cls-1" d="M211.38,283.82c.5.63-1,1.21-1.26.87C209.63,284.07,211.13,283.49,211.38,283.82Z"/><path class="cls-1" d="M336.36,291.64c0,1-1.35.79-2.22,1C334.19,291.64,335.51,291.86,336.36,291.64Z"/><path class="cls-1" d="M400.07,289.46c0,1-1.3.89-2.14,1.16C397.91,289.6,399.23,289.75,400.07,289.46Z"/><path class="cls-1" d="M557.16,259.73c.69.39-.47,1.49-.84,1.28C555.63,260.61,556.79,259.52,557.16,259.73Z"/><path class="cls-1" d="M315,271.13c2.48-3.14,6.87,1.43,0,0Z"/><path class="cls-1" d="M314,270c.54.56-.82,1.32-1.11,1C312.35,270.48,313.72,269.74,314,270Z"/><path class="cls-1" d="M311.85,270c.54.57-.84,1.31-1.12,1C310.19,270.39,311.56,269.65,311.85,270Z"/><path class="cls-1" d="M143.35,229.22c-.54,1.09-1.2.26-1-.3C142.85,227.83,143.51,228.67,143.35,229.22Z"/><path class="cls-1" d="M165.78,232c.41.66-1.06,1.13-1.28.77C164.1,232.11,165.57,231.64,165.78,232Z"/><path class="cls-1" d="M277.81,248c.5.59-.87,1.29-1.14,1C276.17,248.35,277.54,247.66,277.81,248Z"/><path class="cls-1" d="M550.59,227.74c.22,1-1.06,1.1-1.81,1.52C548.58,228.26,549.85,228.16,550.59,227.74Z"/><path class="cls-1" d="M98.41,86.31c4.46.73-3.64,4.79,0,0Z"/><path class="cls-1" d="M114.17,80c-.73-.28.16-1.53.54-1.38C115.43,78.88,114.55,80.14,114.17,80Z"/><path class="cls-1" d="M571.5,220.12c.25,1-1,1.13-1.75,1.58C569.5,220.7,570.78,220.57,571.5,220.12Z"/><path class="cls-1" d="M93.79,91.16c-.41-1.28,1.34-2,1.85-1C95.12,91.17,94.61,92.17,93.79,91.16Z"/><path class="cls-1" d="M583.3,215.53c-.69-2.62,2.73-3,5.36-3.92C588.19,213.61,584.77,214.05,583.3,215.53Z"/><path class="cls-1" d="M165.25,225.36c4.13-2.8,4.93,3.44,0,0Z"/><path class="cls-1" d="M161.18,224.32c-.49,1.11-1.16.31-1-.25C160.65,223,161.33,223.76,161.18,224.32Z"/><path class="cls-1" d="M114,210.19c.22-3.34,2.86-.86,4.67-.42C117.5,210.85,115.85,210.78,114,210.19Z"/><path class="cls-1" d="M96.64,92c-.74-.22,0-1.54.42-1.42C97.8,90.81,97,92.12,96.64,92Z"/><path class="cls-1" d="M276.2,241.51c.5.59-.87,1.29-1.14,1C274.57,241.89,275.93,241.2,276.2,241.51Z"/><path class="cls-1" d="M203.4,232.35c.44.63-1,1.19-1.22.85C201.75,232.56,203.17,232,203.4,232.35Z"/><path class="cls-1" d="M199.28,231.6c.44.63-1,1.18-1.23.85C197.62,231.81,199.05,231.26,199.28,231.6Z"/><path class="cls-1" d="M195.16,230.82c-.4,1.19-2,.51-3.29.44C192.27,230.08,193.92,230.75,195.16,230.82Z"/><path class="cls-1" d="M183.87,228.55c-.43,1.18-2.06.47-3.3.37C181,227.75,182.62,228.45,183.87,228.55Z"/><path class="cls-1" d="M177.73,227.22c-.25,1-1.43.51-2.27.56C175.71,226.78,176.88,227.26,177.73,227.22Z"/><path class="cls-1" d="M139.33,217c-.33,1-1.47.41-2.31.38C137.36,216.4,138.48,217,139.33,217Z"/><path class="cls-1" d="M109,205.83c.29.71-1.23.94-1.38.56C107.35,205.66,108.85,205.46,109,205.83Z"/><path class="cls-1" d="M89.44,196.24c-.82,1.45-7.86-1.9-4.82-4C85,193.87,87.13,195.15,89.44,196.24Z"/><path class="cls-1" d="M78.87,189.78c-.83.93-2.08-.3-3.15-.89C76.57,188,77.76,189.25,78.87,189.78Z"/><path class="cls-1" d="M165.34,67.37a2.88,2.88,0,0,1,2.44-2.89C168.86,66.51,166.89,66.82,165.34,67.37Z"/><path class="cls-1" d="M55.59,129.36c-.72.17-.82-1.31-.4-1.38C55.92,127.83,55.94,129.26,55.59,129.36Z"/><path class="cls-1" d="M56.61,127.7c-.84-.56-.07-1.48.21-2.24C57.63,126.06,56.8,126.92,56.61,127.7Z"/><path class="cls-1" d="M60,122.9c-.75.06-.6-1.4-.2-1.45C60.56,121.39,60.42,122.86,60,122.9Z"/><path class="cls-1" d="M193.66,60c-.09-1.21.89-.81,1-.23C194.75,61,193.78,60.56,193.66,60Z"/><path class="cls-1" d="M187.8,62.47c-.09-1.21.88-.81,1-.25C188.91,63.43,187.94,63,187.8,62.47Z"/><path class="cls-1" d="M424.26,231c.05,1-1.2.91-2,1.21C422.22,231.18,423.48,231.3,424.26,231Z"/><path class="cls-1" d="M421.16,231.23c.56,2-4.61,1.88-3.18-.82-2.27-.25-3.39,1.82-6.14,1.47a13.82,13.82,0,0,1-1.71-1l-1-.65-.49-.3c.55,0-4.65.39-4.14.25-2.59.72-1.78,2-4,2.31s-2.8-1-4.19-.84c-1.88.21-3.38,2-5.1,2.33-2.4.49-6.27-1.53-12.5-.6,0-3,4.11-3.39,5.09-3.33,3,.18,1.61,2.14,4.22,2,11.27-.77,25.54-4.26,37-5.32,3.8-.33,7.6.6,11.42.1,2.28-.31,4.8-2.67,7-2.77,1.81-.08,2.35,1,4.21.63,3.43-.69,6.87-2.57,10-3.2s7.9.11,11.37-.33a5.52,5.52,0,0,0,2-.78c.55-.34.93-.66,1-.66,1.93-.18,3.42.75,5.24.35,3.53-.78,6.23-4.34,10-2.51,1,3.21-2.5,1.09-3.92,1.64-1.63.61-2.7,2.4-3.78,2.67-1.23.33-2.63-.63-4.23-.48-1.94.2-3.94,1.63-6,1.85-2.55.29-5.81-.44-8.32,0-5.75,1-10.85,4.76-17.34,2.94-2.61.38-3.42,2.26-4.85,3.63-3.26-3-7.36-.54-11.46-.06-3.12.35-7.5-2.71-8.19,1.68Z"/><path class="cls-1" d="M484.43,220.08c.6.46-.55,1.43-.87,1.19C483,220.81,484.1,219.84,484.43,220.08Z"/><path class="cls-1" d="M497.64,218c-1.81-3.15,3.15-1.34,1.34-4.48,4-.74,7.94-.85,11.07-1.95,1.62-.57,4.08.32,4.21.28,1.22-.34,1.41-2,2.61-2.64a44.63,44.63,0,0,1,7.78-2.64c2.43-.44,4.62,1.14,6.71-2.51,1,1.66,4.67-1.11,5.41,1a20.68,20.68,0,0,1,6.05-3.5,8.9,8.9,0,0,1,6.77.45c.12,3.77-3.15,2-4.92,1.21-2.78,2.7-6.54,3.27-10.32,4s-7.6,1.61-10.64,4.94C514.05,212.44,506.5,216.5,497.64,218Z"/><path class="cls-1" d="M532.49,209.22c.64.42-.43,1.47-.77,1.25C531.08,210,532.16,209,532.49,209.22Z"/><path class="cls-1" d="M496.11,215.06c.62.46-.5,1.45-.84,1.21C494.67,215.82,495.79,214.82,496.11,215.06Z"/><path class="cls-1" d="M493.08,215.56c.14,1-1.1,1-1.86,1.36l-3,.47C487.66,215.16,491.7,216.36,493.08,215.56Z"/><path class="cls-1" d="M78.65,168.45a3.24,3.24,0,0,0-.83-1.61,7.84,7.84,0,0,0-1.47-1.3c-.59-.4-1.13-.81-1.72-1.24a8,8,0,0,1-1.53-1.42c-.87-1-.13-1.89-1-2.88-1.07-1.31-2.56-1.32-3.07-2.68a5.72,5.72,0,0,1-.53-2.08A2.71,2.71,0,0,1,70.37,153a6.86,6.86,0,0,0-.77-.9,2.93,2.93,0,0,1-.48-.79.8.8,0,0,1,.15-.82,3.18,3.18,0,0,1,1.19-.91c-1.73,0-1.6-.51-1.43-.89s.21-.69-1.9-.74c1.34-.51,1.36-.89,1.42-1.3s-.1-.81.85-1c2.24.25,2.35.54,2,.83a7.9,7.9,0,0,1-.75.51c-.24.18-.42.38-.39.54a28.66,28.66,0,0,0,1.12,3.36,21.41,21.41,0,0,1,1.25,4.34c.17.91.35,1.09-1.2,2.09,1.93.1,3.48,1.69,5.29,3.54s3.6,3.88,4.68,4.48C82.74,167.39,79.41,166.48,78.65,168.45Z"/><path class="cls-1" d="M139,94.9c-.68-.33.2-1.51.56-1.33C140.2,93.9,139.33,95.08,139,94.9Z"/><path class="cls-1" d="M574.53,194c.66.36-.3,1.49-.65,1.3C573.23,194.91,574.18,193.79,574.53,194Z"/><path class="cls-1" d="M565.2,197.83c-.77.42-1-.14-1.25-.74-1.11-3.56-2.61,3-3.2-.22-2.81-3,2.07-1.52,2.63-1.8s2-2.75,2.3-2.86c1.16-.44,4.89,1.31,4.77-1.39,2.41-.56,1.31,3.33,1.21,4C568.79,194.79,564.59,192.67,565.2,197.83Z"/><path class="cls-1" d="M526.54,200.81c.62.42-.44,1.48-.78,1.24C525.15,201.62,526.2,200.59,526.54,200.81Z"/><path class="cls-1" d="M115.45,261.23c1.13.4,1.62-.34,2.59-.23a7.78,7.78,0,0,0,4.12,3.32,35.51,35.51,0,0,0,6,1.57c4.19.82,8.38,1.59,10.32,4.64,3-2.64,13.08,1.54,17.95,4.67.79-4.91,6.37.78,8.07.82,1.05,0,1.5-1.73,3.8-1.29,2.85.5,7.31,2.6,9.79,3.14.44-1.6.58-3.6,2.84-2.64-.65,2.56-2.77,2.8.29,4.36,5.88-1.75,9.29,1.26,16.87,2.05,1.77.21,1.33-2.49,3.68-1.5-2.22,2.12-.84,1.93,1.19,1.7s4.69-.53,5.12,1.45c-.52.48-5.65.67-2.56,1.72,2.71-.29,3.54-3,6.2-3.27.69,1.57,3.16,2.36,5.75,2.59s5.28-.14,6.42-.82c.07,1.88-5.67,2.49-2.79,3.85,1.57-3.64,6.94.1,7.91,0,.61-.05,1.94-1.45,3.59-1.65,3.43-.47,5.63-.26,7.62,2,.33-.89.28-1.9,1.35-2-.77,0,2.11.23,2.21.25,1.43.27,5.88,1.63,5.41,1.66a1.05,1.05,0,0,0-.22,2.08c1.37-3.4,2.56-.66,4.43.46,0-2.31,1.24-3.24,3.63-2.81,4.65,1.25,17,3.95,23.24.89,2.69,3.38,10.48,2.51,16.41,3.13.29-.81.14-2.08,1.21-2.06.21.83-.08,2.08,1,2.17.29-.81.14-2.09,1.2-2.06a26.67,26.67,0,0,1,6.52,2.42c.28-.81.12-2.08,1.19-2.07,4,3,6.77,1.56,9.87,1.42,1.57-.07,4.29,1.33,5.48,1.22,1.73-.17,3.62-1.67,5.55-2,7.48-1.24,8.29,1,13.18,2.29,0-4.62,5.05-.69,6.61-1,1-.21,1-2,3.29-2.11l.46.15c.29.1.7.23,1.16.36a12.86,12.86,0,0,0,2.78.53c3.27,0,6.94-1,9.87-1.17,2.1-.12,3.88,1.18,5.48-.09,2.28-.35-1.69-2.81,2.12-3.21-2.11,2.49.3,1.16,1.17,3.13,5.82,2.22,9.61-1.44,14.22-1.49.42,0,2.46,1.1,4.42.87,7.58-.79,19.81-4.14,24.2-.24,1.92-6.36,11.12-1.08,16.12-5.41-.08,2.85,8,2.35,8.83.28-1.7-.09-.31-1.7.91-2.2,4.55.53,8.48-1.75,8.94,1.25,2-.05,2.08-2,4.15-2.54,1.81-.49,3.49.73,5.57.44,4.84-.67,10.3-3.42,15.28-1.85,1.46-.19.76-2,1.92-2.37,3.94-1.32,7,.27,9.95-.31,1.55-.3,1.52-2.27,3-2.56.34-.07,1.7,1.48,3.42.55.7-.37-.53-1.79.77-2.24a4,4,0,0,1,3.42.53c.7.61,1.12-1.27.92-1.2,4.84-1.55,4.46,1.3,7.94.82,1.71-4.24,7.17-.57,8.14-4.61,1.66,2.12,4.93,1.29,8-.13s6-3.49,6.94-3.77l.29.27c.18.16.43.37.71.58a3,3,0,0,0,1.58.77c2.45-.38,5.21-4.17,7.36-2.63.9,1.36-3.69,3.44-.42,3.32,2.41-5.86,9-3.93,11.59-9.05,1.22,1.85,3.52,2,6.12,1.78-.17-5.75,9.63.62,4.12-6.44,2.87,2.95,6.16-.56,7.75-.91,1.06-.23,3.77,1.12,4.84.87a12.07,12.07,0,0,1,2.94-1.91c3.42-1.31,8.23-1.06,9.95-1.79.64-.27.72-2.28,2.6-3s2.68.32,4.59-.35c1.39-7.15,4.69-1.77,6.08-3.07.68-.65-1.08-1.84.4-2.35s2.42,1.3,3.87.9c.19-.05.91-2.5,2.5-3.09.22-.09,2.85.22,4.59-.53a195.43,195.43,0,0,0,18.23-9.45c2.05-1.21,3.58-3.92,5.44-4.68.52-.22,1.84.73,3.56-.46s2.56-3.33,4.28-4.38,4.3-.88,6.66-2.19c.55-.31,3-2.53,4.65-3.7a30.07,30.07,0,0,1,4.08-2.31c.58-.64-1.28-1.52-.05-2.4s2.26.51,3.56-.91c.89-1,0-2.14,1.9-3.65,2.74-2.22,7.55-3.8,11.8-8.2,2.56-2.66,6.55-6.08,9.73-9.61,2.14-2.4,2.66-5.26,4.72-7.86a10.68,10.68,0,0,0,3.34-2.3c1.85-2.31.89-2.51,2.47-3.16.9-.38.22,3.33,1.69,1.25-1.22-2.13.09-4.74,1.6-7.14s3.3-4.54,3.32-4.83c.11-1.16-2.1-.42-1.27-2.22,0,0,.17-.08.45-.25s.66-.4,1.08-.69a8.15,8.15,0,0,0,2.13-2.23c.9-1.64-.61-2.42.48-4.59.37-.74,2.43-.62,2.83-2.42.08-.35-.16-.64-.34-1.11a3.45,3.45,0,0,1,0-2.19,17.18,17.18,0,0,1,.94-2.48,22.36,22.36,0,0,0,1-2.79,6,6,0,0,0-1-5.75c-.29,2.48-2.32,1.07-3.16.07a56.46,56.46,0,0,1-5.61,13.33c-2.27,4-4.75,7.63-7.12,11.27-.82,1.32-1.24,4.21-2.34,5.77-4.62,6.41-9.86,10.52-14.93,15-4.89,4.3-10,9-14,13.31-1.11-3.12-3.31-1.54-4.39-4.67a15,15,0,0,0-6.7,2.59c-1.93,1.19-3.52,2.56-4.89,3.17a135.07,135.07,0,0,0-12.31,6.41,53.8,53.8,0,0,1-8.7,4c-1.38.54-1.72,1.91-2.52,2.24-2.78,1.14-5.55.94-8.27,2.29-4.52,2.27-10.38,7.52-14.55,6.6-1.52,4.15-4.16,2.51-6.73,3.4-6.43,2.29-13.67,5.34-18,6.69-1.31.42-1.71-.73-3.35-.13A274.63,274.63,0,0,1,535,235.6c1.22-1.87.92-4.73,3-6,4-.45,4.54-.88,7.92,1.45.87-1.8-.18-4.79,3.15-5.07,2.61-1,1.76,3.78,4.85,2.07,5.87-2.45,8.83-5.07,12.77-5.48-.17-1.24-1-2.84.18-3.33,5.2.29,4.82-4.86,7.78-3.29,1,1.3-3.22,3.6-.13,3.33.91-1.27.6-1.93,2.14-3.92-.23.29.73,1.25,1.3.71s-.7-1.6.4-2.32c2.44-1.57,6-1,8.65-3.78,1.6.73,6.8,2.85,7.59-.31-1.59.46-3.4,1.29-3.64-1,6.86-.35,11.93-3,16.84-6.13s9.67-6.61,16.16-8.9c-.75-3.65-3.55-3.26-2.6-5.75,2.72-1.88,4.52-1.31,6.81-2,3.1-5.22,9.36-5.28,12.68-7.87-.77.2-1.42-.19-1.89-1.33,2.81-.63,1.44-2.54,3.64-3.35,1.51-.27,1.5.32,4.37-.23,1.09-2.47,4.54-4.34,7.38-6.15s5.18-3.43,4.23-4.84a6,6,0,0,0,3.71-.62,9,9,0,0,0,1.49-1c.45-.38.87-.8,1.3-1.23,1.72-1.73,3.14-3.72,5.63-4.81-2.12-2.48-3.47-1.78-5.37-3.4a78.67,78.67,0,0,0-6.84,5.86c-1.1,1.08-2.3,2.16-3.42,3.28s-2.33,2.22-3.56,3.29c-4.79,4.35-10,8.3-15.46,9.94.29.76-.29,2.16-1.23,3.13s-2.26,1.49-3.34.54a5.76,5.76,0,0,1,2.64-4.11,16,16,0,0,1,2.3-1.31c.81-.41,1.64-.79,2.45-1.18,3.22-1.54,5.88-3.3,3.94-7.29-.71.18-1.34-.18-1.89-1.28-2.16,2.9-.89,1.14-2.8.51a2.43,2.43,0,0,0-2.16.38,7.76,7.76,0,0,0-1.91,1.89c-1.14,1.55-2.17,3.38-2.7,4.11-5.66.17-8.72,4.29-10.87,5.52-1.13.66-2.38-.09-3,.26-1.52.82-1.67,3.31-3.5,3.87A79.25,79.25,0,0,0,603.19,183c-5.8,3.15-11.59,8.14-18.15,11-1.85.82-3.94.94-5.74,1.85-1.31.67-1.08,2.2-2.26,2.92-.9.54-1-.73-1.28-.71-.5,0-4.2,2.17-5.52,2.74-7,3.19-13.86,7.89-19.61,9.63-1.28.41-3.6-.37-5.22.19-2.18.77-4,2.71-6.55,3.69-6.61,2.57-17,3.31-18.56,7.15-4.39-1.38-9.83,2.49-15.49,1.78-1.34.25-.62,2-1.69,2.44,0-3.4-5.81-1.46-7.52-.89-4.16,1.38-8.83,2.9-11,3.81-.92.39-1.54-1.05-2.21-.73-.26.11-.37,2-.73,2.23-.7.38-2.39-.68-2.22-.76.77-.33,2-.32,1.92-1.32-15.05,2.89-22.86,1.69-32.83,6.12,2.49,3.14,6.59-2.69,8.42.15-1.17,2.56-7.19,1.2-10.28,2.16a5.08,5.08,0,0,1,.72-3.25c-2.55,2.27-7.55-.62-10.47,0-.43.09-1.95,2.29-2.92,2.37-2.32.2-6.56-.6-9.45-.29-4.12.48-10.32.8-14.55,1-4.95.25-10.26,2.24-15.58,1.89-5-.34-11.48-.3-16.63,2.71-2.74-3.47-6.18-.2-9.43-.83-5.47-1-9.76,0-14.64.17-2.88.08-6.21-1-9.39-1.06a4.8,4.8,0,0,1-2.09,1c-2.78.22-5.62-1.17-8.35-1.15-1.79,0-3.48,2.12-5.24.95-.68,2.82,4.2,5.46,5.17,3.26-.58,0-1.17-.86,0-1,2.87-.72,2.07,2.12,4.16,2.17,1.2-4.85,8.1-.78,9.45.07.24-.82,0-2.08,1.06-2.11,1.49.26,1.76,1.74,3.14,2.1.23-.81,0-2.07,1.05-2.1,2,2.63,4.53-1.34,7.33,1,2.16-4.8,3.95,2.51,5.2-3.22,2.15.26,1,3.92,3.21,4.16-.85-4.6,2.1.81,2-2.14-4-.53,4-2.55,3.15-.07-1.28.15-2.48.37-2.05,2.15,4.4-.51,8.91-2.87,12.48-3.52a3.39,3.39,0,0,1,2.12,1c2.43-.54,3-2.25,5.15-2.32a4.94,4.94,0,0,1-.92,3.2c2.08.23,2-1.51,3.05-2.24,1.06,3.07,1.46-2.49,4.13-1.24l.15,3.15c4.76-.81,9.67-2.68,13.68.3.18-.82-.1-2.07.91-2.15.83.18,2.07-.12,2.16.9-2,1-3.47,3.1-5,3.49-.15,0-1.58-2.28-3.27-1.92-.61.12-1,3.15-3,2.28-1.39.05-1.06-1.8-2.21-2-4.57,5.32-14,1.75-20.91,3-2.61.44-5.67,1.09-7.29,3.34-1.52-3.5-8.66-.25-15.81.24-2.68.2-4.61-1-7.39-1-4.06,0-9.22.63-12.67,1a67.56,67.56,0,0,1-7.38-.12c-1.73,0-3.87,1.23-5.33,2,.46-.23,1.28,1.08,0,1.05-1.64-2.13-5.19-1.92-9.07-1.6s-8.07.66-10.93-1.24c-.27.81-.13,2.08-1.16,2.05-4.1-.33-17.15-2.33-21.22-.22.51-.25,2.33.63,2,1.2-1.26-1.61-8.47-.55-11.56-1.94-.74-.32.53-2-.88-2.18.12,0-.61,2-1.23,2-1.56.13-2.18-1.26-3.08-1.31a10.41,10.41,0,0,1-3.26.75c-5.68-.2-12.11-.76-18.9-1.46s-13.94-1.65-21.05-2.64c-14.23-2-28.3-4.28-39.28-5.32-.77-.07-2-1.47-1.87-1.46-2.15-.19-2.48,1.32-3.57,1.39-5.07.28-3.84-2.34-1.65-2.51-5.66-.43-13.93-5.21-17.14-1.89.12-5.47-10.58-2.72-11.42-3-1.82-.6-1.25-5.88-3.85-2.18a1.06,1.06,0,0,1-.58,2c.87-2-3.07-1.11-3.84-2.23-.16-.24.82-1.87.6-2a19.6,19.6,0,0,0-6.14-2.29c-2.18-.54-4.2-.91-5.1-1.27-6.55-2.71-12.12-4.76-18.82-8-3,.35-1.42,1.71-3.2,2.12-1.11-.66-.45-2,.21-3.34-6-2.48-12.73-5.45-14.29-7.66-.87,1.33-1.38,3.65-2.86,3.28,1.4-3.4-4.87.47-3.43-2.95.5-1.32,1.74-.39,2.9.31s2.27,1.12,2.42-1.12A15.73,15.73,0,0,1,82.49,202c-2.52,1.3.47,4.86-2.13,3.63-.57-1.05,0-2.34.08-3.53s-.25-2.25-2.6-2.93c-2.74-2.09.75,4.07-2.63,2.08-1.75-1.48-1.32-3.4-1.95-5.07a6.93,6.93,0,0,1-3.63,1.32,4.79,4.79,0,0,1,2.72-1.94c-3.06-.43-5.82-3.38-8.37-6.2a26.4,26.4,0,0,0-3.93-3.7,6.75,6.75,0,0,0-4.52-1.44c3.33-2.95-1.24-2.31-2.38-2.54l2.36-2.1a38.22,38.22,0,0,1-9.09-13.4A48.44,48.44,0,0,1,43.32,153a2.59,2.59,0,0,0-.76-1.51,2.74,2.74,0,0,1-.62-1.87A7.4,7.4,0,0,1,42,148.5c.06-.38.16-.77.26-1.15A23,23,0,0,1,43,145.1c.32-.74.64-1.47.9-2.22a14.41,14.41,0,0,0,.69-2.26c.12-.69.21-1.42.29-2.17s.08-1.56.19-2.33.2-1.56.36-2.32a10.54,10.54,0,0,1,.74-2.09c1.65-3.2,4.6-5.51,6.53-7.74,2.47-2.87,4.61-5.6,6.84-8.11a30.14,30.14,0,0,1,7.33-6.24c-.35-.76-1.34-1.56-.59-2.28,1.63,1.29,2.67.5,3.86-.61s2.58-2.47,4.72-2.25c-1-1.85-2.39-.82-3.58-1.22,1.38-1.12,2.85-2.14,4.29-3.21.76,4.73,3.9-.5,5.55-1.27-.66.31-1.5-.57-.58-.88.27-.09,1.65,1.31,2,1.19,1.11-.34,1.77-2.41,3-3.15,1.89-1.19,5.43.44,4.52-2.71-4.2-.94,4.44,0,.79-2.88C84.77,93.5,77,97,70.88,100.92c-1.18.76-.37,2-1.92,2.84-2,1.26-4.5,1.17-6.36,2.67-1.62,1.26-1.22,2.36-2.5,3.81-.08.09-.9-.89-1.53,0a14.89,14.89,0,0,1-2.24,2.88,10.11,10.11,0,0,1-3.84,2.32c.14,1.57.24,3.08.4,4.61-1.46-1.51-2.57,0-3.88,0-.47.91-.86,1.8-1.31,2.58l-1.25,2.23-2.32,3.79a27.47,27.47,0,0,0-1.87,3.55,13.71,13.71,0,0,0-.95,4c-2-.55-2.13,3-4.71,1.51,2.67-2.54,4.13-5.77,5.54-9.08s2.77-6.57,4.45-8.77c2.47-3.14,4.77-5.59,6.94-7.88,1.06-1.19,2.14-2.26,3.13-3.47s2-2.39,3-3.7a3,3,0,0,1-3.86-.69c1.31-1.91-.48-3.69,3-5.57,1.7,2.12-3,4.21.9,6.26a95.3,95.3,0,0,1,10.22-7.11,1.18,1.18,0,0,1,.27-1.51c1.63-1.1,3.11-1.2,6.06-3s6.93-3.16,9.84-4.92,6.56-4.28,10.48-6.52,8.07-4.17,11.63-4.88c1.35-.28,1.61,1,2.81,1,.57-3.35,4.74-4.46,9.09-5.54s8.91-2.16,10.56-5.86c.39,1.39,1.67,1.41,3.55.89s4.39-1.64,7.24-2.48c6.81-2,6.64-1.32,9.8-4.32,4.91.19,10.83-1.31,17.17-3s13.09-3.44,19.51-3.87c-.13-1.25-.88-2.87.3-3.32,1.24-.11,1.5,1.35,1.76,2.83,10.75-4.35,21.81-3.44,32.28-5.75a188.07,188.07,0,0,1,18.72-3.26c6.44-.8,7.38-.32,10.28-2.64,6.55,1.83,14.74-1,20-1.66,3.54-.41,7,1.26,10.71.86,2.53-.28,4.49-1.68,7.22-1.83,5.9-.37,14.5.16,21.16.17,8.37,0,16.08,1.13,24.31,1.54,1.27.06,1.44-1.19,3.09-1.22,5.78-.12,9.76,2.17,13.74,2.55,1.91.19,3.2-1.24,4.15-1.21.27,0,1.24,2,2.16,2,.11,0,1.58-1.26,3.1-1.14,4.34.3,8.86,2,12.59,1.83,1.37-.05,1.39-1.26,3.12-1.1,2.07.18,3.41,1.86,5.25,2.06,4,.43,8.51-.35,12.51,0,1.8.14,3.89,1.92,6.22,2.15a7.87,7.87,0,0,1,3.14-1c1,0,1.81,1.06,2.06,1.09,1.31.14,1.5-1.49,3.14-1,1.92.58,2.92,2.11,4.09,3.26,2.55-3.39,8.32-.58,12.45.39,2.86.68,6.17-.68,6.13,2.36-4.33.6-10.56,1.29-12.38-1.52-.27,1.17-1.21,1.6-2.14,2-.28-3.57-6.18-.81-9.28-1.29-.49-.07-1.43-1-3.1-1.1-1.86-.1-3,1-5.19,1-6.5-.18-15.3-5.14-17.62-1.08-3-4-8.41-.23-13.51-.87-3-.38-7-1.75-8.27,1.26L360,47.05c-4.41.91-10.78.66-18,.3a221.5,221.5,0,0,0-22.7-.38c-5.64.32-10.76,2.3-15.5,2.28-1.49,0-1.92-1.6-3.31-1.8.32,0-1.17,1.19-2,1.24-1.5.11-2-1.3-4.25-.66-1.45.42-2.3,3.29-3.94,2.52-.28-1.47-1.78-.62-3.22-.72-2.37-.18-1.65-1.26-5.41-1.52-5.42-.38-5.39,3.25-9.07,3.18-1.68-.25-1.3-3.18-4.4-1.56-3.45-.49-1,3.62-3.72,3.66-.13-1.34,1.12-1.61.61-3.26-4.37,2.46-10.56-.31-15.81.11-3.85.33-6.88,4.06-10.33,1.64-2.29,1.81,2.36,2.83-.35,4.33-.66-4.21-7.46.33-8.93-2.74-2.6.29-2.89,2.21-4.76,3,1.78-1.71-.67-2.29-3.17-2.27s-5,.69-3.38,1.36c1.63-.21,3.53-.83,3.47,1.48-5.55,1.67-7.54-2-12.09-1.89-.85,4.34-7-.25-6.5,4.61-3.47,2.25,3-.5,2.48,1.61-2.17.93-5,3.56-6.31.32,2.88.08,1.48-2.57,2.36-3.77-3.55-1.78-6.85,6.56-10.72,4.63.23,2,1.68,2,2,3.85-2.19-2.93-10.39.12-6.54-4.91-3.08-.13-2.27,2.08-4.81,2.28.15-1.35-1.57-1.72-3.33-1.74a21.74,21.74,0,0,0-3.55.28c-.74.29-.44,2.37-2.47,2.86-1.3.31-1.76-.93-3.31-.18-1.16,1.62-.48,4.27-1.56,5.92-2.8-1.79-8.81,5.57-11.85.25C160.24,69.93,161,69,163,66.94c-.34.33,2.05,1,.71-1.3-3.51-.24-2,2.31-3.41,3.21-.08-3.52-3.71-.45-4.94-1.81a7.63,7.63,0,0,1-1.06,3.65c-2.06-.24-2.18-3.74-3.63-1.06-1.73,3.26-2.49.36-5.31.63-.47,0-5.36,3.08-5.61,3s-.59-2-.7-2c-.89.29-3.08,2.32-4.59,2.78-3.6,1.14-4.1-.2-4.54,2.83-.54-1.24-1.78-.88-2.12-2.57-3.67,2.33-7.57,5.45-12.83,7.56-1.28.51-1.82-1.09-3.75-.63A17.14,17.14,0,0,0,104.49,85c-1.76,1.6-2.59,3.16-1.36,3.63-.23-.6-.42-1.19.47-1.42,7,.45,12.48-4.74,18.58-7.21,7.33-3,16.14-2.44,19.59-7.39,2.64.81,4.9,2.32,7.61,3-.18-1.86-2.31-2.08-1-3,.56,1.64,2.93-.35,3.62,1-2.36,3-5,6.35-8.86,3,1.92-1.38,4.07,1.75,2.6-2a31.49,31.49,0,0,0-7.54,2,43.11,43.11,0,0,0-5.18,2.6c1-.36,1.87,1.27.75,2-5.8-.13-8.49,4-13.68,2-3.2.83-1.4,3.68-3.49,5-4-1.14-5.18.92-7.45,3.44a15.19,15.19,0,0,0-7,1.28c-2.18,1.11-3.52,2.91-2,5.65,1.13-.41,2.46-1.49,3.16-.48-2.16.4-5.15,4.28-6.68,2.43,3.37-4-1.08-1.29-.78-5.58a37,37,0,0,0-3.53,2.88c-1.22,1.07-2.45,2.22-3.7,3.29-2.53,2.13-5.1,4-7.9,4.44-.44,1-.42,5.69-2,4.08.35-4.2-1.16.18-3,1-1.06.42-4.3-1.4-5.13.12-.93,3.62-2.15,5.46-5.27,4.83,0,1.44.12,2.92.18,4.34-3.74,2.66-5.86,5.62-6.19,9.57-1.12-.53-1.79.63-2.32,1.84-1.49-.42-2.12.16-2.76-1.53a44.32,44.32,0,0,0-3.24,10c-.75,3.54-1.13,7.09-1.6,10.52.21,1.51,2.74.46,2.42,2.51-1.43.22-2.13.77-2.39,1.55a4.18,4.18,0,0,0,.29,2.79c.71,2.07,2.29,4.09,2,5.7,1.77.68,4.82-1.83,6,.13-1.5.56-2.13,1.16-2.23,1.82a2.63,2.63,0,0,0,1,1.91,22.47,22.47,0,0,0,2.09,1.63c.61.48,1,.88.9,1.24-1.14.84-1.78-.8-2.84-.35.73,1.24,1.9,2.42,2.76,3.59a5.14,5.14,0,0,1,1.49,3.37c2.17-.94,1.29-1.9.26-2.92s-2.31-2.08-1.07-2.93a7.64,7.64,0,0,1,3.27,2.28c1.12,1.25-1.3,3-1,3.58,2.83,4.79,6.92,7.34,12.72,8.41-2.35,3.51.56.81,1.63,1.19a10,10,0,0,1,2.47,1.74c2.27,2.35,1.68.06,4.81,1.88,1.61,1,2.47,2.48,3.79,3.54.61-.59,1.07-1.78,1.93-1.31-.44,1.49,1,3.07,2.68,4.28a10.82,10.82,0,0,0,4.37,1.93c1.08,1.43-.12,3.68,2.3,4.67.68-1,1.15-2.76,2.31-2.4,2.66,3.05,9.79,2.68,10.08,8,2.13-1.94,4-2.38,2-4.86,1.61,2.25,4.59-1.07,3.8,1.55-.79,1.3-2.24,1-3.1,2.15,4-.35,6.8,2.88,6,4.64,1.45-1,3.77,0,5-1.51a2.88,2.88,0,0,0,.89,3.68c.47-2.65,6.51-2.17,6.61.06-.22,3-4.4-2.31-4.64.64,1.13.06,2.65.92,4,1.52s2.66.87,3.23-.18c-.45.11-2.25-1.39-1.65-1.65,2.05-.86,5.24.8,8.19,2.52s5.63,3.52,6.44,3.14c-1-.56-1.91-2.38-.42-2.32,2.67.79,1.26,3.83,4.16,4.47,2.07-5.06,2.32,2.38,6.07,1.66A7.58,7.58,0,0,1,161,221c-.09,2.08,4,.62,7.07,1.78,1.23.45,1.71,2.44,2.56,2.77,3.19,1.26,3.79-1.55,1.8,1.52,3.07,1.65,2.18-3.06,4.78-2.15,1.93,2.62,4.63.48,6.11,1.34,1.27.73.69,4.95,4.48,4.16.68-3.37,4.82-1.06,8.39-4.78a5.94,5.94,0,0,1-1.82,3.94c3.8-1.29,5.59,2.07,7.58-.73,1.87.58,2.4,6.68,4.59,4-.76-.37-1.05-1.08-.67-2.25,1.38,3.58,5.77-1.59,6.18,1.05,0,2.95-4,.33-4.65,2.41q3.1.54,6.21,1c1.4-3.7-2.18-5.66-.87-7.61,1.74,2.06,1.32.12,4.09.66-2.61,3,.17,4.69-2.19,7.11l4.15.66c3.19.8-2.17-3.4,1.51-3,3.08,5.65,9.25-1.73,11.1,3.73-1.34-.33-7.49-1.21-4.3.46,3.76.9,5.94-.35,8.6-1,1.48,1.14,6.8,4,8.19,2.09-.79-.33-2-.28-2-1.3,4.09-1.3,1.57.83,5.08,1.67.36-1.24,1.23-.52,2.09.23.29-1.21.15-3,1.39-3-.12,3.7,4.15-2.19,4,1.5-.33,2-3.52.35-3.46,2.8,4.5-2.28,8.87.53,12.72-.82-.78-.31-2-.22-2-1.24,2.7-1.19,3.07,2.19,5,2.58s2.56-1.26,4.27-.69c.09,0,.76,4.21,2,1.23-.8-.3-1.14-1-.87-2.18,3.52,2.08,8.37-.76,8.12,3.81.35-3.75,6.9-.35,8.58-2.57,1.32,1.55,5.85,5.32,8.25,2.61-1.73.21-2.74-1.59-.94-2.16,4.07-1.32-.05,4.72,4,3.38.31-3.26,3.53.25,4.4-4,2.41.51,4.87.9,4,4.41,4.14-2.37,14.33.76,16.83-.49-1-1.15-3.87-.42-3.06-3.24,3.24-.69,1.93,2.95,5.17,2.23,1.81-3.25-3.78-4.39-.92-5.28,1.08,1.76,3.22-2.59,6.25.13,1.14-1,.4-3.87,3.18-3.11-1,3.39,3.37,1.54,4.13,3.21-1.26-2.94,3.39-2.89,2.08,0,2.05.33,2.08-1.41,3.14-2.09,6.2,1.35,9.8-1.08,13.52,0-.8.24-2.05.05-2.07,1.08,2.85.73,2.07-2.12,4.15-2.15,5.1-.14,8,.69,10.39-.17,1.12-.42,6.41.06,6.14-3.32-14,2.37-27,.83-39.41,3.49-.92-.95-5.8-3.11-6.21-1.16.58,0,1.17.88,0,1.06-5.27-1.4-10.91-1.73-13.6,2.8-.13-1.23.27-3-.94-3.19-3.19.09-8,1.25-10.62,4.86-1.33-1.41-4.42-.82-7.45-.52s-6,.24-7-2.36c7.23-.87,9.65,1.59,15.65-.23-3.75-1.84,4.19.41,2.21-3.07-10.08.24-21.09.35-31.86,0a240.4,240.4,0,0,1-30.35-2.69c-1.61-.25-3.73.63-5.29.44-6.4-.81-12.56-3.78-19.23-4.74-2.61-.36-6.22,0-9.36-.39-15.89-2.05-28.93-4.16-40.52-8-3.48,1.07,2,3.84-1,4.1l-3-.73c.37-1.29,1.62-1.1,1.74-2.82-2.61,1.77-4.19-1.95-6.74-2.76-1.41-.44-2.42.48-3.26.25-3.52-.92-9.64-3.14-13.86-3.88-2.92-.48-5.21-1.61-7.84-2.42-3.71-1.17-6.4-2-8.73-2.93-4.53-1.8-9.82-1.52-11.06-5.24-2.92,1.07-6.14-.79-9.26-2.71s-6.16-3.9-9.14-3.09c-3.37-4.42-7.71-5-12.64-8a21.15,21.15,0,0,1-3.16-2.66,16.94,16.94,0,0,0-2.83-2.43,9.8,9.8,0,0,0-2.91-.69,6.11,6.11,0,0,1-3-1,37.12,37.12,0,0,1-7.2-7.63c-2-2.76-3.79-5.51-5.62-7.91.31.42-1.37-1.74-1-1.38-.84-.74-2.52-.12-3.12-1a6.74,6.74,0,0,1-.09-1.35,4.88,4.88,0,0,0-.53-2.07A4.31,4.31,0,0,0,58.11,158a2.82,2.82,0,0,1-1-1.33,5.61,5.61,0,0,1,.14-2.86,12.91,12.91,0,0,0,.63-2.81,6.08,6.08,0,0,0-.66-2.77,7.2,7.2,0,0,1-.63-1.54,23.1,23.1,0,0,1,1.52-5.83,66.63,66.63,0,0,1,3-6.33c.1-.15-.39-1.61.31-2.69a4,4,0,0,1,1.8-.86,10.72,10.72,0,0,0,1-2.45,6.17,6.17,0,0,1,1.28-2.39,14.2,14.2,0,0,1,2.58-1.86,7,7,0,0,0,2.43-2.13c.87-1.22-.56-3.85,1.23-4.11.53-.27,1.91-.09,3-.21s1.89-.54,1.31-2.15c-1.08.78-2.51-1.39-.61-2.23,1.35-.77,2,1.37,2,2.44,3-3.82,7.8-4.73,11.5-7.07,3-1.9,5-5.24,8.69-6.52,4.39-1.48,7.86-4.08,12.41-6.48,1.83-1,4.8-.72,6.83-2a10.88,10.88,0,0,1,4.25-1.63,37.2,37.2,0,0,0,4.5-1c2.25-.74,2.91-2.34,5.23-3.25.72-.3,4.79-.55,6.07-1.19,4.64-2.37,7-2.8,11.5-4.1,1.78-.51,2.63-2,3.55-2.28,5-1.71,10.68,0,14.59-1.23,1.86-.58,4.08-3.5,6.32-4,2.43-.52,5.07.64,7.47.16,5.06-1.07,10-1.88,14.67-4.75-5.22.67,2.5-2.2,3.54-3,.1,1.52-1.25,2.1-1.3,3.53,4.07-.53,7.27-1,10.25-1.2,4.54-.35,8.55-3.09,12.88-3.71,2-.3,4.6,1,6.46.91,11.87-.78,24.26-3.59,36.72-4.81,2.64-.27,6.88.71,10.34-.28,4.71-1.32,8.28-.38,13.4-.49,4.85-.1,10.41-1.31,15.35-1.52,9.84-.41,18.73.13,27.25.34s16.71.11,25.24-1.48c5.72,4.46,12.89,1.23,18.54,1.64,3.47.23,6.82,1.71,10.28,2,3.3.31,6.85-2,9.21,1,.23-.81,0-2.08,1-2.1,1.58,1.54,4.77,1.44,6.11,3.22a131.56,131.56,0,0,1-30.65.12c-.85,1-5.18,3.64-6.1,1.2,0-1.4,1.77-1,2-2.16-2.58,1.23-7.09.59-8.08,3.38-4.16,1.76-6.35-1.52-7.21-1.84-2.4-.94-9.94-.94-12.3-.49-4.66.86-9.6.51-14.21,1.92-.32-4.21-3.7-.82-5.17-.7s-1.95-1-4.16-.74c-1.86.26-2.21,1.31-4,1.38-2,.06-3.64-1-5.17-.62s-2.25,3.32-3.88,2.47c-1.45-.14-1.38-2.19-2.33-3-4.85,3.55-13.89,1.92-21.34,2.29-3.25-.11-1.9,3.47-5.81,2.84.94-1.65.77-2.69-1.41-3-3.55,2.52-7.19,2.43-10.74,2.49s-7,.34-10,3.64c0-2.09-1.68-1.85-2.5-2.8-6.17,2.45-12.58,2.2-16.88,3.93-.43.19-1.65-.59-1.18-.84-1,.56-1.57,2.47-2.62,2.62-.53.07-3.46-2.53-3.58-2.53-1.51-.09-1.95,1.45-2.79,1.62-1.29.26-1.61-1-3.2-.44-.38.14-1.79,2.29-2.55,2.67.27-.13-.61-1-1.21-.82-.24.06-.65,1.13-1.77,1.44-1,.26-1.42-.82-2.19-.6-1,.27-3.8,3.22-4.19-.17-3.31,2.86-3.4,2.34-7.9,1.81-1.93,3.27-2.29,1.51-5.65,2.45-1.82.51-1.91,1.58-3.65,2l-.37-.24-.78-.54a5.6,5.6,0,0,0-1.33-.76c-2.59.31-5.31,2.62-8.47,3.36s-6.14.36-9.27.45c-1.26.4-.35,2-1.31,2.6-4.19-1.48-9.91,2.88-14.57,3.53-2.31.34-3.6-1.47-5.4-.37,2.16,2.75.66,2.72,2.68,4.64,1.2-1.54,5.95-1.14,7.15-3.52-.18.37-1.61-.61-.33-1l.4.18c.23.11.55.26.91.4a5.39,5.39,0,0,0,2.17.5c1.58-.16,3.19-1.1,4.73-1.49,1-.25,4.52-.12,5.06-.42.75-.4.43-2.17,2.28-2.86a8.63,8.63,0,0,0,1.12.25,4.73,4.73,0,0,0,2.05-.06c2.11-.67,4.15-4.36,4.13-.05a316.35,316.35,0,0,1,42-9.65c14.53-2.4,29.26-4,43.34-5.25,1.52-.13,3.44-1.56,4.9-1.72,2.45-.3,4.14.71,6.18.27,1.46-.32,1.69-1.32,3.91-1.53,4.61-.46,9.86,1,14.38.53,2.13-.23,4-1.55,6-1.64,8.47-.43,16.88.49,25.53,0,1.55-.08,3.3-1.36,5-1.37,6.05-.08,12.28,1.25,18.41,1.16,1.29,0,2-1.08,4-1.22,2.49-.15,5.58.69,8.19.79,9.55.3,19.33.29,29.49.63,1.92.06,2.25-1.14,4.07-1,.29,0,.82,1,2,1.06,8.08.34,13.32.43,18.48.6s10.25.48,18,1.45c2,.27,6,.27,7.07.36,13.09.93,25.17,3.94,36.92,6,1.22.21,1.52-.94,3.1-.74,3,.37,5.73,2.63,8.73,3.07,3.72.58,6.52-1,10.05.19,2.87.94,4.45.5,6.92.93,4.63.77,10.88,3.76,16.37,4.63.29,0,2.41-.78,4.07-.37,4.64,1.12,10.55,3.77,13.19,4.57,10.82,3.34,17.69,4,28.16,7.44,6.62,2.21,12.41,6,18.24,8.47,3.14,1.31,6.48,3.21,9.29,4.16,1.82.58,3.73.1,5.47.83a168,168,0,0,1,18.21,9.25c5.25,3,9.42,5.75,12.57,7.37a7.57,7.57,0,0,0,1.85,2.88c.62.58,1.25.8,1.65.63,1.25-.49,1.26,1.35,3.33-.22,1.44-2.57.74-4.31-.28-6.07-.24-.44-.48-.88-.7-1.33a7.34,7.34,0,0,1-.59-1.42,5.27,5.27,0,0,1,.22-3.46c2.31,3.67,5.83,4.55,8,6.74,2.39,2.42,3.16,5.59,4.61,7,.45.41,1.29-.36,1.65.29s-1,1.62-1,2.16c0-.08.36-.12.67-.12s.63,0,.69.2,0,.37,0,.56a1.33,1.33,0,0,1-.28.52,5.59,5.59,0,0,1-1.1.86,8,8,0,0,1-1.2.49c-.41.06-.65.06-.77-.09-.31-.42.18-1.65,1.73-2.5,2.72-.1,3.48.08,3.79.24a.37.37,0,0,1,.12.13l0,.07v0s0,.07.1.09a.52.52,0,0,0,.22,0,2.52,2.52,0,0,0,1.8-2.61c0-1.34-1.12-2.84-3.35-3.16.32-1.08,2.74-2.76,1.11-3.4-2.08-1.3-2.31-4.2-4.29-6.54-3-3.5-8.07-6-12.38-9.38a14.08,14.08,0,0,1-2.17-2.36,18.86,18.86,0,0,0-2.28-2.45,102.27,102.27,0,0,0-9.57-6.86c-1.76-1.15-3.59-2.17-5.23-3.09s-3.2-1.61-4.43-2.11c-3.94-1.5-1.17.92-2.33-2-.57-1.44-6.27-2.17-7.34-2.68-4.54-2.21-9.32-5.89-14.08-7.88-.94-.39-1.47.71-2.22.43-4.75-1.75-10.29-5.47-13.7-7.06a71.81,71.81,0,0,0-16.54-5c-2.92-.48-5.07-2.19-8-1.7-2-.72-1.39-3.19-3.38-3.91-4,2.37-7.22-2-10.93-3.13-1.84-.56-3.26.49-4.24.33-3-.54-5.68-3.58-8-2.39,3.09,1.39-2,1.08-3.22.54-.13-1.85,1.93-2.42.48-3.11-2.23,2.36-4.59,1.35-6.9,0s-4.55-3-6.42-2c1.54.47-.08,1.72-1.31,2-.85-1.53-.45-4-2.53-4.58-2.83,2.44-5.31-2.15-7.49,1.18-5.47-5.06-12.95-.37-17.12-6.11-.67,2.3-5.15,0-7.36.37-5.14-2.57-15.15-6.34-19.48-5.72-.8.11-1.09-1.13-1-1.12-1.37,0-3.87.88-4.25.79-1.62-.43-2.38-2.08-4.07-2.35s-3.59,1-5.29.78c-2-.24-4-1.93-6.2-2.4-10.71-2.41-23.22-1.24-31.52-2.94-3.93-.8-11.53-2.21-15.83-2.13-1.78,0-3.55,1.31-5.27,1.11-2.33-.29-2.24-1.43-4.25-2.06L373,31l-.58.16a6.59,6.59,0,0,1-1.67.24c-1.17,0-2.23-.5-1.79-2.5,5.61,3.09,12.47.65,18,.85,4.38.14,7.84,1.71,11.64,1.1,1.44-.25,9.94-1.05,10.59-.89,1,.22,1,2,3.13,2.18,2.95.21,6.27-1.5,9.53-.78,7.88,1.72,17.86,3.08,25.3,2.25-2.48-.16.56-2.86,2.24-2C449.29,33,448,33,448.18,34.75c7.24-.54,10.27.48,14.74,1,2.58.33,5.83.28,8.41.71,2.84.49,6.07,2.54,9.25,3,2.18.31,5.56-.74,7.44-.27,1.45.36,2.45,2.29,4,2.56,1.9.35,2.48-.59,4.3-.55,1.46,0,2.75,1.39,4.05,1.55,2,.28,2.44-.62,4.31-.5,1.52.11,2.63,1.47,4,1.61a133.66,133.66,0,0,1,14,2.47c5.09,1.1,10,2.29,12.78,2.8,6.08,1.13,11.88.8,17.74,2.35,2,.54,5.35,2.12,8,2.8,5.34,1.39,13.13,4.17,20.87,7s15.45,5.56,20.95,6.57c-1.91,4,4.27,2.51,4.6,2.64-.27-.08,2.68,1.81,3.56,2.37,3,1.82,5.82,2.29,8.7,3.25,1,.34.75,1.43,1.52,1.74s1.88-.56,2.3-.21c.89.71.16,2.09,2,3.12,1.69,1,2.53-.19,4.16.65,1.17.6,1.81,3,2.85,3.59,4,2.17,9.66,2,11.19,6.77A34.22,34.22,0,0,1,654,97.55a62.47,62.47,0,0,1,8.11,8.25c2.41,2.88,4.45,5.8,6.38,8.36a39,39,0,0,0,5.83,6.56,3.94,3.94,0,0,0,1.6-1.48,4.15,4.15,0,0,1,1.46-1.53,25,25,0,0,1-2.26-4.75,24.92,24.92,0,0,0-1.25-2.55,14.22,14.22,0,0,0-1.92-2.49c-.83-.78-2.49-.81-2.79-1.23-.95-1.17-.46-3-1.53-4.14-1.32-1.35-2.4-.49-3.72-1.66-1.79-1.65-3.21-4.64-5.25-6.38a42.81,42.81,0,0,0-9.23-6c-3-1.5-5.89-2.74-8.43-4.26A12.5,12.5,0,0,1,638.5,82a16,16,0,0,0-3.1-2.7c-1.07-.67-1.82.4-3.28-.32-5.39-2.69-8.85-6.13-9.93-8.74-.39-.9-1.6-1.46-1.22-2.7-4.39-2.27-9.1-3.77-13.44-5.58s-8.35-3.88-11.45-7.28c-.88,1-2.51.6-4.3,0S588,53.08,586.56,53c1.08-2.33-4.84-.69-2.27-3.88,5.88,2.71,12.31,5.18,18.44,7.45s12,4.27,16.73,5.85c5.33,1.78,10,6,15.12,8.38,1.82.87,2.68-.12,4.35.81,3.73,2.07,6.84,5.75,10.6,7.63,1.4.69,2.29-.14,4.28,1.15a70.77,70.77,0,0,1,8.4,7.29c2.68,2.41,5.35,4.57,9,5.56,2.84-2,.65-3.61,1.48-5.51-2-2.65-3.24-.52-5.16-2.46a31.94,31.94,0,0,0-4.2-6,24.15,24.15,0,0,0-4.92-4.71c-.49-.25-1.16.77-2.48-.17-1.08-.78-1.68-3.3-2.92-4s-3.06-.29-3.46-.63c-1.6-1.3-1.4-2.69-3.07-3.86-1.19-.82-2.92-1-4-1.91-1.45-1.15-2.67-3.23-4.23-4.21-1.2-.73-2.5.34-4.52-.78-1.8-1-3.47-3.24-5.38-4.46-4.66-2.82-9.85-3.43-12.49-4.58-1.5-.66-2.92-3-4.56-3.77-2.33-1.14-3.9-.2-6.63-1s-7-2.9-10.24-4.15c-13.3-5.21-28.48-11.91-42.49-15.53-1.35-.34-1.71.83-3.43.41-3-.74-6.65-1.88-9.48-2.82-4.62-1.48-12.57-2.61-18.14-4-3.32-.87-6.19-2.72-9.41-3.48-1.55-.35-2.47.74-3.39.62-2.63-.37-6.24-1.64-8.53-2.14-3.48-.78-5-.43-8.65-1C486,12.32,480.66,10,474.84,9.34c-2-.22-2.63,1.14-4.42.67-.27-.06-2.64-2.31-3.09-2.37-4.88-.64-9.56.85-14.19,0-1.4-.25-1.44-1.06-3.19-1.26-2.05-.23-2.48,1-4.41.79-.15,0-2.77-2.23-3.14-2.29-1.35-.23-3.7,1-5.49.78-3.11-.38-6-2.21-7.65.71-5.49-3.74-13.54-2.1-21.66-2.75-2.71-.19-4.47-2-7.58-2.21s-7.22,1.25-10.89,1c-3.1-.24-12.51-1.84-16.34-2-7.23-.29-13.54,1.44-18.48,1.51C349,2,343.43.46,339,.45c-4,0-7.82,2.39-11-.45-3.1,1.32-7.68,1.42-10.76,2.79-3.44-2.35-8.78-1.53-13.15,0-1.4,4.28,4.74,0,4.61,2.79A7.37,7.37,0,0,1,303.21,5c1.66,2.87-4.73,5.51-4.26,1.41.7-1.17,4.2.37,4.08-3.52-3.9-1.86-7.87-.07-12.09,0C280.15,3.2,268.81,4,260.43,6.36c-2.35-1.14-5.45-1.29-8.06-2.1-.52,1.49-2.05,2.25-4.07,2.71-6.22.23-13.06-.25-18.87.82-4.44.81-8.67,3.32-12.72,4.39-1.1.28-1.46-.74-2.38-.63-1.39.17-1.25,1.43-3.06,1.66S209,11.9,206.5,12c-.08,0-.69,1.4-2,1.47a38.79,38.79,0,0,0-8.72,1.82c-2.21.63-5.29.18-7.86.66-2.92.52-5.78,1.52-8.72,2-6.15,1.09-12.57.91-17.73,3.46-1.67.82-1.87,3.67-3.8,3.22-3.07-3.91-8.48,1.29-12.27,2.5-5.33,1.68-11.45,1.26-16,2.94a78.09,78.09,0,0,1-8.76,3.08A105.54,105.54,0,0,0,101.63,40c-6,2.76-11.37,5.68-15,7.42-3.23,1.58-7.77,2-8.33,5.4l-1.48-2.8c-5.61,1.92,2.82,1.6-.72,4-1.83,1-2-2.23-3.73-1.56,1.21,2,.17,2.76-1.35,3a25.5,25.5,0,0,1-4.24.15,8.37,8.37,0,0,1-3.25,3.59A22.32,22.32,0,0,1,61,60.68c-.92.48-1.92,1-3,1.41C56,63,53.67,64,51.4,65.11c-1.14.57-2.28,1.21-3.38,1.87a28.2,28.2,0,0,0-3.19,2.19c-1.56,1.25-1.44,2.47-3.86,4.47a49.94,49.94,0,0,1-4.36,2.89c-.76.48-1.52,1-2.23,1.51a13.6,13.6,0,0,0-2,1.92c-.63.73-1.89,2.13-3.4,4l-2.37,2.83-2.44,3C21,93.54,18.42,96.48,19.27,93c-2,2-1.92,3.21-1.84,4.32s.17,2.21-1.72,4.47c-4.21,3.67-6.63,8.08-8.77,12.91-.51,1.25-1,2.51-1.57,3.8s-1,2.73-1.59,4.15l-.85,2.2c-.28.78-.57,1.57-.87,2.38-.6,1.63-1.28,3.3-1.94,5.18C0,134,0,135.52,0,137s.19,2.92.36,4.31S.76,144,1,145.38s.55,2.66.85,4c-1,.48-1.49,1.63-1.68,3.12a16,16,0,0,0,.3,5.12,39,39,0,0,0,1.35,5.07c.51,1.46.95,2.63,1.07,3.25a99.7,99.7,0,0,0,5.92,17.85c1.07,2.44,2.07,4.75,3,6.88s1.69,4.07,2.27,5.82a6.45,6.45,0,0,0,2.54,1.89,8.58,8.58,0,0,1,2.51,1.57A115.63,115.63,0,0,0,31.45,214.1,91.37,91.37,0,0,0,44.81,225c-1.8-.61-2.23.61-1.84,1.83s1.6,2.37,3,1.59c-1.19-.88-.4-2.56,1.23-1.7.47,2.86,7,9.62,6.43,3.15-.35.74.5,2.21,1.93,3.82.72.81,1.6,1.68,2.55,2.56s2,1.67,3,2.46c4.07,3.13,8.07,5.21,7.21,3.56-2-1.31-6.36-2.32-3.62-4.4,1.52,1.17,2.73,2.08,3.8,2.8a28.92,28.92,0,0,0,2.9,1.69,58.89,58.89,0,0,0,7.09,2.75c-.32,1.85-2.89,1.57-1.37,2.83,3.13-1.64,3.61.47,8.22.36,3.28,4.29,9.64,6.44,14.75,6.2-.36,2.7,2.39,3.18,3.78,3.7,4,1.42,6.52,2,7.92,2.87.86.54,2.09-.68,2.61-.22s-.32,3,.1,3.38c.73.68,3.54-.72,4.07-.86C117.22,262.78,115.24,262.46,115.45,261.23ZM.76,134.93c.26-1.57.52-3.15.85-4.69l2.05.45c-.32,1.5-.57,3-.83,4.56Zm110.08-98c1.09-.39,1.33.87,1.87,1.53C111.64,38.84,111.39,37.59,110.84,36.92Zm94.47,32.31c-1.18-3.13,2.12-3.3,1.92-5.8,2.7-.59,2.88,2.79,5.71,2,.41,2.55-3.3.9-3.25-.41C206.07,65,209.3,69.52,205.31,69.23ZM123.37,90.91c-1.13-.43-1.68-2.42-3.1-2.09-.5-3.16,2.43.1,2.28.15,1.41-.42,3.39-2.31,5.41-3.53s4-1.82,5.39.33c-2,.7-3.93,1.43-5.67,2.24A15,15,0,0,0,123.37,90.91Zm-50.87,25c4.08,1.08-4.1.27,0,0ZM551.37,226.48c-.47-3.76,3.24-1.92,4.87-2.29C557,226.35,552.73,225.56,551.37,226.48Zm-69,47.06c-4.53,2-7.78-3.94-11,.36-3.4-4.46,10.56-4.06,15.83-5.29,1.54-.69-.62-1.26-.45-3.12,3,3.41,6.64-1.34,9.09,1.85,4.11-1.15,7.7-4.26,12.43-5.2,1.93-.39,2.46.79,4.48.29,9.17-2.29,18.92-5.41,28.26-8.14s18.26-5.08,26-5.68c1-.3.5-1.47.53-2.31,2.58,1.15,7.85-2.2,10.12-.56A27.51,27.51,0,0,1,596.06,238c1.28-3.63,3.06-2.46,8.09-3.81-.09,4.6-10.73,2.48-10.31,7.82-3-.61-5.33,1.53-8.51,2.6a9.34,9.34,0,0,1-2.87.31c-.47,0-.9,0-1.21,0l-.47,0c-2.59,1-3.65,3.14-5.84,3.82-2.36.75-5.49.45-7.73,1-4,.94-7.39,3.68-11.27,5-2.11.7-4.61-.1-6.69.48-1,.27-2.31,2.63-2.75,2.78-.83.28-2-1-3.46-.31-1.7.77-2.87,2.5-4.94,3.21a7.8,7.8,0,0,0-3.65-1.39c-4.45,3.46-11.15,4.08-17.3,4.78s-11.79,1.42-14.35,5.28c-6.42-3-13.11,1.5-19.66,1.86C481.49,271.9,484.34,273,482.34,273.54ZM92.5,250.29c.37.75-1.34.88-1.55.49C90.58,250,92.3,249.89,92.5,250.29ZM235.05,283.9c.51.61-1,1.24-1.23.92C233.32,284.2,234.78,283.58,235.05,283.9Zm-13.24-1.75c.5.62-1,1.22-1.25.9C220.06,282.42,221.54,281.82,221.81,282.15Zm-28.91-3.56c-2.81-.63-5.67-1.25-5-4.14C190.85,276.63,193.24,273.87,192.9,278.59Zm-11.09-2.1a3.14,3.14,0,0,1,3.73-1.43C185.63,277.37,183.58,276.73,181.81,276.49Zm-5.33-2.16c.47.64-1.07,1.15-1.32.81C174.7,274.48,176.24,274,176.48,274.33ZM26.8,207.45c-2.58-2.31-3.42-4.26-1.82-5.27,1.11,1.28,2.24,2.64,3.37,3.84ZM12.57,185.68c0,1.19-1.88-.69-1.88-1.33C10.7,183.18,12.56,185.06,12.57,185.68Zm-2.71-5.61c-.71,0-1.39-.81-1.74-1.77s-.37-2,.12-2.2C10,176.44,8.79,178,9.86,180.07ZM305.62,288.66c-.26,1.19-1.13.54-1.1-.05C304.79,287.43,305.65,288.08,305.62,288.66Zm-20.9-1.15c.54.58-.87,1.29-1.16,1C283,287.9,284.44,287.2,284.72,287.51Zm-35.22-3c.51.59-.94,1.25-1.21.93C247.77,284.83,249.23,284.18,249.5,284.5Zm-116-22c.42.69-1.19,1.05-1.41.69C131.67,262.52,133.28,262.17,133.5,262.53Zm-32.33-11c.38.73-1.3.93-1.5.53C99.29,251.34,101,251.15,101.17,251.55ZM309,287.74c.55.57-.84,1.31-1.13,1C307.28,288.19,308.67,287.44,309,287.74Zm-67-5.14c2.63,3.52-3-3.23,0,0Zm-59.49-9.21c-.23,1-1.51.53-2.42.58C180.25,273,181.53,273.45,182.43,273.39Zm-33.13-7.56c.44.68-1.15,1.09-1.38.73C147.49,265.88,149.07,265.47,149.3,265.83ZM146,265c-2.61.52-2.65.47-.83-1.32C147.58,263.7,146.44,268.23,146,265Zm-24.38-7.22c.4.7-1.23,1-1.45.63C119.75,257.66,121.38,257.35,121.6,257.73Zm-42.46-17c-.48.9-1.75,0-2.73-.18C76.9,239.66,78.16,240.52,79.14,240.74ZM51.91,224.91c-.89.84-1.49-.34-1.14-.81A.7.7,0,0,1,51.91,224.91ZM38.19,214.16c-1.53.7-.94-1-2.28-2C37.09,211.41,38.87,213.36,38.19,214.16ZM278.28,285c.53.59-.9,1.28-1.18,1C276.58,285.33,278,284.64,278.28,285ZM264,283.8c.52.6-.91,1.26-1.19.94C262.29,284.15,263.72,283.48,264,283.8Zm-4.39-.41c-3.92,2.18,3-3.27,0,0Zm-4.39-.42c.51.6-.93,1.25-1.21.93C253.5,283.3,254.94,282.65,255.22,283Zm-3.41.7c-2.34.21-2.83-1-4.28-1.5C247.38,280.3,253.87,280.94,251.81,283.67Zm-12-2.37c.51.61-1,1.24-1.21.91C238.11,281.6,239.56,281,239.83,281.3ZM102.67,251c.94-1.62,2.77-1.5,5.19-.27C107.89,254.12,104.73,251.53,102.67,251Zm-.73-1.4c-.76,1.13-2.61.09-2.23-.9C100.94,248.49,102.17,248.31,101.94,249.59Zm-67.57-40.4a.79.79,0,0,1-1.12-1.09A.79.79,0,0,1,34.37,209.19Zm-18-21c-.65-1.08-1.28-2.3-1.9-3.46l1.86-1c.61,1.13,1.21,2.32,1.86,3.38ZM9.16,168.94c-.62-.05-1.19-.76-1.67-1.83a17,17,0,0,1-1-4.07c-.11-.76-.2-1.52-.24-2.26s0-1.46,0-2.1A10.79,10.79,0,0,1,6.55,156c1.17-.47,1.65,1.07,2.13,2.71s1,3.33,2,3.25a2.85,2.85,0,0,1-1.09,3.18C8.91,165.8,8.3,166.59,9.16,168.94ZM6.1,147c-.57,1.17-1.33-1.67-1-2.3C5.67,143.59,6.39,146.41,6.1,147ZM9,123c.38-1.78.91-2.66,1.5-3a2.43,2.43,0,0,1,1.87-.15c-.81,1.51-.3,1.89.28,2.22C11.76,124.26,10.32,123.09,9,123ZM416.27,284.33c0,1-1.29.91-2.12,1.19C414.11,284.5,415.43,284.63,416.27,284.33Zm-14.16,1.86c-2.17.47-3.44,0-3.38-1.93l3.28-.17C402,284.79,402.08,285.5,402.11,286.19Zm-83.23.85c-1.78.24-1.85-1.05-3.25-1.15C315.26,283.83,320.66,284.51,318.88,287Zm-33.95-2.68c.24,1.87-6.27,1.46-4.3-1.35C282.94,282.72,283.47,283.92,284.93,284.36Zm-262.62-89c-2.4-2.76-3-4.83-1.32-5.67,1,1.56,2,3,3,4.43ZM15.4,182c-1.25.22-1.38-1.57-.85-1.79C15.78,180,15.92,181.77,15.4,182Zm-1.68-3.62c-.07,1.18-1.83-.79-1.78-1.45s.5-.36.94.07A2.7,2.7,0,0,1,13.72,178.38ZM8,136.06a16.18,16.18,0,0,1-.4-3.7,11.81,11.81,0,0,1,.41-2.89c.45-1.63,1.15-2.62,1.66-2.83s.84.36.64,1.84A45.44,45.44,0,0,1,8,136.06ZM31.69,88.13c1.84,1.1.61,2.77-1.3,4.85-1,1-2.09,2.1-3.1,3.25A14.27,14.27,0,0,0,25,99.44c-.48-2.3.3-3.6,1.63-5.18.67-.8,1.48-1.54,2.35-2.54A30.9,30.9,0,0,0,31.69,88.13ZM40,81.46c.32.68-.21,1.45-1,2.25s-1.85,1.74-2.58,2.59C35,84.29,37.63,81.69,40,81.46Zm8.72-7.3a.69.69,0,0,1,1.09-.85C50.32,74.43,49.06,74.63,48.71,74.16ZM425,283.73c-2.84-1.31-4.46-2.24-7.72-.52-.26-1.88,1.19-2.3.82-4.28a6.18,6.18,0,0,0,4.42.76C419.22,283.25,425.8,279.85,425,283.73Zm-75.44,2.73c.15-3,4.55-1.91,7.65-2.13C358.12,288.33,352.05,285.7,349.57,286.46Zm-1.09-1c.56.55-.8,1.35-1.1,1C346.82,285.92,348.18,285.12,348.48,285.41Zm-18.58-1.25c3.24,1.52,6.68,1.36,7.67-2,1.95.79.14,1.91,0,3.15,1.92-.58,6.42,1.32,6.57-1,3,2.17-3,2-6.59,2.05C334.55,286.39,328.7,287.31,329.9,284.16Zm-3.3,1c-3.41,3.82-3.6-3.28,0,0Zm-12-.34c-.06,1-1.36.78-2.22,1C312.4,284.76,313.71,285,314.56,284.8Zm-11,.61-2.19-.11a4.82,4.82,0,0,0,1.24-3.1C304.86,282.91,304.86,284,303.57,285.41Zm-38.28-3.62c.52.6-.91,1.29-1.2,1C263.58,282.16,265,281.48,265.29,281.79ZM16.54,113.12c-.45-.26-.37-.89-.12-1.61s.69-1.52.94-2.21C18.23,109.87,17,111.63,16.54,113.12Zm3.56-6.46c-1,.5-.46-1.81,0-2.07C21.1,104.11,20.6,106.4,20.1,106.66Zm1.9-3c-1,.47-.42-1.84.11-2C23.06,101.22,22.5,103.38,22,103.66ZM65.11,62.83C67.17,61,68.38,61.66,70,61.1c.64.71-.63,2-2,2.69S65,64.61,65.11,62.83ZM436.94,281.72c-2.51,1.89-3-1.7-3.44-1.82s-4.62,1.28-8.72.68c4-5.7,11-.81,14.88-5.43,1.45.24,1.87,1.69,3.45,1.79,3.66-3.41,10.42-2.81,14-2.45,3.32-.49,8.88-6.1,9.88-.07-3.51,2.27-10-.68-12.81,3.55-4.45-3.78-12.22,2.55-17.52.61Zm-60.05,3.33c3.11-5,13.84-2.2,18.42-3.8,4.21,1.61-2.28,1.83-2,3.25a78.35,78.35,0,0,0-7.91-.18C383.3,284.42,381.14,284.69,376.89,285.05Zm-4.4-.94c-.08,2.33-4.63.54-6.52,1.17C366.86,283.25,370.69,282.35,372.49,284.11Zm-7.63.14c-.26,1.33-2.17,1.09-2.19,0C363.13,282.74,363.63,284.38,364.86,284.25Zm-110.43-4.54c-.32,1.17-1.15.47-1.09-.11C253.67,278.43,254.5,279.13,254.43,279.71ZM201.69,16.2c-.85-1.92,4.64-2.53,3.46.35L203,17C203,16.09,202.36,16.11,201.69,16.2Zm27.18-5.11c-.66-.45.56-1.47.91-1.22C230.43,10.31,229.22,11.33,228.87,11.09Zm183.92,270.3c0,.05.07,1,.07,1-4-.29,1.67-3.54,3.14-2.29C416.83,280.84,413.32,281.33,412.79,281.39Zm-2.17.13c-.2,1.33-2.12,1.18-2.18.13C408.83,280.09,409.39,281.69,410.62,281.52Zm-5.45.31c.58.51-.72,1.38-1,1.1C403.54,282.42,404.85,281.55,405.17,281.83ZM307,282.4c.54.57-.84,1.31-1.13,1C305.31,282.84,306.71,282.1,307,282.4ZM25.72,192.88c-2-.11-1.68-.76-.67-.75a3.21,3.21,0,0,1,1.82.58,4.31,4.31,0,0,1,1.71,2.2C29.81,197.77,27.06,194.86,25.72,192.88ZM138,33.91c-.28-1,1.08-1.22,1.85-1.69C140.13,33.19,138.77,33.41,138,33.91ZM241.93,9c.39,4.64-5.84.33-6.21,3.09C231.26,10.12,239.51,9.23,241.93,9Zm3.26-.49c3.08.48-.23,4.74-1.86,2.39C243.43,9.72,245.38,9.87,245.19,8.5Zm11.64,269.35c.51.6-.92,1.25-1.2.93C255.12,278.18,256.56,277.52,256.83,277.85Zm-47-6c.48.63-1,1.2-1.26.87C208.13,272.09,209.62,271.52,209.87,271.86ZM24.6,189.44c-.43.26-.91,0-1.38-.59s-.94-1.3-1.41-1.83C22.71,186.51,23.64,188.5,24.6,189.44Zm-3.71-6.06c0,1.11-1.81-.53-1.8-1.14C19.13,181.15,20.91,182.8,20.89,183.38Zm-2.53-5c-1.25.18-1.33-1.51-.79-1.73C18.82,176.54,18.88,178.17,18.36,178.42Zm-7.91-35.61c.38-2.45,2.07-1.59,3.33-1.8,0,3.25-1.25,3.41-1.37,6.06C11.26,146.55,11.78,142.93,10.45,142.81Zm12.37-36.53c1.53-1.1,3-.23,4.57-3a4.87,4.87,0,0,1-.19,2.91,20.32,20.32,0,0,1-1.7,3.75C23.77,109.15,24.7,107,22.82,106.28Zm-3.3,10.34c-1.57,0-.49-1.93.67-3.72s2.36-3.47.81-3.63c1.15-.84,1.85-.86,2.17-.53s.28,1.08,0,2a12.55,12.55,0,0,1-1.43,3.08A10.76,10.76,0,0,1,19.52,116.62ZM229.22,13.16c-.66-.45.56-1.45.91-1.22C230.78,12.39,229.57,13.4,229.22,13.16Zm18.45-2.91c-.51-2.23,3.79-1,5.28-1.82C254.14,12.6,248.78,12.61,247.67,10.25Zm6.38-2c2,.71,5.83-.83,5.84,2.39C258,9.15,255.11,12.71,254.05,8.28Zm42.53-3.82c1,5.12-6.93,3.57-8.6,1.89-3.41-.44-1.78,3.09-5.2,2.65-4.56-2.55-9.49.68-13.26-.6C276.61,4,288,6.54,296.58,4.46ZM242.76,275.28c.49.61-.95,1.25-1.22.93C241,275.59,242.49,275,242.76,275.28Zm-10.91-1.34c-.44,1.28-2.31.78-2.18-.28C230.35,272.21,230.61,273.89,231.85,273.94Zm-19.63-2.78c-.39,1.17-1.19.41-1.1-.17C211.52,269.85,212.32,270.6,212.22,271.16ZM16,125.32c-.94-3.46.5-4.63,1.32-4.38.43.12.73.61.61,1.34a3.68,3.68,0,0,1-.55,1.3A8.88,8.88,0,0,1,16,125.32ZM28.34,102c-.8-1.52.93-1.08,1.95-2.53C31.07,100.54,29.2,102.51,28.34,102ZM46.67,82.61c-.64-.81.76-1.72,1.42-2.58C48.72,80.84,47.33,81.73,46.67,82.61ZM261.93,9.35c-.16-2.32,4.54-1,6.38-1.87C267.85,11.31,265.66,7.93,261.93,9.35Zm55.55-3.41c.15-2.17,4-1.25,4.13-3.44,4.3,3,10.4,2.55,15.29.17,5.44,2.11,14.5,1.68,24,2.23,2.67-.2,1.87,1.24,0,1-6.42,1.94-11.67.88-16.65,0s-9.67-1.49-14.77,1.31C324.19,7,322.9,3.36,317.48,5.94ZM281,277.77c.52.58-.89,1.28-1.17,1C279.31,278.16,280.72,277.46,281,277.77Zm-25.94-4.34A7.27,7.27,0,0,0,260.4,275C260,278.13,253.63,277.18,255.06,273.43Zm-69.9-8.08c.46.63-1,1.16-1.29.81C183.41,265.53,184.92,265,185.16,265.35Zm-65.3-17.07c-4.23,1.58,4-2,0,0ZM70.55,66.89c-.41-1.15.78-1.14,1.07-.64,1-.36.79-.93.53-1.52C76.09,64,72.58,68.13,70.55,66.89Zm245.7-63c-.62,1.45-2.18,2.13-4.19,2.42C310.72,3.27,314.34,4.3,316.25,3.92ZM263.66,275.31c-.12,1-1.4.69-2.27.85C261.52,275.13,262.8,275.47,263.66,275.31Zm-10.88-1.05c.51.59-.92,1.25-1.19.93C251.08,274.59,252.52,273.93,252.78,274.26Zm-7.61-.83c-.42,1.29-2.28.81-2.17-.24C244,272.65,245.09,272.14,245.17,273.43ZM231,271.72c2-1.78,7.41.53,7.61.95C239.46,274.42,233.44,272.65,231,271.72Zm-43.5-7c.47.64-1,1.17-1.29.83C185.79,264.91,187.29,264.39,187.53,264.73Zm-10.86-2.19c.46.65-1.07,1.14-1.31.79C174.92,262.68,176.43,262.18,176.67,262.54Zm-3.26-.71c.44.66-1.07,1.14-1.31.8C171.65,262,173.17,261.48,173.41,261.83Zm-5.43-1.2c.44.65-1.09,1.12-1.32.78C166.22,260.74,167.75,260.27,168,260.63Zm-28.53-6.22c3.26-2.42,6.64,3.13,0,0Zm-3-2c-.53,1.13-2.25.27-3.57.05C133.45,251.36,135.16,252.22,136.49,252.44Zm-7.6-2.31c-.56,1.12-2.26.23-3.59,0C125.86,249,127.56,249.9,128.89,250.13ZM118,246.54c.37.7-1.23,1-1.45.62C116.22,246.44,117.83,246.15,118,246.54Zm-15.9-7.08a5.84,5.84,0,0,1,3.63.33c-.25,2.41-2.61.56-3.33,2.07-.21-1.87-2.85-2.84-1.65-5.22C101.56,237.46,102.36,238.28,102.14,239.46ZM21.42,117.52c-.94-.81.25-1.86.76-1.59A.91.91,0,0,1,21.42,117.52ZM82.76,61.23c-.56,2.77-5.06,3-5.3,2.88S81,60.37,82.76,61.23ZM87,59c-.22-1.6,1-.37,2.13-1.06C89.45,59.3,87.5,60,87,59ZM218.14,268.86c.48.63-1,1.21-1.25.88C216.42,269.12,217.88,268.53,218.14,268.86ZM166,259.1c.44.66-1.09,1.13-1.32.78C164.28,259.22,165.81,258.75,166,259.1ZM85.93,232.34c-5,1.91-2.22-4.64,0,0ZM109,241c.36.72-1.26,1-1.45.57C107.19,240.88,108.82,240.63,109,241ZM38.92,200.34l-2-2.15,1.55-1.42c.67.7,1.34,1.4,2,2.11ZM270,12.58c-.62-.48.62-1.43,1-1.18C271.61,11.87,270.36,12.83,270,12.58Zm4.33-.52c.06-1.21,1-.71,1.08-.13C275.36,13.14,274.42,12.64,274.36,12.06Zm32.44-3.2c-.6-.49.68-1.41,1-1.13C308.4,8.22,307.13,9.13,306.8,8.86Zm58.48-3c5.75-2.57,16.25-.66,23.85-1.32-1.29,2.38-6.4,2-9.75,2.15C374.6,6.79,369.21,6,365.28,5.84ZM440,9c1.18,3.14-2.37.69-4.38.84-3.58.25-10,1.92-12.95-1.58-2.68-.24-5.24-.36-5.47,1.93-7.58-3.7-18.85-2-23.74-3.54-2.15-1-2.15-3.55,0-1C409.63,5.75,424.56,7.45,440,9ZM370.16,276.79c-1.74.33-1.88-1-3.26-1C366.43,273.75,371.79,274.17,370.16,276.79ZM355,275.93c-2,2.67-3.79-1-6.49,1.06C347.49,273.12,354.19,275.07,355,275.93Zm-33.58-.39c-.06,1-1.35.77-2.2,1C319.26,275.5,320.55,275.75,321.4,275.54Zm-6.47-1.26c-2.77-1.68-11.45,5.49-12.94-1.6,4.63,3.07,5.89-1.78,9.74.43-.67-1.1-2.45-1.19-2-3.25-2.66-1-9.39,1.63-8.52-2.49,3.33,1.17,8,.19,12.11-.08s7.81.12,9.32,4.07c1.47-.29,1-2.61,1.19-4.18a6.14,6.14,0,0,0,4.27,1.15c-.05,1-1.34.79-2.17,1,0,3.74,3.61-2.15,3.2,1.13,1.51-1-.42-1.74,2.22-3.11,4.61,0,8.17-2.26,10.74,1.19-.15,2.32-4.57.41-6.47,1,4.51,3.87,9.85-2.91,14,.1,2.09-.1-2.26-4.51,3.23-3.16,1.19,1.29.93,2.16-1.08,2.1,2.16.84,7.45,1.87,8.58-2.15,1.92.74.17,1.91,0,3.15,2.25-.95,4.75-1.69,6.4-3.24,5-1.61,10.27,3.28,11.76-1.31,2,1,6.72,3.8,7.5-.24,4.43,2.7,12-.43,18.26.24,4.63.47,8.42-1.27,12.79-1.83,2.48-.32,4.53.15,7.49-.53,3.38-.75,6.7,2.16,7.31-2.68.11,2.51,3.33,2.52,7.19,1.82s8.35-2.14,11-2.44c9.12-1,17.28.42,24.78-.75,4.18-1.29-.57-4.9,1.31-6.54,7.59-5.07,17.59-.93,23.82-6.7,1.53,3.51,5.2.57,9.64-.56,3.8-.93,8.15-.23,10.71-.87,2.18-.57,1.74-2.2,2.75-2.68,0,0,4.16-.76,5.24-1,2.61-.66,5.69,0,8.57-.72,4.75-1.07,9.36-3.55,14.37-4.33,1.6-.25,2.13.59,3.37.27,1.62-.42,1.58-1.56,2.86-1.8.85-.16,1.35.92,2.34.5,2.25-.95,3.45-3,5.69-3.65,4-1.24,8.3-.88,12.65-2.43,5.4-2,11.58-3.67,18.46-5.77,2.58-.8,6.31-3.17,7.79-3.82.78-.34,1.38.7,2.38.26,12.82-5.7,23.66-10.71,34.91-14.92.46,1.47-2.76,1.79-2,3.36-5.15,1.43-9.36,4.11-13.71,7s-8.83,6.09-14.31,8.36c-1.63.69-2.2-.4-3.44.14-4.45,2-8.56,5.11-12.71,6.62a7,7,0,0,1-3.44,0c-3.12,1.42-7.47,7.17-10.81,5.52-2.41-1.21-1.27.81-3.89,2.22-2.14,1.15-3-.27-4.47.16-7.51,2.2-18.61,7.64-25.56,9.68-5.43,1.63-11.71,2.08-17,3.65-2.86.85-5.47,3.07-8.11,3.74s-6.35.67-9.6,1.75c-4.69,1.59-10.12,2-14.79,3.53-1.72.55-2-.81-3.37-.54-4.89.95-9.1,4-13.77,3.05-2.11,1.87,1.57,2.78-1.58,4.47-3.32-.26.73-2.37-.56-4.17-6.23,1.7-12.92,2.47-18.13,3.28-2.36.36-5.37-.48-7.63-.23-1.75.2-1.72,1.12-3.12,1.38-1.73.32-2-1-3.33-.73-.25.05-1,1.17-2.05,1.25l-16.14,1.4c-2.3.17-4.53-.73-6.54-.57-8.89.73-17.87,3.18-26.81,3.65-6.68.33-12.82-.94-19.44-.39-4.73.42-7.81,1.72-12.92,1.3s-8.66,1.63-14,.08c-2.51.74-4.57.81-7.59,3.12-5.38-6.66-12.42-.71-22.7-2.57a5.45,5.45,0,0,0-3.35,3.05C310.35,276.08,314.66,275.68,314.93,274.28Zm43.25-5.75-2.16,0c0-.7,0-1.4,0-2.1l2.15,0C358.17,267.13,358.17,267.83,358.18,268.53ZM95.42,234.36c-2,0-.54-1,.42-1,1.72,0,2.12,1.67.66,1.43C96.16,234.77,95.75,234.37,95.42,234.36ZM76.15,225c.29.78-1.43.75-1.58.33C74.27,224.53,76,224.57,76.15,225Zm-12.29-6c-1.07-.65-2.14-1.4-3.21-2.1s-2.12-1.43-3.19-2.2c.6-1.92,1.85-1.45,3.26-.46s3,2.59,4.27,3Zm-9-7.46c.22.85-1.58.5-1.69,0C53,210.69,54.8,211,54.91,211.5ZM37.44,195.67c-1.09.62-2.48-1.47-3.75-2.77C34.8,192.35,36.15,194.43,37.44,195.67Zm-6.68-8.43c0,1-1.78-.19-1.78-.73C29,185.53,30.76,186.71,30.76,187.24ZM18.31,162.36a5.71,5.71,0,0,1,1.32,1.21,9.75,9.75,0,0,1,1.21,1.75,18.9,18.9,0,0,1,1.08,2.33c.36.86.73,1.79,1.07,2.84-1.32,1.49-2.21.33-2.94-1.63-.35-1-.62-2.22-.9-3.37-.14-.58-.27-1.15-.42-1.67A12.38,12.38,0,0,0,18.31,162.36ZM16.62,147.1c0-1.29,0-2.58.13-3.87l2.1.14c-.11,1.25-.09,2.5-.12,3.75ZM18,141.42c-.63.92-1.21-1.52-.85-2C17.76,138.48,18.31,140.94,18,141.42Zm1.5-13a2.84,2.84,0,0,1,1.18,2.68,10.9,10.9,0,0,1-.24,2.2c-.07.42-.17.85-.29,1.3s-.21,1-.33,1.47c-1.72.64-2-.47-1.78-2.18S19.09,129.94,19.47,128.38Zm11.32-20.8c-.82-.91.42-1.6.88-1.25A.77.77,0,0,1,30.79,107.58ZM43.33,91.31c.51.93-.31,2-.84,3s-.75,2.13.89,2.86c-1.64,1.79-5.31,3.21-7.21,4.94a9.64,9.64,0,0,0-1.65,3.08c-.41.87-.87,1.24-2-.17a17.34,17.34,0,0,1,2.25-4.33,28.55,28.55,0,0,1,2.89-3.33A41.45,41.45,0,0,0,43.33,91.31Zm6.06-5.5c2.31-.93,1.38,1.34,2,2.4.82.83,1.94,0,3.13-1.09a17.09,17.09,0,0,1,3.53-2.93c.47,2.9-1.35,4.23-3.68,5a17.26,17.26,0,0,1-3.66.7,17.16,17.16,0,0,1-3,.11c-1.08-1.49-.38-2.09.44-2.55S50,86.78,49.39,85.81Zm3.74-1.73c-.56-1.09.66-1.26,1-.8C54.69,84.37,53.49,84.53,53.13,84.08Zm2.42-3.24c2.36-2.73,3.32.14,5.36-1.34C62.22,80.25,56.14,83.57,55.55,80.84Zm9.33-6.62c2.53,0,1.54,1.37.43,2.08S62.91,77.06,64.88,74.22Zm93.53-38.81c-1.63,4.06-5.92-1.35,0,0Zm27.82-7.19c-.68-.4.47-1.51.83-1.28C187.74,27.34,186.59,28.43,186.23,28.22Zm4.28-1c-.67-.4.48-1.49.85-1.27C192,26.37,190.88,27.45,190.51,27.23Zm195.82,247c0,1-1.28.86-2.12,1.13C384.21,274.34,385.51,274.49,386.33,274.23Zm-3.24.11c-.33,3.62-6-1.41-5.37,1.21C373.41,273.23,382.47,272.51,383.09,274.34Zm-10.78,1.35a3,3,0,0,1,3.19-2.19C376.07,275.74,374,275.55,372.31,275.69Zm-13-.85c.56.54-.77,1.35-1.07,1.06C357.67,275.36,359,274.55,359.31,274.84Zm-29.22-.14c0,1-1.34.78-2.19,1C328,274.68,329.25,274.91,330.09,274.7Zm-62.62-5.39c-1.12,4.24-2,2.71,0,0ZM265,272.26c-2.2-1.15-4.67-2.07-6.2-3.74.38-2.67,3.82-1.75,6.67-1.5.24,1.82-1,1.9-2.35,1.9C263.76,270.05,265.54,270.24,265,272.26Zm-9.65-2c-.39,1.28-2.25.83-2.17-.22C254.25,269.52,255.28,269,255.38,270.29Zm-5.41-.56c.51.61-.92,1.25-1.19.93C248.28,270.05,249.7,269.41,250,269.73ZM239,269.54c0-2.79,4.29-.31,3.74-3.79,2.65-.36,7.68,2.19,8.74-.09,3.34,3.56-4.69,3.43-6.7,1.38C242,266.81,243.14,271.4,239,269.54Zm-11.49-4.65c.35,1,.7,2,1.88,2.37-2.47,3.53-2.74-2.25-5.26-1.79.83-3.58,2.9.5,3.53-1.62C228.87,264.21,228.13,265,227.53,264.89Zm-40.28-4.5c4.71-2.83,4.95,3.88,0,0Zm-8.85-.71c-2.92-.3-2.32-2.75-2.35-4.81-3.78-.92-8.82-1.21-7.87-5,2.35,2.74,9.76,2.36,12.38,4.88C176.85,256.5,177.22,255.82,178.4,259.68Zm-13.8-4.16c-.83,1.38-.92-.32-2.16-.51C163,253.78,164.83,254.49,164.6,255.52Zm-16.44-3.06-2.15-.58c.09-2.3,2.06-1.52,3.78-1.17C149.36,251.48,148.43,251.44,148.16,252.46Zm-124.31-130c-.46-.22-.45-.79-.28-1.48s.54-1.43.71-2.08C25.18,119.35,24.12,121.05,23.85,122.42Zm5.25-10.29c-.9.41-.54-1.69-.05-1.9C29.94,109.84,29.57,111.91,29.1,112.13Zm39-37.5c-.83-.11,0-1.62.47-1.56C69.4,73.19,68.55,74.69,68.1,74.63ZM89.48,61.34l2.09-1.05c1.48,1.77-.6,2.54-2.2,3.45C89.19,62.87,90,62.27,89.48,61.34Zm4.2-2.07,2.1-1,.9,1.9-2.09,1C94.29,60.54,94,59.9,93.68,59.27Zm7.38-3.41c3.8-2.82,4.42,1.47,8.2-1.26.84,4.31-5.35,2.94-7.34,3.18-.91.1-1.7,3-2.53,0C100.68,57.37,101.16,56.71,101.06,55.86ZM135.3,43.68c-.72-.33.34-1.54.72-1.36C136.75,42.66,135.69,43.85,135.3,43.68ZM164,34.93c-.69-.37.43-1.51.8-1.3C165.51,34,164.4,35.13,164,34.93Zm43.87-10.34c0-1.21,1-.79,1.08-.21C209,25.59,208,25.16,207.89,24.59ZM361,8.05c.17-1.19,1.07-.61,1.08,0C361.92,9.23,361,8.64,361,8.05Zm62.07,264.21-2.16.15c-.05-.7-.09-1.4-.14-2.1l2.15-.15Zm-6.55-.61c.6.52-.69,1.4-1,1.13C414.93,272.27,416.22,271.38,416.53,271.65ZM391.7,273c0,1-1.29.88-2.11,1.15C389.57,273.1,390.87,273.25,391.7,273Zm-112.5-.62-5.42-.4c-.82-3.61,3.5-1.38,5.58-1.7C279.3,271,279.25,271.65,279.2,272.35Zm-10.83-.86c.42-1.82,2.06-2.23,4.5-1.73C273.71,273,270.31,271.41,268.37,271.49Zm-30.3-3.13c-2.37-1.05-5.41-1.62-7.3-3.05C232.34,263.32,238.75,265.57,238.07,268.36Zm-26.72-5.86c3.3.31-4.06,3.44-5.73,1.21C204.64,262.41,210.87,263.63,211.35,262.5Zm-7.71-.2c.09,2.08-5.18.68-3.06-1.59l2.16.37C202.38,261.93,203,262.13,203.64,262.3Zm-20.49-3.8c0,2.08-5.23.5-3-1.69l2.15.44C181.9,258.09,182.51,258.31,183.15,258.5Zm-8.62-1.81c-.46,1.13-1.2.34-1.08-.24C173.91,255.34,174.65,256.12,174.53,256.69Zm-5.38-1.2c.43.67-1.08,1.14-1.32.78C167.4,255.61,168.92,255.14,169.15,255.49ZM38.7,190.7c4.18.74,7.55,5.7,11.07,8.4,2.49,2,4.35,3.47,6.4,5.18L59.5,207c1.23.92,2.61,2,4.25,3.1,2,1.33,3.7,2.37,5.5,3.41s3.63,2.15,5.78,3.66c6,4.1,12.21,5.24,16,7.16a129.38,129.38,0,0,0,15.68,6.81c6.39,2.21,12.46,5.93,18.62,7.93,6.6,2.13,11.55,2.49,18,5.56.37.16,3.24-1.23,1.84,1.61,1.24.08,1.29-1.81,2.7-1.43,5.29,4.14,13,2.73,15.71,5.11-3,5.42-9.58-.34-14.41-1.49-4-.91-11-.91-14.51-1.95-.8-.25-3.1-1-4.28-1.34-.89-.22-.71-1.46-1.82-1.68s-1.39,1.84-2.8,1.31c.3-2.42-7.43-3.55-13.58-5.85-2.3-.89-5.1-1.77-7.48-2.89-2.85-1.31-7.21-3-12.27-5.16a139.09,139.09,0,0,1-16.43-8.28c-4.89-2.94-9-7.59-13.53-10.75a18,18,0,0,0-4.8-2.19,18.25,18.25,0,0,1-4.69-2.18,28.82,28.82,0,0,1-3.4-3.23c-.64-.71-1.31-1.49-2-2.28s-1.36-1.63-2-2.5C43,196.06,40.44,192.35,38.7,190.7ZM75.88,71.09c-.49-.91.86-1.45,1.55-2.13C77.91,69.86,76.57,70.41,75.88,71.09Zm46-21.5c-1.31,2.45-2.9,2.28-3.37,1.6S118.71,49.24,121.9,49.59Zm39.21-12.76c-.69-.39.41-1.52.79-1.31C162.59,35.89,161.49,37,161.11,36.83Zm16-4.23c-.69-.4.45-1.51.81-1.29C178.59,31.7,177.46,32.81,177.1,32.6Zm5.09-2.34c6.48-.43-.29,7.29-3.52,4.11C177.67,31.73,184.87,33.87,182.19,30.26Zm12.85-3c.18,1-1.14,1.08-1.92,1.5,0,.92.63.88,1.3.78.39.83-.21,1.07-.84,1.27-1.73.79-2.2-.34-2.6-1.56C192.93,29,193,27.51,195,27.3ZM451,267.72c.6.49-.65,1.41-1,1.16C449.36,268.39,450.62,267.46,451,267.72Zm-228.81-3.59c.48.62-1,1.22-1.23.89C220.43,264.4,221.88,263.8,222.14,264.13Zm-5.4-.8c0,.06-.15,1-.15,1-3.83-1.1,2.37-3.12,3.54-1.59C220.8,263.65,217.28,263.38,216.74,263.33Zm-2.15-.32c-.39,1.15-1.17.41-1.08-.16C213.9,261.7,214.68,262.43,214.59,263ZM123.32,50.18c-.26-1.22,1.61-1.57,2.8-2.16C126.37,49.23,124.5,49.55,123.32,50.18Zm7.73-1.7c-3.79.1,0-3.2,2.47-3.07,4.61-1.61.76,1.65-1.77,1.72C130.78,47.25,130.9,47.86,131.05,48.48Zm19.74-7.54c-1.34.19-7.53,1.54-2.43-.37C151.35,39.5,154.58,40.34,150.79,40.94Zm3.94-2.28c2.5-.74,3.63.83,6.67-.82C161.1,40.51,156,41.93,154.73,38.66Zm34.11-8.89a3,3,0,0,1-2.72,2.8A3,3,0,0,1,188.84,29.77Zm10.7-2.37c.18,1-1.14,1.08-1.92,1.49,0,.92.62.88,1.29.8.18,1-1.13,1.08-1.91,1.49,0-.92-.63-.88-1.29-.8C196.11,28.85,197.57,28,199.54,27.4Zm3.21-.68,2.14-.43.42,2.05-2.13.44C203,28.1,202.89,27.41,202.75,26.72Zm47.37-7.25c-3.54,3-5,1.85-9.34,3.54C241.31,19,245.9,19.89,250.12,19.47Zm98-8.88c0-1,1.29-.88,2.11-1.14C350.25,10.48,349,10.32,348.12,10.59Zm27-.72c.2-1.2,1.08-.6,1.08,0C376,11.05,375.1,10.46,375.09,9.87ZM441,11.14c.24-1.23,2-.77,3.3-.87C444,11.49,442.26,11,441,11.14Zm5.4.31c-.53-.58.86-1.29,1.14-1C448.05,11,446.66,11.76,446.38,11.45Zm2.16.12c18.13.15,37.12,2.16,59.25,6.71,2.92.59,5.44,2.65,8.32,3.27,1.63.35,3.62-.5,5.53-.25,4.72.62,9.93,3.33,14.68,4.51,11.47,2.83,22.4,5.35,33.72,8.92,6.59,2.08,13.5,3.75,19.87,6.09.78.3,2.53.36,3.16.89a23.53,23.53,0,0,1,.48,2.32c1.44.66,4-.17,5.54.52,3.62,1.64,7.21,3.85,10.87,5.62,8.23,4,16.33,8.12,24.57,12.58-1.12,1.36-2.26,1.07-3.49.33s-2.57-1.88-4-2.26a20.5,20.5,0,0,0-7.85-.75c-4.44-4.37-11.22-7.54-18.22-10S586.72,45.85,581.19,44c-4.36-1.5-11-4.53-17.37-6.33-.84-.23-1.31.95-2.33.58-1.67-.61-4.06-2.9-5.91-3.41-2.31-.63-5.27-.09-7.61-.44a77.14,77.14,0,0,1-17.68-5.31c-1.5-.62-3.21-1.27-5.17-1.89-.09,0-2.16,1.32-3.36.54-.27-.17-.59-2.18-.75-2.23-.65-.25-2,1-3.36.55a325,325,0,0,0-33.88-8.14C471.71,15.54,459.44,13.53,448.54,11.57Zm181.13,214c.26,1.18-.82,1-1,.43C628.36,224.84,629.44,225.06,629.67,225.6Zm-17.45,8c-2.14-2.59,1.7-2.6,3.47-3.53C616.09,231.84,614.72,233,612.22,233.56ZM253.43,268a3,3,0,0,1,3.45-1.76C257.16,268.49,255.14,268,253.43,268Zm-86-15c.43.66-1.08,1.13-1.31.78C165.72,253.07,167.24,252.6,167.47,253ZM65.18,79.1c1.83-1.72,3.3-1.93,4.2-.27-1,.65-2,1.3-3,2Zm106-42.83c-.23-1,1.1-1.13,1.86-1.57C173.31,35.69,172,35.82,171.23,36.27Zm4.25-1.1c-.68-.39.44-1.49.81-1.29C177,34.27,175.85,35.38,175.48,35.17Zm32-7.27c0-1.35,1.92-1.47,2.13-.43C209.41,29.07,208.63,27.55,207.45,27.9Zm4.27-.84c-.66-.43.52-1.47.87-1.24C213.24,26.24,212.08,27.29,211.72,27.06Zm2.14-.42c-.66-.43.52-1.47.87-1.24C215.38,25.83,214.21,26.87,213.86,26.64Zm5.35-1c0-1.21,1-.77,1.07-.2C220.28,26.65,219.3,26.21,219.21,25.63Zm8.56-1.54c-.15-1,1.17-1,2-1.41C229.88,23.69,228.56,23.71,227.77,24.09Zm4.28-.73c1.3-3.66,4.53.17,1.24.86C232.71,24.35,231.78,24.08,232.05,23.36Zm4.28-.71c-.13-1,1.18-1,2-1.38C238.44,22.27,237.12,22.27,236.33,22.65Zm49.6-4.45c-1.91.33-2.39-1.05-4.41-.59C281.32,14.62,285.9,15.1,285.93,18.2Zm.75-3.25c1.9-.49,2.31.76,1.18.93-.06,2.82,5.92-1.58,4.61,2.71a7.1,7.1,0,0,0-5.47-.5C286.9,17,286.79,16,286.68,15ZM622,227.61c.74.29-.26,1.54-.66,1.39C620.56,228.7,621.56,227.45,622,227.61Zm-14.65,5.48c.31,1-1,1.22-1.76,1.72C605.24,233.83,606.56,233.6,607.31,233.09ZM292.45,269c.52.58-.87,1.29-1.15,1C290.77,269.42,292.16,268.7,292.45,269Zm-15.18,0c2.16-3.39,6.36.58,11.94-.22C291.13,271,280.51,268.89,277.27,269Zm-2.07-1.21c-.37,1.3-2.24.89-2.16-.17C274.05,267.1,275.06,266.54,275.2,267.83Zm-37.7-3.78c-3.92,2.09,3-3.19,0,0Zm-44.07-6.77c-.6,2.29-2.45-1.86-5.37-1C190.33,253.81,191.75,255.38,193.43,257.28ZM30.88,179.65c1.56-1.46,2.87.2,4.23,2.45.69,1.09,1.38,2.38,2.11,3.51a12.11,12.11,0,0,0,2.2,2.65c-1.33,1.65-2.84.28-4.33-1.88-.74-1.12-1.46-2.42-2.17-3.62A15.36,15.36,0,0,0,30.88,179.65Zm-.61-3.3a.8.8,0,0,1-.74-1.39A.8.8,0,0,1,30.27,176.35ZM22,143.58c.1-1.17.21-2.34.34-3.52l2.09.26c-.12,1.14-.23,2.27-.32,3.4ZM62.36,83.65c-.84-.06-.06-1.61.39-1.59C63.57,82.14,62.81,83.69,62.36,83.65ZM83.61,70.33c-.79-.19.1-1.59.52-1.49C84.93,69,84,70.43,83.61,70.33Zm5.13-2.73c-.78-.2.13-1.58.55-1.47C90.07,66.35,89.16,67.71,88.74,67.6ZM93.89,65c-.77-.23.16-1.59.57-1.46C95.24,63.8,94.3,65.12,93.89,65Zm18.68-8.37c-.76-.28.24-1.56.64-1.41C114,55.53,113,56.8,112.57,56.65Zm3.13-1.27c-.75-.3.25-1.55.65-1.4C117.09,54.28,116.09,55.53,115.7,55.38ZM269.72,19c.16-1.45,2.58-1.18,4.17-1.56C273.87,19.88,271.31,20.17,269.72,19Zm7.51-.88c-.08-1,1.22-1,2-1.29C279.34,17.82,278,17.76,277.23,18.09Zm127-6.09c0-1,1.33-.79,2.16-1C406.34,12,405.05,11.78,404.22,12ZM295.74,268.14c.53.58-.86,1.3-1.14,1C294.08,268.56,295.45,267.83,295.74,268.14Zm-45.21-3.64c-2.21,2-10.34.43-8.23-4.11C245.59,263.25,247,263.21,250.53,264.5ZM230.1,262c-4.64,1.86-13.29-1.47-19.49-1.79C218.7,258.35,224,260.69,230.1,262Zm-22.54-3.35c-.5,1.47-9.25.91-7.32-2.31C202.53,257.78,203.67,257,207.56,258.69Zm-13.06-1.21c2.93-2.74,6.66,2.44,0,0ZM184,254.37c-.52,1.24-2.34.6-2.14-.44C182.93,253.5,184,253.08,184,254.37Zm-18.17-4c.43.67-1.08,1.12-1.31.77C164.07,250.51,165.58,250.05,165.81,250.4ZM28.5,170.13c-.2,1-1.68-.59-1.57-1.14C27.14,168,28.6,169.62,28.5,170.13Zm242.56,95.25c4.28,1.51-3.47.47-3.31.78C266.67,264.08,270.69,265.25,271.06,265.38Zm-14-1.27c-.13,1-1.4.69-2.26.83C255,263.92,256.23,264.26,257.09,264.11ZM27.82,165.2c-.26,1-1.62-.73-1.47-1.27C26.62,163,28,164.69,27.82,165.2ZM105.1,62.12c-.29-1.33,1.63-1.87,2.06-.9C106.5,62.21,105.83,63.18,105.1,62.12Zm27-10.66c-.19-1.34,1.73-1.71,2.08-.72C133.46,51.68,132.75,52.58,132.1,51.46Zm3.13-1.08c-.3-1.66,1.19-.47,1.39.64C136.92,52.67,135.44,51.48,135.23,50.38Zm-71,35.83c-.58-.85.71-1.56,1.35-2.26C66.13,84.79,64.83,85.45,64.22,86.21Zm52-26.51c0-.19-.76-2.91.26-2.37C117.69,58,115.89,63.07,116.22,59.7Zm245-44.28c-2.44,3.46-4.45-3.59,0,0ZM72.67,81.71c-.81-.12,0-1.6.42-1.53C73.89,80.3,73.1,81.77,72.67,81.71ZM189.44,37.19c-.2-1,1.11-1.09,1.88-1.51C191.52,36.69,190.21,36.77,189.44,37.19Zm43.65-7.6c0-1.21,1-.76,1.06-.18C234.15,30.63,233.19,30.17,233.09,29.59Zm11.7-1.88c0-1.25,1.81-1.18,3-1.52C247.84,27.44,246,27.35,244.79,27.71Zm6.38-.95c-.62-.46.59-1.44.92-1.19C252.72,26,251.51,27,251.17,26.76Zm2.13-.31c-.62-.46.58-1.44.92-1.19C254.85,25.73,253.64,26.69,253.3,26.45Zm3.2-.44c0-1.21,1-.73,1.06-.15C257.52,27.08,256.58,26.59,256.5,26ZM187.81,39.74c-.07-1.21.92-.82,1.05-.25C188.94,40.7,187.94,40.31,187.81,39.74ZM670.15,190.4a43.47,43.47,0,0,1,7.38-5.59l2-1.3,2-1.39a31.2,31.2,0,0,0,3.73-3.05,26,26,0,0,0,3.26-4c1-1.48,1.9-2.89,2.78-4.17,1.79-2.5,3.54-4.2,6.22-3.08a30.28,30.28,0,0,0-8.09,8.81c-1,1.53-2,3.16-3,4.65a26.75,26.75,0,0,1-3.44,4.25c-1.32,1.32-2.4-.27-4.37,2.34a11.78,11.78,0,0,1-3.49,3.26A4.17,4.17,0,0,1,670.15,190.4Zm.91,3.26c.81.08.09,1.6-.35,1.53C669.9,195.08,670.63,193.62,671.06,193.66Zm-51.82,27.1c.73.29-.24,1.54-.64,1.38C617.87,221.84,618.85,220.6,619.24,220.76ZM320.69,262.88c-.52,1.52-.94-.13-2.14-.07C318.86,261.5,320.71,261.82,320.69,262.88Zm-3.24.95a2.9,2.9,0,0,1-2-3.23A2.91,2.91,0,0,1,317.45,263.83Zm-5.32-1.24c.54.56-.83,1.32-1.11,1C310.49,263,311.85,262.29,312.13,262.59Zm-9.53-2.53c2.13,3.5-4.05,2.38-7.59,1.72.09-1,1.36-.74,2.2-.93.24-.89-.36-1-1-1.12.23-2,3.57-.53,3.37-3,2.18-.21-.38,3-1.23,3.1C297.48,261.52,303.29,261.81,302.6,260.06ZM35.52,170.38c-1.66.06-.45-1.2-1.18-2.64C35.69,167.58,36.47,169.9,35.52,170.38ZM33.31,165a.75.75,0,0,1-.48-1.41A.75.75,0,0,1,33.31,165ZM54.63,99.45c-.84,0-.26-1.59.2-1.6C55.66,97.83,55.08,99.43,54.63,99.45ZM278,24.36a3,3,0,0,1-3,2.47C274.24,24.66,276.29,24.64,278,24.36ZM429.83,19c1.74-.22,1.79,1.07,3.16,1.19C433.32,22.29,428.06,21.57,429.83,19ZM358.14,263.27c-1.27-.16-.93-1.91-1.1-3.15,1.43-2.2,2.4.85,4.28,1,.52.05,3.54-3.25,4.27-.06.7-2.08,6,.16,6.35-2.21,1.28,1.18,3.79,1.09,6.41.88C375.89,265,362.34,259.75,358.14,263.27Zm-13.91,0c-.87-.2-1.06-1.06-2.14-1.07.22-.85,1.08-1,1.08-2.1.87.21,1.07,1.06,2.13,1.07C345.1,262,344.23,262.23,344.23,263.29ZM325,261.94c2.6-3.32,4.23,3.81,0,0Zm-48.08-2.43c.51.59-.87,1.29-1.15,1C275.26,259.9,276.65,259.2,276.92,259.51Zm-5.34-.42c.07,0-.14,1-.08,1.05-4.26-3.56,4.86-1.29,2.13.18C273.45,260.42,272.08,259.16,271.58,259.09Zm-3.2-.27c.51.58-.89,1.28-1.16,1C266.72,259.19,268.12,258.5,268.38,258.82Zm-29.85-3.13c.49.61-.93,1.25-1.19.92C236.85,256,238.27,255.37,238.53,255.69ZM225.76,254c.48.61-1,1.22-1.21.89C224.07,254.28,225.5,253.68,225.76,254Zm-37.14-6.22c.44.63-1,1.17-1.27.82C186.91,248,188.38,247.45,188.62,247.79ZM38.38,173.66c-.92.46-1.53-1.12-2.25-2C37.06,171.25,37.65,172.82,38.38,173.66Zm-1.12-50.2c.84,2.73-.35,3.38-1.18,3.12S34.79,124.87,37.26,123.46ZM75,85.25c-.79-.13,0-1.59.4-1.52C76.14,83.87,75.37,85.32,75,85.25ZM128,59.65c-.72-.31.27-1.55.66-1.37C129.41,58.6,128.41,59.81,128,59.65Zm21.66-7.36c-.7-.35.35-1.52.73-1.34C151.11,51.31,150.06,52.48,149.69,52.29ZM254.81,29.43c-.62-.46.58-1.44.92-1.19C256.35,28.71,255.15,29.68,254.81,29.43Zm51-6.75,2.13-.18.17,2.11-2.13.18ZM697.21,164.47c.84-.28.62,1.54.17,1.69C696.56,166.43,696.78,164.61,697.21,164.47ZM381.58,260.7c.57.53-.72,1.37-1,1.09C380,261.26,381.28,260.42,381.58,260.7Zm-25.6.48c.55.55-.77,1.36-1.07,1.06C354.36,261.7,355.69,260.89,356,261.18Zm-18.15-.05c-.19,1.23-2,.86-3.22,1C334.81,260.9,336.57,261.28,337.83,261.13Zm-5.34-.09c-.18,1.23-2,.87-3.22,1C329.47,260.82,331.23,261.2,332.49,261Zm-20.28-.56c.54.58-.83,1.32-1.11,1C310.57,260.92,311.93,260.18,312.21,260.48Zm-3.2-.13c-.22,1.23-2,.81-3.26.92C306,260.05,307.75,260.47,309,260.35Zm-18.14-.93c.52.59-.86,1.31-1.13,1C289.22,259.83,290.59,259.12,290.87,259.42Zm-32.09-1.48-2.13-.22.21-2.1,2.12.22C258.91,256.53,258.85,257.23,258.78,257.94Zm-3.09-1.38c.5.61-.91,1.26-1.18.94C254,256.9,255.43,256.24,255.69,256.56Zm-24.47-2.87c.48.62-1,1.24-1.21.91C229.54,254,231,253.36,231.22,253.69Zm-2.12-.28c-.45,1.28-2.27.76-2.13-.3C227.64,251.66,227.89,253.35,229.1,253.41ZM42.94,115.93c-.85-.88.26-1.4.74-1.05C44.51,115.77,43.41,116.26,42.94,115.93Zm2.26-3.13c-.87-1,.74-2.66,1.58-2C46.57,112.11,46.37,113.36,45.2,112.8Zm3.22-5.54c.55-.65,1.12-1.24,1.69-1.85l1.54,1.44c-.56.6-1.12,1.18-1.65,1.81Zm30-23c-.45-1.13.66-1.1,1-.59C79.81,84.85,78.71,84.81,78.41,84.31ZM242.25,32.37c-.63-.46.56-1.45.9-1.2C243.78,31.62,242.59,32.61,242.25,32.37Zm94.6-9.67c.14-1.21,1-.64,1.06-.05C337.77,23.85,336.87,23.28,336.85,22.7Zm183.38,8c-.47-.63,1-1.22,1.22-.88C521.91,30.41,520.48,31,520.23,30.67Zm32.82,5.77c-.44-.66,1-1.17,1.26-.82C554.75,36.27,553.28,36.78,553.05,36.44Zm-147,222.14c.59.52-.69,1.39-1,1.11C404.47,259.18,405.75,258.32,406.05,258.58Zm-10.6,1.59c-1-1.08-3.94-.16-3.33-3,2.31,2.21,3.4-1.06,5.37.83C397.27,259.13,395.4,258.78,395.45,260.17ZM84.76,81.75c-.77-.18,0-1.58.45-1.47C86,80.46,85.16,81.84,84.76,81.75ZM95.55,76c-.76-.23.11-1.56.52-1.43C96.82,74.75,96,76.07,95.55,76Zm9.52-5.73c.8,2.15-1.59,3.2-4.11,4.24C98.42,71.77,103.35,71.47,105.07,70.22Zm7.05-3.11c.68-.29,1.35-.58,2-.85,1.34,1.87-.66,2.43-2.2,3.21C111.79,68.62,112.54,68.08,112.12,67.11Zm7.1-2.93c2.66.82,1.25-.62,4.07-1.61C126,64.9,118.83,67.73,119.22,64.18ZM264.64,30.23c-.1-1,1.19-1,2-1.31C266.73,29.93,265.43,29.88,264.64,30.23Zm37.15-4c.09-1.22,1-.67,1.06-.09C302.75,27.31,301.83,26.76,301.79,26.19Zm229.93,7.37c.39-1.15,1.16-.39,1,.18C532.37,34.89,531.62,34.13,531.72,33.56Zm-114,223.25c-.08,1.24-1.88,1-3.12,1.26C414.66,256.83,416.46,257.06,417.69,256.81ZM112.3,223.13c.33.7-1.23,1-1.4.56C110.57,223,112.12,222.74,112.3,223.13ZM108.51,69.82l2-.87c1.36,1.86-.64,2.43-2.16,3.24C108.21,71.33,108.94,70.78,108.51,69.82Zm27.08-8.43c0,.78-2.08,2.2-4.17,3s-4.2.91-4.33-1C129.22,61.15,131.36,61.2,135.59,61.39Zm47.17-15c-.67-.38.43-1.48.79-1.27C184.22,45.48,183.12,46.58,182.76,46.36Zm28-7.32a2.9,2.9,0,0,1,2.72,2.69A2.93,2.93,0,0,1,210.79,39Zm332.36-2.39c3.92-3.22,3,3.82,0,0Zm-110.66,218c.05,1-1.24.92-2.05,1.24C430.39,254.84,431.68,254.94,432.49,254.63ZM34.57,150a3,3,0,0,1,.33-2.29,3.88,3.88,0,0,0,.7-1.88c1-.23,1.37,1.3,1.17,2.62S35.94,151,34.57,150Zm82.81-81.71c-.27-1.18.78-1,1-.41C118.64,69.1,117.59,68.87,117.38,68.33ZM136.61,61a193.64,193.64,0,0,1,30.61-9.69C178,48.78,188.67,46.8,197.83,45c-1.1,2.79-3.56,3.59-6.31,3.85s-5.8,0-8,.58C168.55,53.38,152,58.56,136.61,61ZM404,24.64c-.54-.56.79-1.34,1.08-1.05C405.64,24.15,404.31,24.93,404,24.64Zm153.65,16c-.43-.65,1-1.16,1.27-.82C559.37,40.46,557.9,41,557.67,40.62ZM637.12,65c.79-1.1,2.44-.08,2,.9C638,66.12,636.82,66.29,637.12,65Zm13.34,134.14c.4,1.28-1.42,2-1.93,1.06C648.22,198.65,649.42,199.86,650.46,199.17Zm-5.81,3.13c.44.91-.81,1.36-1.46,1.95C642.75,203.33,644,202.9,644.65,202.3ZM491.2,237.17c5.37.61,11.46-1,17.51-2.84s12.1-4,17.54-4.43c2,3.46-4.68,1.38-5.79,3.29-1.74,2.94,1.1.81-1,.2-1.08-.32-.77,1.22-.84,1.22a31.49,31.49,0,0,0-10.39,1.89c-2.37.88-3.74,2.44-5.9,3.15-5.65,1.91-13.6,1.64-16.28,5.73-9-.34-19.89,3.81-28.09,6.77-6.44-1.56-13.28,0-22.34,1.16a13.39,13.39,0,0,1-4.33-.68c-.85.14-1.79,2.26-1.95,2.27-4.44.39-9.9-.54-15-1-1.58.78-1.33,1.59-4.11,2.36.4-.11-.7-1.6-1.12-1s-5.74,1.92-6.49-1.74c2.17,1.81,3.27-3,8.41-1.54,2.09-2.05,1.4.39,1.06-.06,1.42,1.87,3.45,1,4.09-2.37,3.71,1.84,9,.78,12.74.12,1.23-.22,2,.91,2.2.87,1.3-.23,2.38-1.9,4-2.45,3.64-1.21,9.61-2.14,13.69-1.29.24-2.53,8.46-1.74,14.6-2.67,2.27-.34,4.3-1.65,6.16-1.81,2.3-.2,8.84,2,10.61-.35.1-.13-.39-2.06-.29-2.08-.66.12,4.87,3.8,6.57,1.19.13-.21-.5-2-.31-2.08C487.92,238.23,493.58,241.24,491.2,237.17ZM382.51,256.46c.52-3,4.85-4.46,5.32-.18C384.59,257.13,385.81,257.08,382.51,256.46Zm-56.32.25c-3.3,2.79,3-3.14,0,0ZM198,244.21c-.5,1.25-2.29.66-2.11-.38C197,243.37,198,242.92,198,244.21Zm-25.39-4.12-2.1-.48.48-2,2.09.48C173,238.73,172.81,239.41,172.65,240.09Zm-8.12-3c.42.66-1.06,1.12-1.29.77C162.84,237.22,164.32,236.75,164.53,237.1ZM138.62,230c-4,1.77,3.75-2.19,0,0Zm-5.14-1.61c-.57,1.07-1.22.22-1-.34C133,227,133.65,227.83,133.48,228.39Zm-8.54-1.75c-1.89-.5-1.74-1.95-3.75-2.44C121.5,222.36,127.51,224.45,124.94,226.64Zm-5.78-3.18c-1,1.28-.87-.42-2-.75C117.84,221.57,119.5,222.47,119.16,223.46ZM110,219.94c5.11-1.91,4.07,4.73,0,0ZM77.91,205.38c-1.85-.64-1.38-1.82-.82-3,.71.67,1.11.2,1.49-.31C79.61,202.92,78.4,204.23,77.91,205.38ZM64.45,194.94c1.37-1.31,3-.67,4.89,1a2.44,2.44,0,0,1-3,1.15A2.93,2.93,0,0,1,64.45,194.94ZM50.79,182.15c-.78.63-1.61-.58-2.37-1.18C49.22,180.36,50,181.59,50.79,182.15ZM78.74,89.06c-1.1-1.36,5.11-5.64,5.26-2A7.67,7.67,0,0,1,78.74,89.06ZM224,39.73c-.64-.43.52-1.45.86-1.22C225.49,38.94,224.33,40,224,39.73ZM442.26,27c3.45-3.7,3.4,3.39,0,0ZM569.19,43.17A66.63,66.63,0,0,0,575.5,46c2.2.89,4.48,1.72,6.72,2.6a2.15,2.15,0,0,1-4.15-1.07C574.88,46.74,567.76,48.56,569.19,43.17Zm-14,190c-.1,1.59-.94.13-2.08.51C553.06,232.3,554.92,232.11,555.19,233.13ZM482,247c.62.45-.57,1.42-.9,1.18C480.43,247.75,481.62,246.77,482,247Zm-81.43,7.63c-.26,1.44-2.62,1-4.19,1.26C396.59,254.49,398.93,254.92,400.52,254.66Zm-6.37.3c-.33,2.34-6.16,1.67-4.32-1.93C391.42,253.51,392.56,254.49,394.15,255Zm-15.92.58a1.07,1.07,0,0,1-2.11.05C377,254.92,378,254.28,378.23,255.54Zm-18,.34c-.19,1.19-1.06.59-1.06,0C359.32,254.69,360.19,255.29,360.19,255.88Zm-171.4-14.49c.43.64-1,1.15-1.26.81C187.1,241.57,188.56,241,188.79,241.39Zm-61.13-16c-.58,1.06-1.22.19-1-.35C127.22,223.94,127.85,224.8,127.66,225.36Zm-22.25-8.47c.31.71-1.25.92-1.41.54C103.7,216.72,105.25,216.5,105.41,216.89Zm-3-1.3c-.44.92-1.55.21-2.42.07C100.45,214.74,101.55,215.47,102.42,215.59Zm-6.94-3.18c2.8,3.91-2.47-1.69-1.5-1.91C95.36,210.23,95.34,212.21,95.48,212.41Zm-9.3-3.54c-.66-.33-1.3-.71-2-1.06l1-1.85c.64.36,1.28.72,1.93,1.06ZM56.42,186.59c.06.8-1.54.36-1.57-.07C54.79,185.72,56.4,186.16,56.42,186.59Zm-7.85-8.84c0,.82-1.61.13-1.56-.34C47.08,176.57,48.6,177.33,48.57,177.75ZM42.37,170a4.59,4.59,0,0,1-1.11-2.73,1.73,1.73,0,0,1,1.37-1.58c.51,1.14,1,2.26,1.61,3.33C43.61,169.32,43,169.65,42.37,170Zm-1.22-5c-.25.84-1.57-.36-1.43-.82C40,163.31,41.3,164.51,41.15,164.94Zm-2.68-4.54c-.25-.85-.5-1.68-.67-2.56a1.29,1.29,0,0,1,2,.5,14.27,14.27,0,0,1,1,2.68C40,161.05,39.48,160.1,38.47,160.4ZM199.11,45.8c9-4.76,17.49-2.23,29.44-4.74C217.75,46.3,209.57,45.36,199.11,45.8ZM312.75,29.51c-.05-1,1.23-.91,2-1.2C314.83,29.34,313.55,29.21,312.75,29.51Zm7.41-.54c0-1,1.24-.9,2-1.19C322.24,28.81,321,28.68,320.16,29ZM549.75,233.35c.67.4-.44,1.49-.79,1.28C548.3,234.23,549.4,233.15,549.75,233.35Zm-39.42,9.2c-4.72-1.64,3.56-1.65,1.35-4.52,3.55.82,3.53-.42,7.29-1.34C518.87,242.53,511.45,238,510.33,242.55Zm-20.11,2.21c.63.46-.56,1.44-.9,1.2C488.7,245.5,489.89,244.53,490.22,244.76ZM64,191.88c-.92.79-1.26-.28-.88-.72C64,190.38,64.34,191.43,64,191.88Zm-25-48.44c-.61.61-1.25-1.07-.93-1.41C38.61,141.44,39.24,143.13,38.93,143.44ZM370,27.85c.15-1.23,1.92-.91,3.17-1.11C373,28,371.28,27.67,370,27.85Zm6.37-.1c-.56-.54.75-1.35,1-1.07C378,27.22,376.69,28,376.4,27.75Zm4.24,0c-.56-.54.76-1.35,1.06-1.07C382.25,27.18,380.93,28,380.64,27.71Zm224.09,188.4c.71.33-.27,1.53-.65,1.36C603.37,217.15,604.35,215.94,604.73,216.11Zm-72.65,21.18a5.11,5.11,0,0,0-3.33-.39c-2.12-4.07,4-2.73,4.33-5.19,3.57.44-.37,3.17-2.67,2.7A5,5,0,0,1,532.08,237.29Zm-26.12,5c-1.82.62-.75-4,1.55-3.48C508.49,241,505.77,240.59,506,242.24Zm-8.56.34c.63.46-.54,1.45-.89,1.21C495.89,243.34,497.07,242.34,497.4,242.58Zm-97,10c-6.92,4.37-7.81-2.45,0,0Zm-82.62.75c.53.57-.81,1.32-1.09,1C316.17,253.76,317.51,253,317.79,253.3ZM46.94,171.61c-.13.83-1.6,0-1.52-.47C45.56,170.34,47,171.19,46.94,171.61ZM230.83,41.73c0-1.21.94-.76,1-.18C231.88,42.75,230.92,42.3,230.83,41.73Zm8.2-2.45c4.91-.09.18,6.42,0,0Zm102.44-9.43c-.58-.52.69-1.39,1-1.11C343.05,29.26,341.77,30.12,341.47,29.85Zm42.36-1.11c0-1,1.29-.82,2.12-1.06C385.92,28.7,384.65,28.5,383.83,28.74Zm33.9.41c5.34-3.66,7.47,2.57,0,0ZM42.36,141.4c-.65.53-1.18-1.07-.84-1.35C42.16,139.54,42.7,141.14,42.36,141.4Zm6.31-14.76c-.87-.52-.06-1.63.22-2.49C49.73,124.69,48.88,125.75,48.67,126.64ZM234.5,44.3c-.64-.45.52-1.46.86-1.22C236,43.54,234.83,44.54,234.5,44.3Zm25.07-3.84c-.61-.47.57-1.44.9-1.19C261.09,39.74,259.9,40.71,259.57,40.46Zm-198.75,72c-.79,0-.41-1.51,0-1.5C61.63,111,61.23,112.48,60.82,112.49ZM310.07,36.06c-.59-.51.66-1.4,1-1.13C311.63,35.43,310.39,36.33,310.07,36.06Zm25.27-1.69c-.58-.52.69-1.38,1-1.1C336.92,33.78,335.64,34.65,335.34,34.37ZM478.85,240c.1,1-1.18,1-2,1.32C476.79,240.32,478.07,240.35,478.85,240ZM296.5,38.3c-.58-.49.64-1.4,1-1.14C298.05,37.65,296.82,38.57,296.5,38.3Zm262,186.4c-4.18-1.74,4.6-3.83,0,0Zm-25.09,3.7c-2.53,3.49,2.13-3.74,0,0Zm-3.08.65c.64.42-.48,1.47-.82,1.25C528.9,229.86,530,228.82,530.37,229.05ZM337.61,37.41c.39-1.54.93.07,2.1-.1A1.06,1.06,0,0,1,337.61,37.41ZM545.52,224.63c.76,1.74-5.32,3.13-4.33-.1C543.23,223.61,544.07,224.63,545.52,224.63Zm-7.16,1.63c.19,1-1.08,1.06-1.83,1.47C536.34,226.72,537.62,226.66,538.36,226.26Zm-196.5-188c-.57-.51.69-1.37,1-1.1C343.43,37.68,342.17,38.53,341.86,38.25ZM551.4,222.14c.65.4-.42,1.49-.77,1.27C550,223,551.05,221.93,551.4,222.14ZM417.81,243.08a2.88,2.88,0,0,1-2.3-3C419.07,238.91,419.21,241.45,417.81,243.08Zm4-2.4a1.06,1.06,0,0,1-2.09.15C420.12,239.28,420.69,240.89,421.85,240.68ZM367.1,39.49c-.55-.54.74-1.36,1-1.07C368.69,39,367.4,39.77,367.1,39.49Zm11.53-.18c3.15-3.92,3.56,3.16,0,0Zm55.76,200.37c-1.33-3.07,2.17-2.05,4-2.47C437.82,238.68,436.33,239.38,434.39,239.68Zm-113.08,2.16c-.06,1-1.31.77-2.13,1C319.24,241.8,320.49,242.05,321.31,241.84ZM68.88,179.49c0,.75-1.42.52-1.44.11C67.42,178.86,68.88,179.09,68.88,179.49Zm-14.3-18.05c-.93.41-1.22-.71-1.74-1.3C53.79,159.79,54.07,160.88,54.58,161.44ZM53.3,136.66c-1-.16-1-1.31-.46-2.13a1.38,1.38,0,0,1,2.47,0l-.68,1.68C53.86,135.7,53.55,136.15,53.3,136.66ZM179.45,63.5c1.65-.26,1.09,7.66-2,4.87C178.13,66.74,179.68,65.66,179.45,63.5ZM444.72,237.67l-2.08.2c-.06-.7-.13-1.4-.2-2.1l2.08-.2C444.58,236.27,444.65,237,444.72,237.67Zm-4.26-.66c-3.26,2.86,2.18-3.75,0,0Zm-8.34.75c-2.92,3.13,2.58-3.43,0,0Zm-10.42.82c2.2-3.55,4.49,3.37,0,0Zm-280.43-24.3c.73-1.26,2.72,0,4.26.22C144.56,216.76,142.18,216,141.27,214.28ZM71.11,114.36c-.66-.79.36-1.44.81-2.11C72.57,113.05,71.51,113.66,71.11,114.36ZM199.23,60.88c-.66-.41.43-1.48.78-1.26C200.65,60,199.57,61.1,199.23,60.88Zm199.3-19.47c.19-1.24,1.93-.88,3.16-1C401.5,41.62,399.77,41.24,398.53,41.41Zm13.63-.83c-1.88,1.62-5.6,1.28-8.41,2C403.18,38.36,409.52,41.38,412.16,40.58ZM605.89,201.09c.7.32-.22,1.53-.59,1.35C604.61,202.12,605.53,200.92,605.89,201.09ZM464.36,234.45l-2.07.25c-.08-.7-.16-1.4-.25-2.09l2.07-.25C464.19,233.06,464.28,233.76,464.36,234.45ZM428.91,237c-.1,1.21-1,.67-1,.09C428,235.85,428.87,236.39,428.91,237Zm-197.73-6.65c4.68.8,3.93,1.41,8.25,1.09.64,2.27-3.91,3.52-3.36,1.68C234.17,232.39,229.64,233.68,231.18,230.32Zm-41.35-4.84c-2.08,2.75-.29-2.55,2.24-.61C193.78,226,191.24,225.86,189.83,225.48ZM163,217.19c1.65,4.58-7.72.52-11.52-.95C155.45,214.44,159.14,220.17,163,217.19Zm-34.52-7.14-1.94-.7c.23-.66.47-1.32.71-2l1.93.7Zm-19.71-8.91c.11.15,2.52,1.49,1.46,1.79C109,203.31,106.74,198.58,108.79,201.14ZM95.94,195c-.72,1-1.17.05-.89-.47C95.77,193.53,96.21,194.46,95.94,195ZM52.71,151.7a9.82,9.82,0,0,0,.11-2.17,18.23,18.23,0,0,1-.1-2.22,5,5,0,0,1,.44-2.18,3.82,3.82,0,0,1,1.68-1.79,2,2,0,0,1,.77.71,3,3,0,0,1,.44,1,4.27,4.27,0,0,1,.09,1.2,4.44,4.44,0,0,1-.14,1.29,12.06,12.06,0,0,1-.41,1.29,5.15,5.15,0,0,1-.68,1.21A4,4,0,0,1,52.71,151.7ZM139.59,79c-1.08-1.79,3.94-3,3.27,0l-1.94.68C140.8,78.71,140.2,78.82,139.59,79ZM182.25,66c-.65-.39.4-1.49.76-1.27C183.66,65.15,182.6,66.24,182.25,66ZM414.19,42.74c.06-1,1.31-.79,2.13-1C416.26,42.75,415,42.52,414.19,42.74Zm44.46,7.51c-12.88-3.33-23.94-5.09-41.36-6.37,1-4.65,10.17-1,13.61-.55,7.05.83,13.26,1.48,19.68,3.19C453.64,47.32,459,45.87,458.65,50.25Zm58,174c.63.43-.49,1.45-.83,1.22C515.16,225.06,516.29,224,516.62,224.28Zm-42.16,6.77c.61.47-.57,1.44-.9,1.18C473,231.76,474.13,230.81,474.46,231.05Zm-5.17.67c.56,1.81-5.57,2.6-4.27-.53A5.67,5.67,0,0,0,469.29,231.72ZM311,238.31c.52.56-.8,1.31-1.08,1C309.37,238.75,310.69,238,311,238.31Zm-31.31-.76c2.53-5.46,7.46-1.29,11.59-1.3C288.29,237.73,284.22,238,279.66,237.55Zm-1-.08-4.17-.33c-.79-3.24,2.46-1.66,4.33-1.77C278.72,236.07,278.67,236.77,278.62,237.47Zm-26.9-3.56c2.47,3.5-2.84-3.2,0,0Zm-5.31.47c-1.7.09-1.66-1.21-3-1.42C243.27,230.89,248.32,232,246.41,234.38ZM230,231.22c-.34,1.2-2,.62-3.24.6C227.1,230.63,228.77,231.21,230,231.22Zm-20.74-2.13-5.13-.89c-.43-3.66,3.46-1,5.48-1.19C209.5,227.71,209.39,228.4,209.27,229.09ZM185,223.4c.42.65-1,1.16-1.24.81C183.32,223.57,184.74,223.06,185,223.4Zm-2-.44c-.19,1.74-7.1.62-4.84-2.14A6.81,6.81,0,0,1,182.93,223Zm-58.56-16.64c.31.69-1.16,1-1.32.62C122.74,206.24,124.21,206,124.37,206.32Zm-22.07-8.16c1-1.56,2.6-1.42,4.57-.18C105.88,199.57,104.28,199.41,102.3,198.16ZM78.77,184.59c2-1,3.15-.32,4.34.85s2.47,2.83,4.56,3.7c.43,1.42-1.26.65-3.29-.7-1-.65-2.14-1.47-3.13-2.19S79.36,184.91,78.77,184.59ZM77,182c-.86.89-2-.38-3-1C74.9,180.18,76,181.44,77,182Zm-10.78-9.49c-.06.73-1.45.43-1.42,0C64.85,171.83,66.25,172.14,66.21,172.52Zm-1.27-1.37c-.78.66-1.36-.33-2-.72C63.73,169.79,64.3,170.76,64.94,171.15Zm-3.45-4.26a.9.9,0,0,1-1-1.48C62,164.88,60.82,166.1,61.49,166.89ZM56.15,157a.79.79,0,0,1-1-.31c-.2-.3-.32-.7-.53-1C55.66,155.42,55.67,156.45,56.15,157ZM55,142.54c-.76-.22-1-2.08-.51-3.65a3.39,3.39,0,0,1,1.19-1.8,1.57,1.57,0,0,1,1.91.24,4.65,4.65,0,0,0-1.32,2.5,5.29,5.29,0,0,1-.32,1.13A10.69,10.69,0,0,1,55,142.54Zm4.25-11.06c-1-.76,0-1.09.45-.77C60.6,131.47,59.73,131.77,59.23,131.48ZM169.5,70.56c-.9-3.63,3.9,1.23,2.71-1.85C176.19,69.45,170.71,72.33,169.5,70.56Zm25.36-5.44c.14-.29-.71-1.88-.48-2.05l.34.11.79.21a4.24,4.24,0,0,0,1.13.23C196.91,64.5,192.46,69.86,194.86,65.12Zm12.95-4c.61-3,5.32-1.08,7.12-1.47C214.29,62.71,209.63,60.77,207.81,61.15Zm39.92-7.26c0-1.21,1-.74,1-.16C248.76,54.94,247.82,54.47,247.73,53.89Zm19.53,181.58c.42-1.82,2-2.22,4.34-1.73C270.8,235.08,269.21,235.51,267.26,235.47Zm-.93-1.15c-3.67,3.38-5.35-2.67,0,0ZM223,229.14c.46.62-.94,1.21-1.18.88C221.32,229.4,222.71,228.81,223,229.14Zm-21.5-3.57c-.21,1-1.4.58-2.24.67C199.43,225.24,200.61,225.67,201.45,225.57ZM82.53,108.05c1.37-.94,2.72-1.9,4.13-2.79,1.39,1.2,1,2,0,2.6a19.64,19.64,0,0,0-3,1.91C83.34,109.2,82.94,108.62,82.53,108.05Zm8.07-4c-.52-.89.61-1.34,1.15-2C92.25,102.94,91.13,103.39,90.6,104Zm2.55-1.56c-.73-.21-.06-1.52.33-1.42C94.21,101.24,93.54,102.56,93.15,102.45Zm23.38-12c.56,2.33-4.38,2.45-6,3.94C110.73,90.79,113.37,91.74,116.53,90.45ZM223.3,59.14c-.16-1,1.11-1,1.86-1.42C225.31,58.73,224.05,58.75,223.3,59.14ZM537.55,217.81c.64.41-.44,1.48-.79,1.25C536.13,218.65,537.21,217.59,537.55,217.81Zm-276.31,15c.49.59-.87,1.25-1.13.93C259.63,233.14,261,232.47,261.24,232.8ZM104.2,97.53c4.21-6.2,7.79-1.39,0,0Zm34.89-13.9c-2.52-1-1.19.53-3.83,1.42C132.64,82.64,139.5,80.09,139.09,83.63Zm.6-1.34a1,1,0,0,1,1.93-.7C141,82.52,140.33,83.42,139.69,82.29ZM218.4,61.14c-.17-1,1.09-1,1.84-1.42C220.4,60.73,219.15,60.76,218.4,61.14Zm3.06-.59c-.63-.43.49-1.47.81-1.22C222.91,59.76,221.79,60.78,221.46,60.55Zm21.47-3.78c-.61-.45.53-1.45.86-1.2C244.41,56,243.26,57,242.93,56.77Zm2-.33c-.62-.44.53-1.44.87-1.19C246.46,55.71,245.31,56.69,245,56.44ZM144.87,81.58c-.24-1.23,1.48-1.46,2.57-2C147.68,80.8,146,81,144.87,81.58Zm9.41-4.26c-1.16,3.75-6.64.9,0,0Zm1.31.71c.61-3.35,5.4-1.83,7.85-2.42,3.51-.89,5.94-2.76,7.9-2.29C168,77.81,162.72,76.49,155.59,78ZM282.43,54.58c-.18,3.12-2.89,1.31-5,1.64-2.93.45-1.33.63-4.1.49-6.45-.28-11.94,3.74-15.54,1a1.07,1.07,0,0,0,.3,2.08c.12,1.72-4.5-.36-4.55-2.52,4-2.12,11.39-.47,14.52-1,2.51.09-1.19-4.69,2.68-3.54-1.39,5.47,1.19,1,4.26.55,2.32-.32,2.14,1.47,3.34,1.72C280.41,55.49,281.83,52.45,282.43,54.58Zm12.17-3.4c-.59-.49.62-1.42.92-1.16C296.12,50.52,294.91,51.44,294.6,51.18Zm167.32-2.8,4.15.35c.78,3.24-2.47,1.67-4.32,1.76Zm15.54,1.38c-1.29,1.19-1.12,2.06.82,2.2-3.49,4.49-6-2.15-11.44,0C468.27,48.66,474.18,50.83,477.46,49.76Zm-303.85,24c-.66-.38.36-1.49.71-1.28C175,72.88,174,74,173.61,73.78Zm49.25-11.35c.08,2.85-13.23,2.64-5.07,1A3.79,3.79,0,0,1,222.86,62.43Zm10.19-1.86c3-3.1-1.86,3.91,0,0Zm50.29-7.15c0-1.24,1.78-1.1,3-1.39C286.29,53.28,284.54,53.12,283.34,53.42Zm25.84-2.5c-.58-.5.64-1.4.95-1.13C310.7,50.28,309.48,51.18,309.18,50.92Zm9.32-.73a1,1,0,0,1,2.07-.14C320.22,51.61,319.66,50,318.5,50.19Zm9.33-.62c-.57-.52.67-1.39,1-1.11C329.38,49,328.14,49.84,327.83,49.57ZM586.11,84.63c-3.53,1-8.67-.72-15.6-3.21-5.06-1.82-9.89-4.42-15.14-6.63A43.46,43.46,0,0,0,537.79,71c-7.2-6.63-18.27-6.49-27.35-9.84-1.35-.5.25-.34-1-.15a21.55,21.55,0,0,1-4.66-1l-5.39-1.46c-7.14-1.89-13.54-5.11-20.16-5.47C486.5,50,494,56.5,498.87,54.28c3.13.69,4.33,2.86,6.77,4.07,5.89-.45,13.42,4.12,21,5.32,4.82.76,12.4-.77,14.71,4.79,6.17.34,8.92,2.33,15.7,4.34.08,0-.17,1.24.75,1.25,1.1,0,1.24.4,3.95.89a3.79,3.79,0,0,0,2.2-.54c1.91.63,1.64,2.35,2.45,2.75,1.59.76,2.4-.75,4.16-.05,2.11.83,3.85,2.65,6.25,3.81,1.43.68,2.94,1.29,4.5,1.88S584.5,84,586.11,84.63ZM179.84,73.19c-.23-1,1-1.11,1.73-1.54C181.8,72.65,180.55,72.76,179.84,73.19Zm64.61-13.46c-.55-1.61,5.3-2.32,3.24.56C248,59.83,244.43,59.66,244.45,59.73Zm8-2.3c1.5,3-2,2.17-3.78,2.7C248.67,58.27,250.1,57.47,252.48,57.43ZM518.77,74.12c-2.86,3.42-6.8-.81-10-1.51-1.77-.38-2.26.89-4.14.49-4.67-1-10-3.5-14.8-4-2.93-.3-5.37.6-8.18.15-4.81-.78-9-2.64-14-3.47-2.22-.35-2.67.77-4.15.71-3.46-.15-7.55-2.49-11-3-2.35-.29-5.18.74-7.2.59-4.27-.31-7.91-2.42-12.13-2.76-3.47-.3-7.92.94-11.3.58.23,0-.33-2-1-2.14-3.28-.61-7.93-.08-12.31-.34-2.75-.15-5.64-1.18-8.2-1.19-1.8,0-2.22,1.29-4.11,1-3.24-.46-5.51-2.72-8.22-3.19-.69-.12-1.73,1.23-3.09,1-.87-.11-1-1-2.07-1-.51,0-4.32.08-4.12,0-1.59.37-2.06.27-2,2.12-2.57-.5-4.26-1.91-6.23-3.05-8.63,1.12-22.95,0-33,1.17-1.27.14-4.57-1.5-5.22-.77a5.29,5.29,0,0,0,.05,1.1c0,.51.09,1,.07,1-1.48-.13-2.34-3.16-3.27-3-3.42,2.93-11.92,0-15.46,1.08-.21,2.54,4.64-1,3.33,2.91-4.32,1.71-3.48-2.73-5.48-3.8a7.36,7.36,0,0,0-1.8,3.31c-1.89-.61-.3-1.89-.26-3.14-6.14,0-15.65,1.52-22.86.05,4.9-3.56,11.95.47,16.31-3.72,5.25,1.6,12.51.91,21.89.42-.27,0,.62,1.68,1.1,1,1.05-1.54,5-1.51,9.34-1.14s9,1.15,11.4,1.09c5.32-.18,10-1.06,16.55-.57,10.4.75,21.32,1.45,32.06,1.78,2.77.08,8.44-1.07,10.34-.93,2.37.18,4.84,1.87,7.18,2.26,7.33,1.26,18.55,1.86,26.66,3.15,11.2,1.78,21.93,1.19,32.66,3.46,2.83.59,6,2.42,9,3,6,1.17,12.46.84,18.22,2.13,2.37.53,4.2,2.22,6.76,3C510.45,71.44,515.52,70.28,518.77,74.12ZM334.12,50.25c-.53-2,4.64-1.78,3.16.89l-2.08.1C335.35,50.34,334.75,50.26,334.12,50.25ZM578.59,203.76l-2,.59c-.2-.67-.41-1.34-.61-2l2-.59C578.17,202.42,578.38,203.09,578.59,203.76Zm-3.25-.12c-2.47,2.77-3.91,2.6-4,1.83S572.51,203.35,575.34,203.64Zm-389.27-131c-.14-1.24,1.6-1.32,2.74-1.77C188.94,72.14,187.21,72.22,186.07,72.67Zm14-3.35c-.19-1,1.05-1.08,1.79-1.48C202,68.84,200.8,68.91,200.06,69.32Zm238.8-18.23c-.52-.57.81-1.31,1.09-1C440.45,50.66,439.13,51.39,438.86,51.09ZM584.75,199.6a1,1,0,0,1-1.93.63C583.49,199.34,584.15,198.45,584.75,199.6ZM225.48,65.15c-.62-.43.49-1.47.83-1.22C226.93,64.37,225.82,65.39,225.48,65.15Zm4.06-.75c-.07-1.25,1.69-1.2,2.86-1.57C232.45,64.07,230.7,64,229.54,64.4ZM450.23,51.77c1.2.24.74,2,.81,3.22-2.5.27-2.1-2.08-5.07-1.39C445.4,50.69,450.78,54.67,450.23,51.77ZM600.28,192a9.9,9.9,0,0,0,5.4-3.41c1.17-1.22,2-2.05,3.53-1.19C610.83,190.36,602.05,195.78,600.28,192ZM245,62.85c-.61-.46.53-1.45.85-1.2C246.41,62.11,245.28,63.09,245,62.85Zm144.17-11c0-1,1.27-.82,2.07-1.06C391.16,51.86,389.93,51.66,389.12,51.89Zm47.56,1.2c.68-2.46,4.92-.4,2,1.15C437.86,54,437.71,53.14,436.68,53.09ZM278.8,59.23a1,1,0,0,1,2.05-.24C280.57,60.57,279.93,59,278.8,59.23Zm3.07-.35c.53-3.17,2.73,1.07,5.13-.57C287,60.79,282.57,59.41,281.87,58.88Zm341.35,123.5a3.67,3.67,0,0,1,1.85-4.28,10,10,0,0,1,5.09-1.48C629.13,179,626.59,180.89,623.22,182.38ZM290.18,59c-.58-.48.61-1.41.93-1.15C291.69,58.37,290.5,59.29,290.18,59Zm5.14-.52c-.08-1,1.17-.94,1.95-1.25C297.34,58.29,296.09,58.19,295.32,58.51Zm183.26.89c.31-1.16,1.09-.48,1,.1C479.28,60.68,478.51,60,478.58,59.4ZM325.27,58.18c0-1,1.21-.91,2-1.2C327.3,58,326.05,57.88,325.27,58.18Zm216.5,13.57,2,.39-.42,2.07-2-.38C541.5,73.14,541.63,72.45,541.77,71.75ZM383,60.33c0-1,1.26-.84,2.05-1.07C385,60.29,383.75,60.08,383,60.33Zm3.09,1c-.54-.54.73-1.34,1-1C387.6,60.86,386.33,61.65,386.05,61.36ZM518.43,69.8c2.49.25,4.86.61,5.84,2C522.26,72.83,517.12,74.28,518.43,69.8ZM236.6,74.91c-.62-.44.49-1.46.81-1.21C238,74.15,236.92,75.15,236.6,74.91ZM591.16,88.36c1.66-.41,11,2.07,9.16,6.34C598.72,91.78,593.75,90.71,591.16,88.36Zm-338.36-15c-.13-1,1.11-1,1.86-1.34C254.77,73,253.54,73,252.8,73.34Zm13.08-1.87c-.59-.47.56-1.43.88-1.18C267.34,70.75,266.2,71.72,265.88,71.47ZM421.81,64c-.51-.57.79-1.32,1.06-1C423.38,63.57,422.08,64.33,421.81,64ZM618,99.18c-.24-.69,1.15-1,1.27-.6C619.48,99.27,618.09,99.55,618,99.18ZM313.61,67.46c-.05-1,1.18-.91,2-1.21C315.61,67.28,314.38,67.16,313.61,67.46Zm95.95-3.77c.06,3.2-5.37,2.85-6.16,2C403.55,63,406.85,63.64,409.56,63.69Zm1,0,2,0-.05,2.11-2-.05Zm19.4.65c-.06,4.46-6.66,5-7.18.76C426.08,65.86,427.56,64.6,430,64.36Zm117,17c-2.86,2.81-8.48,0-12.93-1.47-4.94-1.6-8.74-4.6-14.63-3.58,3.09-2.7,8.22-2.13,13.43-.51S543.38,80.11,547,81.4Zm-1.53-2.46c.23-1,1.36-.56,2.17-.63C547.41,79.3,546.27,78.86,545.47,78.94Zm59.72,16.37c2.7-1.63,7.56,2.44,11,3.14-1,1.53-3.35,1.22-5.65.29A15.43,15.43,0,0,1,605.19,95.31ZM413.59,65.9c.06-1,1.27-.8,2.07-1C415.6,65.91,414.39,65.67,413.59,65.9Zm6.15-.88,2,.07c.39,2.26-1.52,2-3.13,2C418.87,66.25,419.71,66.08,419.74,65Zm11.21.43c1.61.17,3.9-.31,4,1.26.86,3.58-3.24,1.47-5.18,1.85A5.12,5.12,0,0,0,431,65.45ZM555,82.05a1,1,0,0,1,1.94.44C555.94,82.92,554.93,83.33,555,82.05ZM457.14,70.19c.1-1,1.3-.71,2.1-.89C459.14,70.32,457.94,70,457.14,70.19Zm40.23,4.06c.16-1,1.33-.65,2.14-.78C499.35,74.48,498.18,74.11,497.37,74.25Zm16,2.22c.36-1.16,1.09-.44,1,.14C513.94,77.77,513.24,77,513.32,76.47Zm51.56,11.14c-1.71,3.33-3.78-1.2-7.19.45,0-.92.6-.89,1.2-.81.21-1-1-1.07-1.68-1.46C559.7,83,563.22,85.49,564.88,87.61Zm15.41,3c.3-1,1.38-.46,2.17-.47C582.15,91.1,581.08,90.57,580.29,90.6ZM452,70.88c.1-1,1.3-.74,2.1-.92C454,71,452.81,70.69,452,70.88Zm54.2,5.62c.17-1,1.33-.64,2.14-.77C508.17,76.75,507,76.37,506.21,76.5Zm49.3,7.82c-2.77.71-7.11.77-8-.66C547.33,83.32,552.33,82.82,555.51,84.32ZM567,87.06c2,.14,2.93,1,2.33,2.76l-2.85-.72C566.69,88.43,566.86,87.75,567,87.06Zm12.67,5.57c-.2.37-4.24,1.93-5.23.73-.8-1,.53-3.19-.94-.25-.26-1.81-4.65-1-3-4.06C573,87.93,576.27,91.73,579.71,92.63Zm2.79.8c1.65.95,3.88,1.55,2.79,4.13C582.8,97.13,581.45,96,582.5,93.43ZM485.77,78.17c.14-1,1.31-.68,2.1-.83C487.74,78.36,486.57,78,485.77,78.17Zm22.82,2.92c.18-1,1.33-.64,2.13-.75C510.54,81.35,509.39,81,508.59,81.09Zm6.9,1c0-1.89,5.81-1,3.76,1.67C517.13,83.9,516.78,82.66,515.49,82.12ZM567.79,96c-.34-.66,1-1.14,1.21-.79C569.34,95.81,568,96.29,567.79,96Zm83,40.84c.48-.25,1.26-.51,1-.39A6.79,6.79,0,0,1,650.8,136.79Zm-56-31.76,1.75.6c-.23.67-.46,1.33-.68,2l-1.75-.6C594.31,106.36,594.54,105.69,594.77,105Z"/><path class="cls-1" d="M553.67,259.47c4.7,1.31-3,.24-2.39-.52C552.19,257.84,553.43,259.41,553.67,259.47Z"/><path class="cls-1" d="M253.88,223.57c5.47-.36,10.54,1.26,16.38,1.6,1.71.09,3.37-.79,4.19-.7,2.06.23,6.28,4.26,7.18.56,3.93-1.16-3-.39-1.88-2.25l5.11.39c-.35,2.28.6,3.38,2.86,3.35,3.22,1.12,3.29-1.44,5.28-1.77,2.67,1.05,6,2.68,8.1,2.57,2.5-.13,2.94-2.13,4.22-1.9.13,0-.22,1.94-.1,2.1.81,1.07,4.93-1.81,5.11,1.28,1-2.24,4.59-1.5,6.3-2.92,2.73,2,8.3.2,11.29,1.38,1.56-.58,4.41-5.2,5.21-3-2.08,2.4.24,1.17,1,3.17,8-1.52,18.37-.71,27.84-1,1.36,0,.91-1.85,2-2.13,14.83,2.49,28.11-1.17,39.11-.3.05-1.29.17-2.5,1.93-2.22,9.12,2.45,17.85-1.05,26.62-1.9,3.23-.29,6.94.49,10.31.12,11.92-1.4,24.75-6.86,35.33-6.3.8-1.54,3.22-1.83,3.59-3.7-.41,3.5,3.5,1,4.5,2.53,1-1.67,3.16-2.5,5.71-3,5.1,1.34,10.81-2.23,14.65-4.61.65,2.12,4.42-.52,5.36,1.16,0-4.63,3-.38,5-.95.2-.06.81-2.17,1.58-2.46,1-.35,1.38.81,2.19.65,1.63-.34,5-3.12,6.48-3.49.11,0,1.61,1.78,2.4,1.64,2.46-.43,5.55-2.18,8.61-3s6.42-2.59,9.5-3.36c3.66-.88,7.55-.56,10.89-1.72,4.65-1.64,8.36-5.22,12.47-6.84a11.68,11.68,0,0,0,4.07-.13c3.06-1.07,8.38-5.41,10.93-1.33-3.35,1.51-6.24,2-8.34,2.87s-3.39,2.19-3.59,5.36c4.58-.19,4.21-3.17,7-4.37.5,1.18,1,2.28,2.53,1.37,1-4,5.35-2.58,8.11-3.84,1.54-.74,2.13-2.74,3.89-3.65,1.13-.59,3.7-.06,4.93-.72a37.46,37.46,0,0,0,9.53-7.27c-.1.11,1.72.26,1.33-1.71.42,2.06,1.65,1.74,3,1.13s2.69-1.51,3.5-.56c.32-3.77,4.6-3.06,5.72-7.43,3,2.25,6.23-1.65,7.41-5.15,2.72,1.39,4.6-.07,6.19-1.88.83-.89,1.56-1.89,2.38-2.65a4.42,4.42,0,0,1,2.83-1.35l-2.4-3.46c-6.51,1-11.49,3.49-16.63,6.39s-10.35,6.1-17,8c-1.11.5,0,2-.88,2.66-2.42.22-5.93,1.5-9.26,3a35.69,35.69,0,0,0-8,4.71c-.62.56-2.22-.32-2.17-.37-2,1.25-1.67,2.74-3,3.25-3,1.15-9.5,1.25-13.27,3.1-3.25,1.63-8.8,2.93-12.91,4.77-1.71.78-2.56,2.7-4.23,3.29-2,.72-4.84.07-7,.69-4.13,1.17-10.33,3.28-16.43,5s-12,3.1-15.54,3c-.91,0-.71,1.21-.79,1.23-6,1.62-15.14,4.49-19.51,5.55-1.55.37-3.59-.62-4.16-.41-.13.05-.45,2.07-.68,2.24-2.8,2-5.44-.31-7.18,0-6.54,1.17-15,3.7-18.86,4.64-7.41,1.86-18.15,2.23-22.2,3.45-1.65.5-1.74-1.77-3.05.29-.42.65-1.45-.88-1.12-1-2.24.52-3.82,2.33-5.92,2.63s-7.32-.9-10.28-.25c-3.73.78-4.17.53-7.14.49-1,0-1.16,1.17-2,1.18-2.17,0-4.79.35-6.14.36s-1.91-1.06-4.14-.84c-5.42.52-10.94,4-16.33,1.76-2-.25-2,1.49-3,2.2-1.84-.86-2.68-2.86-6.21-1.93-2.41,3.58-9.59.78-15.36,1.31a34.05,34.05,0,0,0-8.21,2.16c-7.73-4.26-16.43-1.45-24.63-1.36-3.63.06-7.45-.31-12.31-.38-1.17.66.07,3.5-3.25,4.08,0-1.66.28-3.64-1.93-3.24-2.56-1.26-5.45,3.33-5.07-1.3-1.72-1.23-1.83,1.89-2.16,2-5.14,1.94-3.41-2.53-.91-2.16-1.8-.26-3.19.88-5.17.76-6.53-.4-16.58-2.1-21.49-1.53-1,.1-3.19-1.41-5-1.5-6.43-.22-18.86-1.34-21.58-.12-3.88,1.74-.52-1.13.12-1a132.88,132.88,0,0,0-15.33-.91c-.84,0-4.07-1.62-5.91-1.91-7.58-1.12-16.67-2.41-22.26-2.61-4.13-.12-6.54-2.35-9.77-2.94-1.86-.35-2.38.39-4.18.22-2.41-.22-9.12-3.22-10.63-3.4-1.1-.13-2.57,1.85-3.43,1.36-.44-.24,2.45-1.42-.49-2.28-3.19-.92-6.7-.57-10-1.4-6.51-1.69-12.11-5.06-18.91-6.5-5.17-1.09-7.86-2.4-12.18-4-1.6-.63-3.22,0-4.05-.35a107.23,107.23,0,0,1-14-6.74c-6-3.46-11.76-6.09-17.09-8.91s-10.17-5.85-13.81-9.82c-2.35,3.28-.81-.11-2.56-.71-.3.45-1.34.3-2.11.33s-1.3.28-.56,1.56a10,10,0,0,1,3.27,1.73,15.5,15.5,0,0,1,1.45,1.27c.49.45,1,.94,1.47,1.44a36.22,36.22,0,0,0,7,6.15c2,1.24,4.79,1.63,7,2.78,8.69,4.35,12.1,8.05,17.76,7.24,1.19,2.88,7.91,6.66,8.15,3.28,3.05.62.93,3.83,4.81,4,.57-1.11.86-2.87,2-2.63-.66,3.64,3,4.88,6.8,5.71s7.81,1.24,8,3.58a7.57,7.57,0,0,1,2.84-2.45c-1,2.1.35,2.78,2,2.94a11.36,11.36,0,0,0,2.36-.07c.67-.08,1.15-.18,1.15-.18.85,0,.68,1.28.68,1.28,6.43,1.9,12.67,2.21,14.93,2.82,4.54,1.23,9.44,4,12.08,1.72-.23,1-1.07,1-1.45,1.84,2.93.63,4.39-4,6.4-.78-5.79,4.09,4.87,2.35,10.77,3.23,1.47.24,3.22,1.67,4.83,2,3.73.7,7.17-1.16,7.88,2.45,6.79-1.69,16.7,2.51,23.48,2.46,2.49,0,4.76-2,6.38-1.3.92.38-.67,2.15,1.77,2.34a17.88,17.88,0,0,0,3.59-.15,16.63,16.63,0,0,0,1.64-.29c.56,0,1.3,1.12.9,1.16,3.36-.4,6.17-5,9.41-1.11C257.23,222.27,253.22,219.94,253.88,223.57Zm15.54-.59c2.71-3.16,3.82,4.05,0,0Zm-34.64-3.85c.46.61-.91,1.24-1.15.91C233.18,219.42,234.54,218.8,234.78,219.13Zm-39.24-6.46c-.23,1-1.39.56-2.21.63C193.56,212.31,194.71,212.76,195.54,212.67Zm139.62,13.68c.68-1.06,2.38-1,2.1-3.13l5.14.05c-.6,2.18-1.63,2.22-3.09,1C337.26,224.29,338,227.15,335.16,226.35ZM329,224.13c-.06,1-1.28.78-2.08,1C327,224.12,328.22,224.35,329,224.13Zm-5.14-.12c.52.56-.78,1.33-1.06,1C322.32,224.48,323.61,223.71,323.89,224Zm-8.22-.26c.51.56-.78,1.32-1.06,1C314.1,224.2,315.4,223.45,315.67,223.75Zm60.62-.81c.55.53-.71,1.36-1,1.08C374.74,223.49,376,222.66,376.29,222.94ZM592,183.77c-1.49-.73-3.65,0-5.89.95-2-3.77,2.53-4,5.38-5.23C592.26,181.22,591.13,182,592,183.77Zm4.75-4c-.18-4.58,3.14-3.24,6.88-6.08-.36,2.25-1,3.14-2.13,3.79S598.92,178.55,596.76,179.78ZM614,171.55a4.15,4.15,0,0,0-3,.19c-.18-.86.44-1.33,0-2.3l1.69-.76Zm-20.68,7.28c.66.35-.2,1.5-.55,1.32C592.12,179.8,593,178.65,593.32,178.83Zm-15.34,3c.64.36-.26,1.5-.62,1.3C576.72,182.81,577.64,181.7,578,181.88Zm7-3.45c.65.35-.22,1.5-.57,1.31C583.77,179.38,584.64,178.24,585,178.43Zm-431.68,24.1c.35.67-1.06,1.09-1.26.73C151.72,202.59,153.13,202.17,153.31,202.53Zm15.79,3.17c.37.65-1,1.12-1.23.77C167.5,205.81,168.91,205.34,169.1,205.7Z"/><path class="cls-1" d="M132,98.74c.52-.17.69-1.33-.39-1-.89.32-3.35,2.35-6.19,4.16a21.84,21.84,0,0,1-4.49,2.23,7.82,7.82,0,0,1-4.52.26c2.73,3.6-2.82,2.22-2.15,2.2-1,.07-1.11,1.74-1.23,1.8-.86.38-1.5-.43-2.18-.09s-.63,1.68-1.2,1.81c-1.37.34-2.1-1.38-4.32-.08l-4.09,2.3c-.31.47,1.67,2.85-.54,2.76-2.44,1-.49-1.12-4-1.26-1.69,5.8-7.17,7.71-11.86,8.24a11.72,11.72,0,0,1-2,3.68A9.8,9.8,0,0,1,80.34,128a28,28,0,0,1-2.72,1.52A14.24,14.24,0,0,0,75.17,131,5.59,5.59,0,0,0,74,132.55l-.79,1.75a3.5,3.5,0,0,1-2.4,2.42c-.44.74,1.21,1.47,1.14,2.16a3.76,3.76,0,0,0-3.55,2.59,2.42,2.42,0,0,0-.13.53,3.05,3.05,0,0,0,0,.52,2.79,2.79,0,0,0,.29,1,4,4,0,0,0,2,1.52c-.39-.61-.13-1.07.44-1.48s1.28-.76,1.62-1.36c.91-1.4.69-3.54,2.29-5.85,1.09-1.49,3.61-2.14,4.88-4.1a8.4,8.4,0,0,1,1.66-2.12c.47-.42,1.07-.74,2.23-1.6,2.7-2,6-5.17,9.4-7.54a21.16,21.16,0,0,1,4.78-2.71c1.48-.52,2.74-.6,3.67,0-.26-2,1.12-2.94,2.86-3.65s3.92-1.15,5.4-2.2a61.85,61.85,0,0,1,10.51-5.79,45.34,45.34,0,0,0,10.29-6.18c1.06,1.05,3.61.46,5.3.13A33,33,0,0,0,143,98.47c2.17-1,3.68-2.3,3.19-4-2.43-1.13-3.91,2-6.49,2.38-1.85.25-2.59-1.92-4.44-.56C136.48,98.66,132.6,98.54,132,98.74Zm-45.86,25c-.68-.16-.33-1.45,0-1.37C86.85,122.53,86.5,123.83,86.13,123.74Zm-10.4,11.55c-.64-.06-.75-1.23-.4-1.2C76,134.16,76.07,135.33,75.73,135.29Z"/><path class="cls-1" d="M551.81,202.51c-1.7-.52-.12-1.6-2-3.84,4.78-.76,6.9-3.69,8.19-4.31,3.52,1.36-1.74,4.53-1.28,6.88C555.51,199.39,551.44,199.16,551.81,202.51Z"/></g></g></svg>