<svg xmlns="http://www.w3.org/2000/svg" viewBox="0 0 191.56 237.04"><defs><style>.cls-1{fill:#56cbf9;}</style></defs><title>hi-line</title><g id="Layer_2" data-name="Layer 2"><g id="Layer_1-2" data-name="Layer 1"><path class="cls-1" d="M132.43,122.63a14.72,14.72,0,0,1-.18,2,6.46,6.46,0,0,0,0,2.24,1.84,1.84,0,0,1-.28.75c-.18.33-.34.5-.46.5a3,3,0,0,0-1.1,1.37,4.29,4.29,0,0,0-.37,1.12,2.34,2.34,0,0,0-1.1-.5c-.61,0-1.28.66-2,2-.25.5-.58,1.33-1,2.5a11.39,11.39,0,0,1-1.38,2.74,12.09,12.09,0,0,1-.82,1.62,5.17,5.17,0,0,0-.65,2.62,25,25,0,0,1-1.19,2.61,25,25,0,0,0-1.19,2.62,45,45,0,0,0-3.86,7.48l-1.1,3.74a17.82,17.82,0,0,1-2.48,6.35q-1.93,3.12-2.85,4.86a1.23,1.23,0,0,1-1.19.75h-1a7.16,7.16,0,0,0-.92,2.24c0,.34.31.67.92,1a8.24,8.24,0,0,0-2,5.73,3.05,3.05,0,0,1-1.29,2.5,13.51,13.51,0,0,0-3.12,3.24c-.86,1.49-1.78,2.32-2.75,2.49a3.19,3.19,0,0,0-2.48,2,21.71,21.71,0,0,1-1,2,7.47,7.47,0,0,1-2.58,2.24,7.34,7.34,0,0,1-3.85,1,11.73,11.73,0,0,1-5.69-1.5l-5.88-3.24c-.61-.33-.92-.58-.92-.75a8.58,8.58,0,0,0-2.66-3c-1.17-.83-2.3-1.58-3.4-2.24a7.28,7.28,0,0,1-2.39-3,11.71,11.71,0,0,1-.73-4.49,112.18,112.18,0,0,1,4-26.42q1.65-6.23,4.22-13.09T79,127.87c.12-.17.3-.46.55-.88a2.29,2.29,0,0,0,.18-1.62h.18c.37.17.59,0,.65-.37a7.35,7.35,0,0,0,.09-.87l2.2-4.24a48,48,0,0,0,3.49-7.73,3,3,0,0,1-.64-.12c-.31-.08-.4,0-.28.12A5.4,5.4,0,0,1,84,114.53a5.28,5.28,0,0,0-1.38,2.62,14.46,14.46,0,0,1-2.57,6,1.43,1.43,0,0,1-.64.75.55.55,0,0,0-.28.75v.12c0,.08.06.13.18.13a2.86,2.86,0,0,1-1.1.37,2,2,0,0,0-1.19.62,2.59,2.59,0,0,0-.46,1.75l-.37.5a14.16,14.16,0,0,0-2.75,5.35,31.75,31.75,0,0,1-2,5.11,4.92,4.92,0,0,0-.92,3.49c-.49.34-1,.67-1.38,1s-.89.67-1.38,1a8.3,8.3,0,0,1-.73,4.36,18.34,18.34,0,0,1-2.94,4.11l-.46.63a1.35,1.35,0,0,0-.09,1.12c.12.16.06.37-.18.62a6,6,0,0,0-.55.62L61.54,157a3.18,3.18,0,0,0-.37,1,5.42,5.42,0,0,0-.18,1.24,3.14,3.14,0,0,1-.74,1.75,17.6,17.6,0,0,0-3.85,6.73,4.94,4.94,0,0,1-1.2,1.87A4.65,4.65,0,0,0,54,172.23v.25a3.44,3.44,0,0,1-.92,2.12,15.17,15.17,0,0,0-1.47,2.12,7.48,7.48,0,0,1-1,2.37c-.55.91-1,1.62-1.19,2.12-.49,1-1.35,2.49-2.57,4.48a33.54,33.54,0,0,0-2.57,4.49c-.37.66-1,1.74-1.75,3.24a11.77,11.77,0,0,0-1.38,4.49,1.82,1.82,0,0,1-.18,1l-4.41,6a3.27,3.27,0,0,1-.46.87,4,4,0,0,0-.46.87,13.46,13.46,0,0,1-1.28,5.23,20.24,20.24,0,0,0-1.47,4.24,10.16,10.16,0,0,1-1.84,3.12,7.08,7.08,0,0,0-1.65,3.36,1.61,1.61,0,0,1-.92,1.5,2.61,2.61,0,0,0-1.47,1,6,6,0,0,0-.82,1.49l-.46,1.25a9.9,9.9,0,0,1-.83,2.36,10.58,10.58,0,0,0-.83,2.37,1.59,1.59,0,0,1-1.1,1.5,2.3,2.3,0,0,0-.73.25,2,2,0,0,0-.92,1c-.12.5.12,1,.73,1.5a.62.62,0,0,1-.55.25,39.29,39.29,0,0,1-13.22-3,5.11,5.11,0,0,1-2-2.25,16.31,16.31,0,0,0-4.41-5.73A7.7,7.7,0,0,1,0,220.59a59.43,59.43,0,0,1,1.65-12.46c.73-3.66,1.35-6.4,1.83-8.23a48.23,48.23,0,0,0,2.39-8.47l2-6.73A8.1,8.1,0,0,1,9.38,182a2.93,2.93,0,0,0,.74-1.49,61.22,61.22,0,0,1,2.94-8.72c.48-1.17,1-2.7,1.65-4.62s1.22-3.61,1.83-5.11a32.68,32.68,0,0,0,2.21-4.23A40.26,40.26,0,0,1,20.58,154a7.87,7.87,0,0,0,1.29-3.49,102.26,102.26,0,0,1,7-16.7l2-4.74a44.88,44.88,0,0,1,1.84-4.73l2.57-5.49,5-11q.36-.75,2.57-5.74a34.5,34.5,0,0,1,1.56-4c.55-1.17,1.07-2.33,1.56-3.49a123,123,0,0,1,6.79-14.21l2.21-5q7.16-14.2,12.49-23.18a16,16,0,0,1,1.47-2.61,9.69,9.69,0,0,0,1.28-2.62c.37-1,1.16-2.74,2.39-5.23a34.45,34.45,0,0,1,2.94-5.49c1-2,1.83-3.9,2.57-5.73a33.69,33.69,0,0,1,3.12-6.23c.74-1.17,1.78-2.91,3.12-5.24s2.63-4.4,3.86-6.23A35.61,35.61,0,0,0,90,9.72c.49-1,.91-1.83,1.28-2.49l2.21-4Q93.68,3,95.33,0a13.89,13.89,0,0,0,2.76,2.49A14.22,14.22,0,0,1,100.84,5c1.35,1.49,3.18,3.4,5.51,5.73a4.93,4.93,0,0,1,1,1.12,4.66,4.66,0,0,1,.83,2.12.78.78,0,0,0,.18.87.54.54,0,0,0,.74.13h.36c.25,0,.74.49,1.47,1.49a1.47,1.47,0,0,0,.09.5.47.47,0,0,1-.09.5l-2.75,5.73a47,47,0,0,1-5.33,9.47,93.7,93.7,0,0,0-7.53,13.71L83.4,69.79q-6.62,12-8.09,15c-.36.83-.79,1.74-1.28,2.74S73,89.65,72.38,91q-3.87,7.23-6.62,13.71-3.48,7-9.73,20.93l-2.2,4.24q-3.67,8.22-4.41,10.22a37.32,37.32,0,0,1-5.33,10.72,11.2,11.2,0,0,1-.73,1.49,6.77,6.77,0,0,0-.74,2,9.54,9.54,0,0,1-.92,3.24c-.48,1-.79,1.66-.91,2l-.19.25a47.26,47.26,0,0,1-3.49,8l-2.38,5.48-.19,2v.13c0,.08.06.12.19.12h.36v.25c.13.17.49-.16,1.11-1q4.59-8.73,7.71-13.46,1.65-3,11.57-18.2c.12-.17,1.35-2.08,3.67-5.73q6.62-9.72,17.63-23.18A187,187,0,0,1,93.31,94.22c.37-.34,1.13-1.12,2.3-2.37a7.73,7.73,0,0,1,3.58-2.37,2,2,0,0,0,.64-.75,8.15,8.15,0,0,1,.46-.74c1.1-1.67,2.08-2.5,2.94-2.5a4,4,0,0,1,2.94,1.75,61.54,61.54,0,0,1,7.71,8.47,4.85,4.85,0,0,0-1.1,2.37,21.93,21.93,0,0,1-.74,2.62,4.65,4.65,0,0,0-.18,1.49,9.18,9.18,0,0,0,.55,3.24c-.24,1-.61,1.5-1.1,1.5h-.37l-.36.25v-.25c-.74.33-1.11,1.25-1.11,2.74a3.53,3.53,0,0,1-.73,1.25c0-.34-.06-.5-.18-.5h-.19c-.12,0-.18.08-.18.25,0,.33.12.5.37.5h.18q-1.65,5.73-4.59,8.22a17.77,17.77,0,0,1-2.57,5.11c-1.23,1.75-2.09,3-2.57,3.87l-2.39,6.23a75.66,75.66,0,0,1-3.68,9c-.73.66-1,1.83-.73,3.49a2.53,2.53,0,0,1-.46,1.25,4.94,4.94,0,0,0-.64,1.49v.5a4.94,4.94,0,0,0,.18,1.37,4.16,4.16,0,0,1,.19,1.12c-.13.67-.37,1-.74,1h-.55l.18,2.24c0,2.33-.79,3.57-2.38,3.74a5.3,5.3,0,0,0-.92,2.24l-1,4.12c-.43,1.74-.83,3.2-1.2,4.36a35.81,35.81,0,0,1-.91,3.86,18.13,18.13,0,0,0-.74,4.86,2,2,0,0,0-.73,1.75,5.36,5.36,0,0,1-.19,1.74,4.6,4.6,0,0,0-.46,2.49,5.75,5.75,0,0,1-.09,2l.92.5a1.66,1.66,0,0,0,.92-.25l.73-.5a56.62,56.62,0,0,0,6.06-6.11,27.49,27.49,0,0,0,4-6.6A10.52,10.52,0,0,1,96,171.11l1.19-1.62,4.77-8.47,6.06-11a143.4,143.4,0,0,0,9.74-20.44l2-5.48q.92-2.49,2-5.24l2.39-6a10.61,10.61,0,0,0,.46-2.87c.06-1.24.09-2.2.09-2.86a7.15,7.15,0,0,1,5.51,3,28.75,28.75,0,0,1,3.67,7.48l-1.1,1.24a2,2,0,0,0-.55,2.25A4.65,4.65,0,0,1,132.43,122.63ZM17.28,167.75c-.74,0-1.16.21-1.29.62a2.65,2.65,0,0,0,0,1.37,4.89,4.89,0,0,1,.19,1,13.16,13.16,0,0,1,.18-1.37A2.27,2.27,0,0,1,17.28,167.75ZM33.07,178a1.24,1.24,0,0,0-.18.74,1.39,1.39,0,0,0-1.1,1,5.75,5.75,0,0,0-.19,1,13.48,13.48,0,0,1-2.75,7.48l-.37,1c-.12.33-.24.75-.37,1.25a1.75,1.75,0,0,0,.74-2.24,35.44,35.44,0,0,0,4.59-8.73c.25,0,.43-.25.55-.75.37-.49.37-.91,0-1.24C33.62,177,33.32,177.14,33.07,178ZM46.2,140.83a2.4,2.4,0,0,0,.28-1.75,17.62,17.62,0,0,0-.73,3A2.58,2.58,0,0,1,46.2,140.83Zm18.46-5c-.12,0-.24-.08-.37-.25s-.18-.08-.18.25c0,.17.06.21.18.13A.64.64,0,0,1,64.66,135.84Zm.74-.25c-.13-.16-.25-.2-.37-.12a.42.42,0,0,0-.18.37L65,136C65.15,136.05,65.27,135.93,65.4,135.59Zm10.65-16.2v0Zm3.67,6-.37-.49h.19Zm2.76-14.2v.25q0,.24.09.12l.09-.12v-.25Zm2.75-2.75a.66.66,0,0,0-.46.75,4.58,4.58,0,0,1,.09.75l.37-.37C85.48,109.3,85.48,108.92,85.23,108.42Zm2-.24v-.13c0-.08.06-.12.19-.12-.13,0-.19-.05-.19-.13v-.12h-.18c-.13.16-.16.29-.09.37A.32.32,0,0,0,87.25,108.18ZM89.46,156c-1.11.5-1.41,1.17-.92,2A1.36,1.36,0,0,0,89.46,156Zm-.74-47.85c.61-.17.92-.67.92-1.5a1.36,1.36,0,0,0,.55-1.5c-.37,0-.67.34-.92,1l-.55.75A1.17,1.17,0,0,0,88.72,108.18Zm.92,46.61-.18.25q.36,0,.36.24V155C89.82,154.87,89.76,154.79,89.64,154.79Zm.73-1.75-.18-.25c-.12,0-.18,0-.18.13V153c0,.17.06.25.18.25v-.12C90.19,153.08,90.25,153,90.37,153Zm1.2-50.47c.06.08.09,0,.09-.13v-.12c0-.08.06-.13.18-.13h-.36A.67.67,0,0,0,91.57,102.57ZM94,99.45c.19-.16.22-.41.1-.75-.37.17-.55.59-.55,1.25A3.38,3.38,0,0,1,94,99.45Zm14.79,11.47-.18.25V111Q108.56,110.92,108.74,110.92Z"/><path class="cls-1" d="M190.83,104.94a72.83,72.83,0,0,1-4,6.48,52.2,52.2,0,0,0-3.31,4.48,13.5,13.5,0,0,0-1.65,4.24,8,8,0,0,1-1.65,3.24,18.65,18.65,0,0,0-1.84,3.24,21.72,21.72,0,0,1-2.2,3.86c-1,1.42-1.72,2.54-2.21,3.37a15.06,15.06,0,0,0-1.1,3,25.27,25.27,0,0,1-3.49,6,29.77,29.77,0,0,0-2.94,4.24,3.27,3.27,0,0,1-.46.87.89.89,0,0,0-.09.87q.38,1.5,1.29,1.5a4.86,4.86,0,0,0,1.74-.25c.43-.17.71-.66.83-1.5a12.72,12.72,0,0,1,.92-2.24.91.91,0,0,1,1,.13,1.35,1.35,0,0,0,.64.37,18.29,18.29,0,0,0-2.2,3.24,40.87,40.87,0,0,1-2.39,3.74,13,13,0,0,1-2,2.49,5.58,5.58,0,0,0-1.65,3.49.87.87,0,0,1-.19.5.47.47,0,0,1-.36.25,7.8,7.8,0,0,0-2.94,2.62,14.38,14.38,0,0,1-2.39,2.61,7.81,7.81,0,0,0-2.57,3.49,13.63,13.63,0,0,1-2.39,3.24,1.49,1.49,0,0,0-.37-.74v.74q0,3.24-2.38,4.49v-.75a10.7,10.7,0,0,1,.27-2.24,4.51,4.51,0,0,0,.09-2,12.75,12.75,0,0,0-2.66,2.87,12.75,12.75,0,0,1-2.66,2.87c1.34.66,2.08.41,2.2-.75s.86-1.58,1.84-1.25q-.37,3.5-1.66,4.74a75.6,75.6,0,0,0-5.51,7.48,11,11,0,0,1-4.59,5l-.92.75a15.16,15.16,0,0,1-3.85,3.49,3.86,3.86,0,0,0-1.84,4,1.29,1.29,0,0,1-1.1,0,1.2,1.2,0,0,0-1.29.25,5.75,5.75,0,0,1-4,1.74c-1.47,0-3.42-.83-5.87-2.49a16,16,0,0,1-2.76-2.12c-1-.91-1.71-1.62-2.2-2.12-.12-.16-.34-.41-.65-.75s-.58-.33-.82,0a.87.87,0,0,1-.74.25,4.46,4.46,0,0,1-1.65-.5,1.5,1.5,0,0,0-1.83.25,8.13,8.13,0,0,0-1.75-2,5.43,5.43,0,0,1-1.74-2.74,55.36,55.36,0,0,1-1.47-13.21,78.06,78.06,0,0,1,2-17.2,133,133,0,0,1,5.87-18.2q2.76-7.23,9-20.68,2.2-4.74,5-9.6l3.58-6.11q7-12.47,10.84-18.19a.79.79,0,0,1,.73-.13,2.14,2.14,0,0,0,.74.13,13.51,13.51,0,0,0,2.48,2.49c1,.83,1.87,1.49,2.48,2Q149,95,149.51,96.46a5.16,5.16,0,0,0,3.12,3.24c.73.33,1.16.67,1.28,1a6.57,6.57,0,0,1,.19,2q.18,7.23-4.41,10.47a11.47,11.47,0,0,0-.73,1.5,21.29,21.29,0,0,1-1.11,3.74,4.28,4.28,0,0,1-1.83,2,3.28,3.28,0,0,0-.83,1.37,4.3,4.3,0,0,1-1,1.62,19.07,19.07,0,0,0-3.12,4.74q-1.47,3-2.2,4.23a3.85,3.85,0,0,0-.37,2.25.87.87,0,0,0-.74-.25,1,1,0,0,0-.73.37,6,6,0,0,0-.55.62,1.6,1.6,0,0,0-1,.88,3.23,3.23,0,0,0-.28,1.37,28.64,28.64,0,0,1-1.56,5.73c-.8,2.16-1.38,3.91-1.74,5.23q-1.47,4-3.68,5.24H128c-1,.33-1.47,1.49-1.47,3.49a10.08,10.08,0,0,1-.92,4.24c-.61,1.32-1,2.24-1.28,2.74a10.21,10.21,0,0,0-1.29,3.24q-.74,3.74-3.67,14.7l-.19,2a11.52,11.52,0,0,0,5-3.24q5.88-5.73,17.63-19.2l3.13-3.48q1.47-1.75,8.44-11.22l5.15-6.73q4-5.49,7.89-11.47a3.43,3.43,0,0,1,.83-1.12,3.33,3.33,0,0,0,.83-1.12c.12-.17.46-.29,1-.37s.64-.63.27-1.62l.09-.25c.06-.17.16-.25.28-.25A3.41,3.41,0,0,0,172.1,122l1.28-2.62q8.09-13.45,12.49-19.94A8.75,8.75,0,0,0,187.34,97l3.12,3.24a3.2,3.2,0,0,1,1.1,2.49A3.72,3.72,0,0,1,190.83,104.94ZM118.74,190.3a1.74,1.74,0,0,0-1.74.13,1.86,1.86,0,0,1,.18,1,2.2,2.2,0,0,1-.91,1.74,6.62,6.62,0,0,0,4.22-2.74A2.69,2.69,0,0,1,118.74,190.3ZM141.61,168q-4,2.24-4.41,5.73a5.5,5.5,0,0,0,2.48-2.74A14.36,14.36,0,0,1,141.61,168Zm.73-80.51a1.22,1.22,0,0,1-1.28.25C141.55,86.9,142,86.82,142.34,87.49Zm11.76,80a2.93,2.93,0,0,0-1.47.5,2.79,2.79,0,0,0,0,1.49,1.65,1.65,0,0,0,.83-1A1.94,1.94,0,0,1,154.1,167.5Zm0-88.74a13.74,13.74,0,0,1,.18-2.74q1.84-14.46,6.25-23.93,3.3-8,5.87-11.21a64.57,64.57,0,0,1,7-7.48,1.87,1.87,0,0,1,3.31,0,20.52,20.52,0,0,1,4.22,4.74q2,3,2.94,4.23a4.11,4.11,0,0,1,.83,2.75c-.06,1-.09,1.66-.09,2l-.19,1a1.11,1.11,0,0,0-.92.49,1.73,1.73,0,0,0-.36,1A7.56,7.56,0,0,1,182,53.22a13.34,13.34,0,0,1-1.83,2.24,12.49,12.49,0,0,1-1.29,1.12,2,2,0,0,0,0-1.25c-.12-.16-.43-.25-.92-.25a18,18,0,0,0-4.22,7.48l.37,1a2.52,2.52,0,0,1-.55,1.49,5.39,5.39,0,0,0-.74,1.25c0,.33-.18.5-.55.5q-1.83.26-2.57,3.49a1,1,0,0,1-.74.87,1.54,1.54,0,0,0-.91.63c-.25.49-.71,1.37-1.38,2.61a9.83,9.83,0,0,0-1.2,3.62,6.19,6.19,0,0,1-1.1,2.86,5.13,5.13,0,0,1-1.83,1.37,6.79,6.79,0,0,0-1.66,1,7.14,7.14,0,0,1-4.4,1.25,2.11,2.11,0,0,1-2.21-2A28.38,28.38,0,0,1,154.1,78.76ZM164,152a31,31,0,0,0-6.8,9.48c.86,1,1.41,1.16,1.65.49a21.71,21.71,0,0,1,2.12-2.36A13.91,13.91,0,0,0,163.1,157c.24-.83.43-1.25.55-1.25.86-.66,1.28-1.16,1.28-1.49A12.63,12.63,0,0,0,164,152Zm.46-18.07a3.48,3.48,0,0,0,.09,1.37l.91-2C164.87,133.52,164.54,133.72,164.48,134Zm14.41-77.14h-.18c0-.17.06-.25.18-.25ZM185,48.36v.49h-.18a1.49,1.49,0,0,1-.37-.74Z"/></g></g></svg>