<?xml version="1.0" standalone="no"?>
<!DOCTYPE svg PUBLIC "-//W3C//DTD SVG 20010904//EN"
 "http://www.w3.org/TR/2001/REC-SVG-20010904/DTD/svg10.dtd">
<svg version="1.0" xmlns="http://www.w3.org/2000/svg"
 width="260.000000pt" height="260.000000pt" viewBox="0 0 260.000000 260.000000"
 preserveAspectRatio="xMidYMid meet">
<metadata>
Created by potrace 1.11, written by Peter Selinger 2001-2013
</metadata>
<g transform="translate(0.000000,260.000000) scale(0.100000,-0.100000)"
fill="#000000" stroke="none">
<path d="M0 1300 l0 -1300 434 0 434 0 -11 30 c-6 17 -16 30 -22 30 -5 0 -19
12 -30 25 -11 14 -30 37 -43 50 -13 14 -19 25 -14 25 5 0 -12 21 -37 48 -67
70 -121 132 -121 140 0 4 -14 21 -30 39 -17 18 -30 35 -30 38 0 4 -19 26 -43
48 -23 23 -51 55 -62 71 -11 16 -29 38 -40 50 -11 12 -20 25 -20 29 0 5 -7 14
-16 21 -9 6 -34 34 -54 61 -21 28 -46 59 -57 70 -30 32 -97 126 -103 147 -4
10 -10 18 -15 18 -4 0 -15 15 -25 33 -9 17 -27 52 -40 76 -23 43 -23 46 -7 74
9 16 26 33 37 37 11 4 29 17 39 29 11 11 26 21 34 21 7 0 30 16 49 35 19 19
41 35 49 35 8 0 14 4 14 9 0 10 96 104 130 128 24 17 109 33 129 25 9 -4 16
-11 17 -17 3 -24 17 -55 26 -55 5 0 7 -4 3 -9 -3 -5 -1 -12 3 -15 5 -3 26 -35
47 -71 21 -36 42 -65 47 -65 4 0 8 -6 8 -13 0 -7 9 -19 20 -27 11 -8 20 -18
20 -22 0 -17 136 -209 156 -221 8 -5 12 -12 9 -17 -3 -4 2 -10 10 -14 8 -3 15
-13 15 -23 0 -9 17 -33 38 -53 l37 -36 27 55 c15 31 28 62 28 69 0 18 30 75
44 84 8 6 8 8 -1 8 -11 0 -6 11 53 120 11 19 25 40 32 48 6 7 12 21 12 31 0 9
7 26 15 37 8 10 15 26 15 35 0 9 7 22 15 29 8 7 12 17 8 23 -3 6 -1 7 5 3 7
-4 12 -2 12 4 0 6 5 8 12 4 7 -4 8 -3 4 4 -4 6 5 29 19 51 14 23 25 47 25 55
0 7 7 19 15 26 8 7 13 16 10 20 -3 5 -1 12 5 15 6 4 21 24 35 44 13 21 29 44
37 52 8 8 21 30 30 49 9 19 26 45 37 56 11 12 17 25 14 28 -4 3 -1 6 5 6 6 0
26 25 45 55 19 30 37 52 41 48 3 -3 6 1 6 10 0 10 5 17 11 17 5 0 8 4 5 8 -3
5 4 15 15 22 10 8 19 22 19 32 0 10 5 18 11 18 16 0 50 41 43 52 -3 4 -1 7 4
6 5 -2 34 23 64 55 30 31 52 57 50 57 -3 0 4 8 14 18 11 9 25 29 32 43 8 14
26 33 40 42 44 27 103 88 96 99 -4 6 -2 8 3 5 6 -4 23 9 37 27 14 19 36 36 48
38 13 2 22 9 20 16 -1 6 4 12 12 12 7 0 25 11 40 25 15 14 31 25 37 25 5 0 9
4 9 8 0 4 30 25 68 47 37 22 72 45 77 51 6 6 17 14 25 17 8 3 -522 6 -1177 6
l-1193 1 0 -1300z"/>
<path d="M2490 2585 c-13 -15 -67 -45 -82 -45 -5 0 -6 5 -2 12 5 7 3 8 -5 4
-7 -5 -10 -10 -7 -13 12 -12 -25 -34 -46 -28 -15 4 -19 3 -10 -3 10 -7 10 -11
-2 -21 -8 -7 -20 -10 -26 -6 -5 3 -10 0 -10 -7 0 -8 -9 -20 -20 -28 -12 -9
-18 -21 -14 -32 3 -10 1 -18 -5 -18 -6 0 -10 5 -8 11 1 6 -4 14 -11 16 -7 3
-10 -1 -6 -11 4 -11 -2 -19 -19 -25 -14 -5 -28 -15 -32 -20 -11 -18 -28 -12
-22 8 3 14 1 18 -9 14 -17 -6 -17 -9 -4 -34 7 -12 7 -19 1 -19 -6 0 -32 -22
-58 -49 -27 -27 -54 -46 -62 -43 -8 3 -11 0 -7 -7 5 -7 1 -9 -8 -5 -11 4 -16
0 -16 -13 0 -10 -27 -45 -60 -78 -51 -50 -60 -56 -60 -37 0 31 -15 27 -30 -8
-7 -16 -17 -30 -22 -30 -5 0 -6 5 -2 11 4 7 1 10 -6 7 -25 -8 -22 -27 4 -34
14 -3 26 -10 26 -16 0 -5 -6 -6 -12 -2 -9 5 -9 2 1 -9 12 -15 11 -17 -5 -17
-16 0 -17 -2 -4 -10 10 -7 11 -10 3 -11 -7 -1 -17 -2 -21 -3 -5 0 -20 -14 -34
-29 -22 -24 -30 -27 -47 -18 -26 15 -34 14 -28 -3 7 -17 -11 -36 -28 -30 -7 3
-16 1 -19 -5 -4 -6 5 -13 19 -17 24 -6 35 -24 14 -24 -13 0 -40 -26 -38 -37 4
-21 -3 -32 -27 -48 l-27 -17 5 31 c5 34 -11 43 -19 11 -3 -11 -9 -20 -14 -20
-5 0 -9 -5 -9 -12 0 -6 -7 -19 -16 -29 -9 -10 -11 -19 -5 -23 5 -4 12 3 16 14
8 25 25 26 25 2 0 -10 6 -24 13 -32 10 -12 9 -12 -5 -1 -15 11 -19 11 -25 -5
-12 -32 -29 -44 -41 -32 -18 18 -27 1 -11 -19 12 -16 12 -17 -2 -6 -22 18 -32
3 -13 -18 16 -17 15 -19 0 -25 -10 -4 -16 -12 -14 -18 2 -6 -7 -22 -20 -36
l-25 -25 13 24 c10 19 10 25 -1 32 -11 7 -11 9 -1 9 8 0 10 5 6 12 -4 7 -17
-10 -32 -43 -14 -30 -33 -61 -43 -70 -10 -9 -23 -28 -29 -43 -5 -15 -14 -24
-20 -21 -6 3 -10 -5 -10 -18 0 -14 -7 -27 -15 -31 -22 -8 -18 -36 5 -36 16 0
18 -4 11 -17 -5 -10 -15 -33 -21 -50 -7 -18 -17 -33 -22 -33 -5 0 -7 -12 -4
-27 3 -16 1 -35 -5 -43 -8 -12 -9 -9 -3 10 6 22 5 23 -10 11 -9 -7 -16 -20
-16 -27 0 -8 -4 -14 -10 -14 -5 0 -10 -6 -10 -12 0 -7 -7 -26 -16 -43 -9 -16
-16 -46 -15 -65 1 -19 -1 -31 -5 -28 -6 7 -50 -35 -57 -55 -2 -7 -7 -9 -11 -6
-10 10 19 74 40 90 19 14 26 31 27 59 0 8 5 22 11 30 20 26 46 90 36 90 -10 0
-79 -113 -84 -138 -5 -26 -19 -56 -28 -63 -5 -3 -10 -16 -13 -28 -8 -42 -16
-61 -24 -56 -5 2 -9 -7 -9 -21 1 -15 -4 -29 -10 -33 -7 -4 -13 -16 -15 -26 -2
-11 -9 -33 -15 -48 -7 -16 -12 -33 -12 -39 0 -6 -9 -3 -19 6 -19 18 -20 17
-35 -19 -9 -21 -16 -46 -16 -56 0 -11 -7 -19 -17 -19 -12 0 -14 -3 -6 -8 7 -5
9 -13 3 -21 -5 -9 -1 -26 10 -47 10 -17 16 -35 13 -38 -3 -3 6 -3 21 0 18 3
28 -1 32 -11 8 -19 21 -19 21 0 0 8 -5 15 -12 15 -6 0 -17 6 -24 13 -6 6 -17
12 -23 12 -7 0 -12 16 -13 36 0 25 3 35 11 32 7 -2 15 6 19 19 12 44 27 66 41
61 8 -3 14 -14 14 -24 0 -11 -5 -16 -13 -13 -8 3 -13 -5 -15 -23 -1 -16 -7
-30 -12 -31 -6 -2 -8 -8 -4 -13 3 -5 -3 -9 -13 -9 -15 0 -15 -2 -3 -10 16 -10
40 4 40 24 0 6 10 20 21 30 18 15 23 15 30 5 5 -8 9 -20 9 -26 0 -7 7 -13 15
-13 9 0 19 -8 22 -17 4 -10 19 -30 34 -45 l27 -28 7 29 c3 16 14 36 22 43 15
12 16 9 9 -22 -16 -75 -16 -81 -7 -76 5 3 7 -3 4 -13 -3 -13 3 -25 21 -36 14
-10 26 -27 27 -39 0 -11 3 -16 5 -10 3 7 14 10 24 7 16 -4 18 -9 9 -25 -9 -18
-8 -19 10 -13 15 4 21 3 19 -7 -2 -7 4 -13 12 -13 9 0 14 7 12 20 -2 11 -5 25
-5 30 -1 6 -6 13 -10 16 -16 12 4 37 25 31 19 -4 20 -2 14 22 -4 17 -2 34 5
42 8 10 8 14 0 14 -6 0 -11 -4 -11 -10 0 -5 -4 -10 -10 -10 -5 0 -7 7 -4 15 4
8 12 15 19 15 8 0 17 10 20 21 5 15 9 18 15 9 5 -8 10 -9 14 -2 4 6 -3 20 -15
30 -17 17 -19 23 -8 40 7 11 18 18 25 15 6 -2 19 10 28 28 16 33 13 56 -4 29
-8 -12 -10 -11 -10 6 0 12 8 28 17 35 14 12 16 12 9 0 -6 -9 -4 -12 5 -9 8 3
16 13 18 24 2 10 18 44 36 74 18 30 39 70 46 88 8 17 17 32 21 32 3 0 4 9 1
19 -3 13 -11 18 -21 14 -15 -4 -15 -3 -2 6 13 9 13 11 -2 11 -12 0 -18 7 -17
23 1 16 2 18 6 4 5 -20 14 -22 31 -5 9 9 12 9 12 0 0 -7 -5 -12 -11 -12 -5 0
-7 -5 -4 -10 3 -5 13 -10 21 -10 8 0 12 5 9 10 -3 6 -2 10 4 10 6 0 8 7 5 15
-4 8 -11 15 -18 15 -13 0 -20 77 -7 85 5 3 7 -4 4 -16 -5 -18 -3 -20 17 -14
19 6 22 4 17 -9 -4 -9 -3 -16 1 -16 10 0 39 20 29 20 -4 0 4 19 18 43 14 23
31 54 37 69 7 15 21 31 32 37 12 5 15 10 8 10 -7 1 -10 6 -7 11 3 6 -1 10 -10
10 -12 0 -15 6 -10 20 8 25 -3 26 -21 3 -15 -20 -19 -6 -5 16 5 8 16 11 24 8
8 -3 20 0 26 6 8 8 11 8 11 0 0 -12 25 -12 36 0 4 4 -2 7 -14 7 -12 0 -22 3
-22 6 0 12 34 64 42 64 4 0 8 7 8 15 0 8 -4 15 -10 15 -5 0 -10 5 -10 10 0 6
6 10 13 8 18 -4 67 37 67 56 0 18 15 21 25 6 8 -13 31 3 46 33 9 17 8 18 -11
12 -21 -7 -21 -6 -6 24 17 32 49 34 40 3 -5 -13 -2 -13 10 2 19 24 20 33 4 39
-7 2 -5 3 4 2 20 -3 54 30 40 39 -6 3 -12 1 -14 -5 -3 -8 -9 -6 -20 4 -8 9
-19 13 -24 9 -5 -4 -2 1 6 11 13 18 14 18 20 1 5 -13 8 -15 15 -5 6 10 9 10
15 1 11 -19 29 -3 23 20 -3 11 0 26 6 34 6 7 9 20 6 28 -7 18 19 48 41 48 8 0
14 -10 14 -25 0 -14 -4 -25 -10 -25 -5 0 -15 -10 -21 -22 -12 -22 -11 -22 6
-8 32 25 75 73 75 81 0 5 -5 9 -10 9 -6 0 -9 3 -9 8 3 19 -2 23 -16 12 -8 -7
-15 -8 -15 -2 0 5 7 15 15 22 10 9 15 9 15 1 0 -6 5 -11 10 -11 7 0 7 6 1 19
-9 16 -8 18 12 14 12 -3 18 -1 12 4 -26 21 -9 39 21 21 6 -4 25 6 43 22 36 34
46 37 37 14 -5 -12 1 -12 27 5 19 11 36 19 38 16 3 -2 11 5 18 17 11 18 11 20
-1 16 -9 -4 -14 2 -16 18 -1 13 3 24 9 24 6 0 9 -7 5 -15 -3 -8 -1 -15 4 -15
5 0 8 13 7 29 -2 26 -4 28 -22 18 -18 -9 -19 -9 -6 6 7 10 26 17 41 17 16 0
30 7 34 16 3 8 11 12 18 8 8 -5 9 0 5 15 -4 16 1 26 18 37 22 15 26 14 46 -5
13 -12 26 -21 29 -21 11 0 7 30 -4 30 -6 1 -1 9 12 20 13 11 21 24 18 29 -4 5
3 12 14 16 18 6 20 15 20 87 0 75 -1 80 -20 75 -11 -3 -20 -1 -20 3 0 5 9 12
20 15 18 6 20 15 20 96 l0 89 -49 0 c-31 0 -53 -5 -61 -15z m-50 -85 c0 -13
-12 -19 -26 -13 -8 3 -12 8 -9 12 5 10 35 10 35 1z m70 -4 c0 -3 -4 -8 -10
-11 -5 -3 -10 -1 -10 4 0 6 5 11 10 11 6 0 10 -2 10 -4z m0 -50 c0 -2 -7 -6
-15 -10 -8 -3 -15 -1 -15 4 0 6 7 10 15 10 8 0 15 -2 15 -4z m-205 -55 c2 -11
0 -21 -6 -21 -5 0 -9 12 -9 27 0 30 9 27 15 -6z m91 -16 c-11 -8 -25 -15 -30
-15 -6 0 -2 7 8 15 11 8 25 15 30 15 6 0 2 -7 -8 -15z m104 -15 c-13 -8 -13
-10 -1 -10 8 0 12 -3 8 -6 -3 -3 -11 -3 -17 1 -8 5 -8 11 1 21 6 8 14 12 18 9
3 -3 -1 -10 -9 -15z m-302 -27 c-10 -2 -18 -12 -18 -20 0 -9 -3 -14 -6 -10
-12 11 5 37 23 36 17 -1 17 -2 1 -6z m122 -8 c-7 -9 -15 -13 -19 -10 -3 3 1
10 9 15 21 14 24 12 10 -5z m-115 -35 c-10 -11 -20 -18 -23 -15 -7 6 18 35 31
35 5 0 2 -9 -8 -20z m70 0 c-3 -5 -11 -10 -16 -10 -6 0 -7 5 -4 10 3 6 11 10
16 10 6 0 7 -4 4 -10z m-142 -16 c-5 -13 -2 -15 17 -9 l23 7 -19 -26 c-11 -14
-22 -26 -26 -26 -12 0 -48 -39 -48 -51 0 -8 5 -8 15 1 12 10 15 9 15 -8 0 -11
-7 -23 -16 -26 -23 -9 -36 -7 -29 4 3 6 2 10 -4 10 -15 0 -23 -18 -11 -25 5
-3 10 -14 10 -23 -1 -15 -2 -15 -11 1 -6 11 -17 16 -28 12 -26 -8 -28 51 -1
67 11 7 20 18 20 25 0 7 12 13 28 13 15 0 34 5 42 11 12 8 8 9 -15 6 l-30 -5
33 29 c37 33 44 36 35 13z m89 -28 c-15 -11 -33 -24 -39 -29 -9 -6 -13 -6 -13
2 0 6 8 15 18 18 18 7 48 33 37 33 -3 0 -3 5 1 11 4 8 9 7 14 -2 6 -8 -1 -20
-18 -33z m283 -1 c-33 -26 -45 -31 -45 -15 0 6 6 10 14 10 7 0 19 7 26 15 7 8
18 15 24 15 6 0 -2 -11 -19 -25z m-186 -31 c-12 -13 -28 -24 -36 -24 -7 0 -13
-4 -13 -10 0 -5 -7 -10 -15 -10 -8 0 -15 -5 -15 -12 0 -6 -3 -8 -6 -5 -4 4 -2
13 4 20 7 8 9 16 6 20 -3 3 4 8 15 12 12 3 21 11 21 16 0 6 5 7 10 4 6 -3 10
-1 10 5 0 7 7 10 15 6 8 -3 14 -2 14 2 -3 16 3 26 8 14 3 -7 -5 -24 -18 -38z
m-159 -4 c0 -5 -7 -10 -16 -10 -8 0 -12 5 -9 10 3 6 10 10 16 10 5 0 9 -4 9
-10z m49 -96 c-7 -8 -18 -13 -26 -10 -7 3 -19 -7 -28 -25 -9 -17 -21 -27 -27
-23 -6 4 -8 3 -5 -3 4 -6 -3 -22 -16 -35 -12 -14 -33 -39 -47 -56 -15 -19 -35
-31 -49 -32 -14 0 -21 -5 -18 -13 2 -7 -15 -33 -39 -57 -24 -25 -44 -51 -44
-58 0 -7 -4 -11 -9 -7 -10 6 -37 -34 -33 -48 1 -5 -2 -6 -8 -2 -5 3 -10 -1
-10 -10 0 -8 -7 -18 -15 -21 -8 -4 -15 -14 -15 -25 0 -10 -6 -22 -13 -26 -8
-4 -22 -21 -33 -38 -10 -16 -23 -33 -28 -36 -12 -9 2 -29 19 -29 9 0 12 -6 9
-15 -4 -8 -12 -15 -20 -15 -7 0 -11 6 -8 14 3 8 1 17 -5 21 -6 3 -15 -4 -20
-17 -5 -13 -18 -31 -30 -42 -11 -10 -18 -23 -15 -27 3 -5 -3 -9 -13 -9 -13 0
-19 -8 -21 -27 -2 -30 -28 -63 -49 -63 -8 0 -12 -4 -9 -9 9 -14 -3 -38 -19
-38 -8 0 -15 4 -15 9 0 4 7 8 15 8 11 0 14 7 10 23 -4 16 1 31 19 50 14 16 26
30 26 33 0 15 37 50 48 46 6 -2 12 1 12 7 0 6 -4 11 -10 11 -16 0 -12 13 14
42 12 15 26 24 30 21 4 -4 4 0 0 10 -3 10 -1 17 6 17 6 0 8 5 5 10 -3 6 -3 10
2 10 4 0 21 18 37 40 16 21 34 36 39 33 6 -3 7 -1 4 4 -4 6 2 22 13 35 11 14
16 28 13 32 -3 3 1 6 10 6 10 0 17 4 17 9 0 5 14 22 30 38 17 15 30 34 30 41
0 7 7 15 15 18 8 4 15 12 15 18 0 7 11 18 25 24 14 6 25 17 25 24 0 16 154
168 169 168 6 0 11 6 11 14 0 19 34 26 38 8 2 -7 -2 -20 -9 -28z m221 22 c0
-2 -8 -10 -17 -17 -16 -13 -17 -12 -4 4 13 16 21 21 21 13z m-460 -16 c0 -5
-5 -10 -11 -10 -5 0 -7 5 -4 10 3 6 8 10 11 10 2 0 4 -4 4 -10z m375 0 c-3 -5
-10 -10 -16 -10 -5 0 -9 5 -9 10 0 6 7 10 16 10 8 0 12 -4 9 -10z m-405 -69
c0 -11 -5 -23 -10 -26 -15 -9 9 -37 24 -28 6 3 3 -3 -7 -14 -11 -13 -26 -19
-38 -16 -13 4 -19 0 -19 -11 0 -9 -5 -16 -10 -16 -15 0 5 36 26 48 15 8 15 10
0 15 -21 8 -20 22 1 47 22 25 33 25 33 1z m290 15 c0 -3 -4 -8 -10 -11 -5 -3
-10 -1 -10 4 0 6 5 11 10 11 6 0 10 -2 10 -4z m-250 -47 c0 -5 -7 -9 -15 -9
-15 0 -20 12 -9 23 8 8 24 -1 24 -14z m330 6 c-7 -9 -15 -13 -17 -11 -7 7 7
26 19 26 6 0 6 -6 -2 -15z m-180 -29 c0 -3 -4 -8 -10 -11 -5 -3 -10 -1 -10 4
0 6 5 11 10 11 6 0 10 -2 10 -4z m-273 -28 c-3 -8 -6 -5 -6 6 -1 11 2 17 5 13
3 -3 4 -12 1 -19z m-23 -27 c-5 -3 -9 -10 -10 -16 -5 -44 -40 -80 -64 -65 -16
10 -3 33 15 26 16 -6 23 10 19 46 -2 21 2 27 19 30 23 3 36 -10 21 -21z m-81
-47 c-10 -15 -19 -22 -21 -15 -2 7 4 19 14 26 26 20 27 19 7 -11z m367 16 c0
-5 -5 -10 -11 -10 -5 0 -7 5 -4 10 3 6 8 10 11 10 2 0 4 -4 4 -10z m-263 -34
c-9 -23 -37 -20 -37 3 0 21 20 33 34 20 5 -4 6 -15 3 -23z m173 17 c-1 -14
-27 -43 -39 -43 -8 0 -5 9 6 25 18 24 33 32 33 18z m-225 -70 c-11 -3 -26 -10
-33 -15 -9 -8 -11 -7 -6 6 4 10 16 16 33 15 20 -1 22 -2 6 -6z m-96 -70 c-19
-24 -42 -42 -53 -43 -6 0 3 14 19 30 31 32 57 42 34 13z m257 -21 c-18 -16
-18 -16 -6 6 6 13 14 21 18 18 3 -4 -2 -14 -12 -24z m-226 -3 c0 -5 -4 -9 -10
-9 -5 0 -10 7 -10 16 0 8 5 12 10 9 6 -3 10 -10 10 -16z m-40 -35 c0 -10 -31
-64 -36 -64 -3 0 -2 5 1 10 3 6 -3 10 -15 10 -12 0 -19 -4 -16 -9 4 -5 -3 -7
-13 -4 -19 5 -19 33 0 33 5 0 9 6 9 13 0 8 13 13 35 14 19 1 35 -1 35 -3z
m214 -29 c-4 -8 -11 -15 -16 -15 -6 0 -5 6 2 15 7 8 14 15 16 15 2 0 1 -7 -2
-15z m-304 -85 c-7 -4 -10 -12 -6 -18 6 -9 -17 -25 -39 -27 -5 0 -15 -4 -21
-7 -6 -4 -11 -1 -11 7 0 8 4 15 9 15 5 0 8 6 6 13 -1 6 6 25 16 40 l19 28 20
-22 c15 -16 17 -23 7 -29z m209 -42 c-6 -12 -21 -31 -32 -42 -18 -19 -17 -16
3 22 13 23 28 42 32 42 5 0 3 -10 -3 -22z m22 -50 c-11 -18 -21 -26 -21 -18 0
19 30 63 37 56 3 -3 -4 -20 -16 -38z m-311 1 c0 11 3 11 15 1 12 -10 12 -17 3
-34 -7 -13 -13 -16 -16 -8 -3 9 -9 8 -25 -3 -32 -22 -50 -20 -37 4 7 13 7 22
0 26 -5 3 -10 12 -9 18 0 9 2 9 6 0 2 -7 9 -13 14 -13 6 0 8 4 5 9 -11 17 19
19 32 3 8 -11 12 -12 12 -3z m204 -17 c-6 -4 -15 -17 -18 -30 -5 -14 -14 -21
-24 -20 -9 2 -16 -3 -14 -9 1 -7 -3 -13 -9 -13 -6 0 -8 7 -5 16 3 9 6 20 6 25
0 5 9 9 20 9 11 0 20 6 20 14 0 8 6 16 13 19 16 6 24 -2 11 -11z m-348 -61
c-9 -10 -13 -21 -9 -24 3 -4 1 -7 -5 -7 -7 0 -12 -6 -12 -14 0 -8 -4 -17 -9
-20 -14 -9 -4 45 15 80 15 27 20 31 27 18 6 -10 3 -21 -7 -33z m114 -16 c0 -8
-2 -15 -4 -15 -2 0 -6 7 -10 15 -3 8 -1 15 4 15 6 0 10 -7 10 -15z m180 -9 c0
-3 -4 -8 -10 -11 -5 -3 -10 -1 -10 4 0 6 5 11 10 11 6 0 10 -2 10 -4z m84 -15
c3 -5 -3 -11 -15 -14 -16 -4 -18 -3 -8 9 13 16 16 17 23 5z m-78 -39 c-22 -23
-29 -10 -9 18 11 16 18 19 21 11 2 -7 -3 -20 -12 -29z m-64 6 c-7 -7 -12 -8
-12 -2 0 6 3 14 7 17 3 4 9 5 12 2 2 -3 -1 -11 -7 -17z m-205 -4 c-3 -3 -12
-4 -19 -1 -8 3 -5 6 6 6 11 1 17 -2 13 -5z m157 -26 c-7 -12 -44 -10 -44 2 0
5 11 9 24 8 14 -1 22 -6 20 -10z m-132 -20 c-7 -7 -12 -8 -12 -2 0 6 3 14 7
17 3 4 9 5 12 2 2 -3 -1 -11 -7 -17z m92 -9 c-4 -7 -7 -21 -8 -32 -1 -13 -8
-21 -22 -22 l-21 -1 19 33 c11 18 24 33 30 33 5 0 6 -5 2 -11z m-158 -59 c6 0
14 -7 18 -15 3 -9 0 -15 -9 -15 -8 0 -19 -8 -24 -17 -10 -17 -10 -17 -11 0 0
9 -3 17 -6 17 -4 0 -13 -8 -20 -17 -12 -17 -13 -17 -14 -1 0 9 7 23 15 32 8 8
15 27 16 43 l1 28 11 -27 c6 -16 16 -28 23 -28z m304 -56 c-22 -26 -28 -15
-11 22 14 31 16 33 19 15 2 -12 -2 -29 -8 -37z m-196 31 c-6 -16 -24 -21 -24
-7 0 11 11 22 21 22 5 0 6 -7 3 -15z m56 -5 c0 -5 -4 -10 -10 -10 -5 0 -10 5
-10 10 0 6 5 10 10 10 6 0 10 -4 10 -10z m-190 -50 c0 -5 -5 -10 -11 -10 -5 0
-7 5 -4 10 3 6 8 10 11 10 2 0 4 -4 4 -10z m92 -23 c-7 -8 -9 -17 -5 -20 3 -4
0 -7 -8 -7 -11 0 -12 -2 -1 -9 11 -6 7 -13 -14 -30 -14 -11 -23 -21 -18 -21 5
0 5 -4 -1 -8 -5 -4 -16 -17 -22 -29 -11 -19 -10 -21 2 -17 8 4 15 1 15 -5 0
-6 -4 -11 -9 -11 -5 0 -14 -14 -21 -30 -12 -28 -14 -29 -25 -13 -9 12 -10 20
-3 24 6 4 7 13 2 20 -6 12 -5 12 8 1 14 -11 16 -11 12 5 -3 10 6 39 20 63 14
25 26 53 26 63 0 9 4 17 9 17 5 0 13 9 16 21 5 15 10 18 18 10 7 -7 7 -14 -1
-24z m128 19 c0 -3 -4 -8 -10 -11 -5 -3 -10 -1 -10 4 0 6 5 11 10 11 6 0 10
-2 10 -4z m-286 -43 c-9 -38 -47 -123 -56 -123 -3 0 -4 9 -1 20 3 11 0 20 -6
20 -9 0 -9 5 -1 20 6 11 16 19 23 17 7 -1 13 9 14 23 0 14 1 31 2 38 1 6 8 12
16 12 12 0 14 -7 9 -27z m205 1 c-14 -18 -24 -11 -15 11 3 9 11 13 16 10 8 -5
7 -11 -1 -21z m53 1 c-2 -10 -11 -25 -20 -34 -14 -15 -15 -14 -9 9 4 14 7 31
7 38 0 8 6 12 13 9 6 -2 11 -12 9 -22z m-232 -42 c0 -5 -4 -14 -9 -21 -7 -11
-9 -11 -14 1 -3 8 -3 18 0 21 9 8 23 7 23 -1z m-26 -71 c-6 -4 -16 -16 -22
-27 -11 -20 -11 -20 -12 1 0 12 7 25 16 28 9 3 12 11 8 18 -5 10 -4 10 7 0 9
-9 10 -15 3 -20z m276 -22 c0 -11 -4 -20 -9 -20 -5 0 -7 9 -4 20 3 11 7 20 9
20 2 0 4 -9 4 -20z m-448 -69 c-20 -35 -26 -34 -16 3 3 14 12 26 20 26 10 0 9
-6 -4 -29z m102 -56 c-8 -20 -34 -27 -34 -9 0 8 5 12 10 9 6 -3 10 1 10 10 0
9 4 14 10 10 5 -3 7 -12 4 -20z m102 14 c3 -6 2 -14 -3 -18 -5 -3 -19 -19 -31
-35 -27 -35 -28 -29 -5 24 18 41 27 48 39 29z m-133 -68 c3 -13 1 -18 -9 -14
-7 2 -10 11 -7 19 7 19 10 18 16 -5z m147 -42 c13 -9 13 -10 -2 -6 -9 3 -19 1
-22 -6 -2 -7 -5 -4 -5 6 -1 20 7 21 29 6z m-60 -13 c0 -17 -28 -41 -37 -32 -3
3 -1 6 6 6 7 0 11 6 8 14 -6 15 1 26 15 26 4 0 8 -6 8 -14z m50 -27 c-7 -11
-14 -18 -17 -15 -3 3 0 12 7 21 18 21 23 19 10 -6z m55 -59 c3 -5 1 -10 -6
-10 -8 0 -8 -4 1 -15 11 -13 10 -14 -4 -9 -9 3 -16 15 -16 25 0 20 15 26 25 9z
m-119 -77 c-10 -10 -19 5 -10 18 6 11 8 11 12 0 2 -7 1 -15 -2 -18z m44 -17
c0 -3 -4 -8 -10 -11 -5 -3 -10 -1 -10 4 0 6 5 11 10 11 6 0 10 -2 10 -4z m-45
-46 c-3 -5 -11 -10 -16 -10 -6 0 -7 5 -4 10 3 6 11 10 16 10 6 0 7 -4 4 -10z
m50 -60 c3 -5 -1 -10 -10 -10 -9 0 -13 5 -10 10 3 6 8 10 10 10 2 0 7 -4 10
-10z"/>
<path d="M2020 2169 c0 -5 5 -7 10 -4 6 3 10 8 10 11 0 2 -4 4 -10 4 -5 0 -10
-5 -10 -11z"/>
<path d="M2275 2489 c-4 -6 -5 -12 -2 -15 2 -3 7 2 10 11 7 17 1 20 -8 4z"/>
<path d="M2033 2308 c-14 -19 -24 -48 -15 -48 15 0 44 42 34 52 -5 5 -13 4
-19 -4z"/>
<path d="M1943 2223 c-17 -21 -29 -42 -25 -47 3 -6 7 -5 10 2 2 7 8 10 13 7 5
-4 6 0 3 8 -3 9 3 16 15 20 13 3 21 13 21 26 0 12 -1 21 -3 21 -1 0 -17 -17
-34 -37z"/>
<path d="M2470 2150 c-8 -5 -12 -12 -9 -15 4 -3 12 1 19 10 14 17 11 19 -10 5z"/>
<path d="M2583 2103 c4 -6 0 -16 -8 -23 -8 -7 -15 -9 -15 -5 0 4 -23 -16 -52
-44 -28 -28 -54 -48 -57 -45 -3 3 1 9 9 14 8 6 11 10 5 10 -21 0 -35 -17 -29
-33 3 -9 2 -17 -3 -17 -5 0 -33 -22 -61 -50 -28 -27 -56 -50 -62 -50 -9 0 -14
-14 -11 -33 1 -4 -7 -10 -16 -14 -10 -3 -35 -25 -55 -47 -53 -58 -58 -65 -59
-73 -1 -12 -28 -25 -39 -18 -9 5 -15 -15 -11 -37 0 -5 -3 -8 -7 -8 -4 0 -16
-14 -26 -30 -9 -17 -22 -28 -27 -25 -5 4 -9 0 -9 -8 0 -18 -42 -67 -58 -67 -7
0 -12 -9 -12 -20 0 -11 -7 -23 -15 -26 -8 -4 -15 -12 -15 -20 0 -8 -4 -14 -10
-14 -5 0 -9 -3 -8 -7 5 -15 -36 -72 -46 -66 -6 3 -8 3 -4 -2 4 -4 -8 -29 -27
-55 -19 -26 -35 -53 -35 -60 0 -7 -7 -10 -16 -6 -14 5 -15 4 -4 -9 8 -9 8 -15
2 -15 -6 0 -14 -10 -18 -22 -4 -13 -17 -39 -30 -58 -13 -19 -24 -42 -24 -51 0
-9 -9 -24 -20 -34 -11 -10 -20 -24 -20 -30 0 -7 -7 -16 -16 -19 -9 -4 -14 -13
-10 -21 3 -8 1 -15 -4 -15 -6 0 -10 -7 -10 -15 0 -8 -5 -15 -12 -15 -6 0 -8
-3 -5 -6 9 -10 -12 -46 -24 -39 -5 4 -9 2 -9 -4 0 -5 4 -12 10 -16 13 -8 1
-35 -17 -35 -8 0 -11 -4 -8 -10 3 -5 1 -10 -5 -10 -6 0 -8 -5 -5 -10 3 -6 1
-10 -4 -10 -6 0 -11 -5 -11 -11 0 -5 5 -7 10 -4 18 11 10 -7 -11 -23 -12 -11
-21 -32 -24 -57 -2 -21 -10 -44 -19 -51 -9 -6 -13 -13 -10 -17 3 -3 1 -13 -4
-24 -28 -56 -44 -91 -46 -104 -2 -8 -6 -21 -9 -29 -3 -8 -6 -22 -6 -30 -2 -41
-14 -79 -24 -73 -5 3 -8 2 -4 -3 5 -10 -8 -97 -19 -124 -4 -8 -8 -43 -10 -77
-2 -51 -9 -71 -34 -108 l-31 -45 641 0 640 0 0 1049 c0 783 -3 1052 -12 1057
-6 4 -8 3 -5 -3z"/>
<path d="M2240 1920 c-13 -9 -13 -11 0 -20 12 -8 12 -10 -5 -10 -31 -1 -63
-33 -62 -62 2 -20 5 -24 14 -16 7 6 11 14 8 18 -3 5 10 20 27 35 47 39 61 83
18 55z"/>
<path d="M2268 1823 c7 -3 16 -2 19 1 4 3 -2 6 -13 5 -11 0 -14 -3 -6 -6z"/>
<path d="M2083 1795 c-17 -19 -16 -30 0 -16 8 6 16 9 19 6 2 -3 5 2 5 10 0 19
-8 19 -24 0z"/>
<path d="M1826 1394 c-8 -22 1 -31 16 -16 9 9 9 15 1 23 -7 7 -12 5 -17 -7z"/>
<path d="M1796 1373 c-11 -11 -6 -23 9 -23 8 0 15 4 15 9 0 13 -16 22 -24 14z"/>
<path d="M1266 1291 c-9 -16 -16 -36 -16 -43 1 -7 10 5 20 26 11 22 18 41 16
44 -3 2 -12 -10 -20 -27z"/>
<path d="M550 910 c0 -13 18 -22 24 -11 3 5 -1 11 -9 15 -8 3 -15 1 -15 -4z"/>
<path d="M595 840 c3 -5 11 -10 16 -10 6 0 7 5 4 10 -3 6 -11 10 -16 10 -6 0
-7 -4 -4 -10z"/>
<path d="M700 842 c0 -16 32 -52 46 -52 12 0 10 7 -8 29 -23 29 -38 39 -38 23z"/>
<path d="M475 820 c3 -5 11 -10 16 -10 6 0 7 5 4 10 -3 6 -11 10 -16 10 -6 0
-7 -4 -4 -10z"/>
<path d="M510 780 c0 -6 7 -13 15 -16 8 -3 17 -14 20 -25 7 -22 25 -26 25 -6
0 14 -41 57 -53 57 -4 0 -7 -5 -7 -10z"/>
<path d="M645 781 c-3 -5 6 -18 20 -29 14 -11 25 -23 25 -27 0 -7 32 -45 63
-73 9 -9 17 -20 17 -25 0 -5 10 -20 23 -34 72 -80 87 -94 87 -79 0 22 15 27
45 16 17 -6 24 -14 19 -22 -4 -8 -2 -8 7 1 11 10 11 15 2 18 -7 3 -13 11 -13
18 0 8 -8 12 -18 10 -12 -2 -22 7 -31 26 -10 22 -18 28 -32 24 -12 -4 -22 1
-30 13 -7 11 -18 18 -24 16 -7 -3 -24 11 -39 31 -27 35 -27 37 -10 56 20 22
41 11 30 -16 -5 -15 -9 -15 -24 -4 -15 13 -16 12 -4 -3 11 -14 17 -15 34 -5
16 9 22 9 25 0 3 -7 11 -13 19 -13 8 0 14 -7 14 -16 0 -16 50 -84 63 -84 18 0
4 31 -23 50 -26 19 -29 24 -18 38 8 9 8 13 2 9 -7 -4 -29 12 -51 37 -35 39
-41 42 -58 30 -16 -12 -21 -12 -35 1 -19 17 -34 20 -25 5 3 -5 1 -10 -5 -10
-6 0 -16 11 -22 25 -12 26 -23 31 -33 16z m239 -233 c-3 -4 -9 -8 -15 -8 -5 0
-9 4 -9 8 0 5 7 9 15 9 8 0 12 -4 9 -9z"/>
<path d="M840 751 c0 -5 6 -13 13 -19 10 -8 13 -6 14 9 1 10 -5 19 -13 19 -8
0 -14 -4 -14 -9z"/>
<path d="M785 670 c-4 -6 3 -10 14 -10 25 0 27 6 6 13 -8 4 -17 2 -20 -3z"/>
<path d="M616 634 c-21 -21 -20 -22 9 -16 25 4 32 16 16 27 -5 3 -17 -2 -25
-11z"/>
<path d="M640 599 c0 -5 -6 -7 -12 -3 -10 6 -10 5 -1 -8 7 -8 10 -17 7 -20 -2
-3 2 -8 11 -11 18 -8 20 4 3 21 -9 9 -9 12 0 12 7 0 12 5 12 10 0 6 -4 10 -10
10 -5 0 -10 -5 -10 -11z"/>
<path d="M686 553 c4 -12 21 -39 40 -60 33 -37 47 -66 21 -45 -8 7 -18 7 -27
2 -12 -8 -12 -10 3 -10 10 0 16 -4 13 -9 -3 -4 7 -7 22 -5 33 3 71 -39 53 -60
-7 -9 -6 -19 5 -34 19 -27 34 -28 27 -2 -3 11 0 20 6 20 6 0 11 9 11 20 0 13
9 22 25 26 14 3 25 10 25 15 0 5 3 8 8 6 4 -1 7 1 7 4 0 3 6 13 14 22 12 15
11 17 -3 17 -9 0 -16 -6 -16 -12 -1 -7 -11 0 -24 16 l-24 28 5 -26 c4 -19 1
-26 -11 -26 -9 0 -16 5 -16 11 0 5 -5 7 -12 3 -8 -5 -5 -11 10 -17 22 -10 31
-37 12 -37 -5 0 -10 4 -10 8 0 4 -13 16 -30 25 -16 10 -35 30 -43 45 -7 15
-19 26 -27 24 -9 -2 -9 4 4 23 9 14 12 25 6 25 -6 0 -8 5 -5 10 3 6 1 10 -4
10 -6 0 -11 -6 -11 -14 0 -26 -20 -28 -40 -4 -19 23 -19 23 -14 1z"/>
<path d="M670 520 c0 -5 5 -10 10 -10 6 0 10 5 10 10 0 6 -4 10 -10 10 -5 0
-10 -4 -10 -10z"/>
<path d="M787 505 c16 -22 33 -32 33 -20 0 9 -34 45 -43 45 -4 0 0 -11 10 -25z"/>
<path d="M970 507 c0 -13 11 -34 25 -47 27 -26 29 -29 17 -48 -12 -19 -52 -24
-45 -6 3 8 1 14 -4 14 -18 0 -11 -43 12 -65 12 -13 25 -30 28 -37 2 -7 8 -10
12 -6 11 10 -5 48 -20 48 -9 0 -12 6 -8 15 3 9 8 14 10 11 9 -9 29 18 37 47 4
18 2 27 -5 27 -7 0 -9 3 -6 6 8 8 -31 64 -44 64 -5 0 -9 -10 -9 -23z"/>
<path d="M700 492 c0 -5 7 -15 15 -22 8 -7 15 -8 15 -2 0 5 -7 15 -15 22 -8 7
-15 8 -15 2z"/>
<path d="M1070 473 c0 -7 64 -87 80 -100 12 -10 13 -15 3 -32 -18 -30 -16 -55
7 -76 19 -17 50 -15 50 3 0 5 -12 21 -27 36 -27 27 -26 49 2 26 8 -7 15 -9 15
-4 0 5 5 2 10 -6 5 -8 10 -10 10 -5 0 6 -20 29 -45 53 -25 24 -45 49 -45 56 0
8 -7 16 -15 20 -8 3 -15 12 -15 19 0 8 -7 14 -15 14 -8 0 -15 -2 -15 -4z"/>
<path d="M680 415 c-11 -13 -10 -14 4 -9 11 4 22 0 31 -12 8 -11 15 -14 15 -8
0 6 -8 18 -19 28 -16 15 -19 15 -31 1z"/>
<path d="M1050 413 c1 -4 7 -19 16 -33 l14 -25 -2 29 c-2 16 -9 31 -15 34 -7
2 -13 0 -13 -5z"/>
<path d="M785 390 c3 -5 8 -10 11 -10 2 0 4 5 4 10 0 6 -5 10 -11 10 -5 0 -7
-4 -4 -10z"/>
<path d="M927 380 c-5 -17 -10 -21 -15 -13 -5 8 -12 2 -21 -18 -16 -37 -8 -63
18 -54 14 4 20 0 23 -19 3 -14 1 -29 -4 -34 -5 -5 -8 -18 -6 -29 3 -17 8 -18
44 -11 29 6 43 15 47 28 5 21 -15 44 -28 32 -5 -4 -5 -2 -2 4 4 7 -2 23 -13
35 -11 13 -19 18 -20 12 0 -7 -5 -13 -11 -13 -6 0 -9 7 -5 15 3 8 1 15 -3 15
-5 0 -12 -8 -15 -17 -5 -13 -9 -14 -19 -4 -9 10 -9 14 3 21 37 23 42 29 38 51
l-3 24 -8 -25z"/>
<path d="M1095 371 c-3 -10 -2 -27 1 -37 6 -14 2 -13 -13 5 -11 14 -30 25 -41
26 -14 1 -19 -2 -13 -9 5 -6 8 -30 8 -53 -1 -31 3 -46 17 -56 11 -8 16 -19 12
-25 -4 -7 -1 -12 9 -12 9 0 13 5 10 10 -3 6 -1 10 4 10 6 0 11 9 11 21 0 12 4
17 11 13 7 -4 7 2 -1 17 -10 18 -10 24 2 33 13 10 16 30 9 69 -2 14 -20 7 -26
-12z"/>
<path d="M1240 354 c0 -13 18 -39 24 -34 2 3 -2 14 -10 24 -8 11 -14 16 -14
10z"/>
<path d="M1329 323 c8 -15 8 -23 1 -23 -5 0 -10 5 -10 11 0 6 -7 4 -15 -5 -19
-19 -19 -23 3 -28 10 -3 27 1 36 8 17 12 17 14 -4 36 l-22 23 11 -22z"/>
<path d="M777 303 c5 -12 3 -14 -7 -8 -8 5 -5 -5 6 -24 10 -17 22 -31 27 -31
5 0 4 6 -2 13 -6 8 -8 16 -5 20 8 8 -5 47 -16 47 -5 0 -6 -7 -3 -17z"/>
<path d="M1215 266 c0 -33 1 -34 17 -16 18 20 15 50 -6 50 -6 0 -11 -15 -11
-34z"/>
<path d="M865 266 c-11 -6 -21 -12 -23 -12 -2 -1 -5 -21 -8 -45 -5 -41 -4 -43
10 -24 8 11 16 16 16 10 1 -5 5 -1 10 10 7 17 9 17 9 3 1 -10 7 -18 15 -18 15
0 15 9 -1 61 -7 23 -11 25 -28 15z m20 -34 c-3 -3 -11 0 -18 7 -9 10 -8 11 6
5 10 -3 15 -9 12 -12z"/>
<path d="M1275 250 c3 -11 2 -20 -3 -20 -5 0 -12 -9 -15 -21 -5 -17 -2 -20 13
-16 15 4 19 0 17 -15 -1 -12 5 -23 13 -26 13 -5 13 -3 1 11 -7 10 -9 17 -4 17
5 0 10 16 11 35 2 24 -1 34 -10 33 -7 -2 -12 3 -10 10 1 6 -3 12 -9 12 -6 0
-8 -9 -4 -20z"/>
<path d="M1130 250 c0 -5 4 -10 9 -10 6 0 13 5 16 10 3 6 -1 10 -9 10 -9 0
-16 -4 -16 -10z"/>
<path d="M1205 209 c-4 -6 -13 -8 -21 -5 -8 3 -27 3 -43 0 -27 -6 -29 -9 -20
-32 7 -18 6 -28 -2 -36 -9 -8 -10 -8 -5 1 3 6 2 14 -4 18 -5 3 -10 1 -10 -4 0
-6 -5 -11 -11 -11 -5 0 -8 4 -4 9 6 11 -1 16 -37 25 -21 5 -28 3 -28 -9 0 -18
-26 -20 -36 -3 -5 7 -10 4 -15 -10 -10 -27 -21 -28 -44 -2 -17 18 -17 20 -2
14 9 -3 17 -10 17 -15 0 -5 6 -9 13 -9 6 1 2 9 -11 20 -40 34 -58 6 -37 -57 6
-19 10 -21 28 -12 17 10 19 9 15 -9 -4 -16 -1 -19 17 -18 13 0 21 6 18 14 -7
17 14 15 29 -3 28 -34 33 -41 35 -52 2 -9 -7 -11 -29 -6 -22 4 -29 3 -24 -5 4
-7 25 -12 48 -12 37 0 39 2 27 17 -12 15 -12 16 4 10 10 -4 25 -7 33 -7 9 0
12 -4 9 -10 -3 -6 4 -10 16 -10 12 0 19 3 16 7 -4 3 0 14 9 24 15 17 14 18
-18 12 -29 -4 -40 0 -65 23 -16 16 -19 21 -8 12 41 -34 100 -18 118 32 3 9 6
5 6 -10 1 -21 3 -22 15 -10 13 13 21 41 25 83 2 17 21 -5 21 -24 0 -13 7 -19
23 -18 12 0 16 3 10 6 -7 2 -13 11 -13 19 0 8 -5 14 -10 14 -6 0 -16 11 -22
25 -12 27 -23 31 -33 14z"/>
<path d="M1060 190 c0 -5 7 -7 15 -4 8 4 15 8 15 10 0 2 -7 4 -15 4 -8 0 -15
-4 -15 -10z"/>
<path d="M1241 85 c-1 -22 -8 -51 -17 -63 l-16 -23 48 3 c42 3 50 6 58 30 7
20 5 33 -9 54 -16 25 -19 26 -30 11 -11 -15 -13 -15 -23 6 -10 20 -11 18 -11
-18z m4 -63 c-15 -16 -16 -15 -4 12 7 15 15 23 17 16 3 -7 -3 -19 -13 -28z"/>
<path d="M950 41 c0 -5 7 -11 15 -15 9 -3 15 0 15 9 0 8 -7 15 -15 15 -8 0
-15 -4 -15 -9z"/>
</g>
</svg>
