<?xml version="1.0" standalone="no"?>
<!DOCTYPE svg PUBLIC "-//W3C//DTD SVG 20010904//EN"
 "http://www.w3.org/TR/2001/REC-SVG-20010904/DTD/svg10.dtd">
<svg version="1.0" xmlns="http://www.w3.org/2000/svg"
 width="260.000000pt" height="260.000000pt" viewBox="0 0 260.000000 260.000000"
 preserveAspectRatio="xMidYMid meet">
<metadata>
Created by potrace 1.11, written by Peter Selinger 2001-2013
</metadata>
<g transform="translate(0.000000,260.000000) scale(0.100000,-0.100000)"
fill="#000000" stroke="none">
<path d="M0 1300 l0 -1300 1300 0 1300 0 0 1300 0 1300 -1300 0 -1300 0 0
-1300z m2274 661 c5 -8 -33 -15 -146 -26 -55 -5 -64 10 -15 24 42 12 154 14
161 2z m-219 -33 c-1 -18 -14 -27 -56 -43 -72 -26 -84 -34 -70 -48 6 -6 11
-15 11 -21 0 -5 -9 1 -20 14 -11 13 -20 18 -20 13 0 -6 -12 -14 -26 -17 -15
-4 -41 -18 -59 -32 -17 -13 -37 -24 -43 -24 -7 0 -12 -4 -12 -8 0 -5 -18 -18
-40 -31 -22 -12 -40 -17 -40 -12 0 8 -7 7 -19 -1 -15 -9 -17 -15 -9 -25 6 -8
9 -14 7 -16 -47 -27 -67 -35 -72 -31 -6 6 -32 -15 -34 -26 -1 -3 -7 -17 -13
-32 -11 -23 -16 -25 -37 -17 -22 8 -24 7 -18 -12 7 -20 -21 -53 -37 -43 -4 3
-14 -9 -23 -25 -17 -35 -38 -51 -29 -24 5 17 5 17 -9 0 -9 -10 -24 -25 -34
-34 -10 -8 -12 -12 -5 -8 20 10 14 -20 -8 -40 -22 -19 -28 -7 -7 14 10 10 9
12 -2 9 -31 -7 -17 21 42 83 72 76 177 173 227 209 19 14 48 37 66 53 17 15
35 27 39 27 3 0 27 15 53 32 48 34 117 68 187 95 34 13 108 41 111 43 0 0 0
-10 -1 -22z m-20 -68 c13 -6 15 -9 5 -9 -8 0 -22 4 -30 9 -18 12 -2 12 25 0z
m15 -24 c0 -3 -4 -8 -10 -11 -5 -3 -10 -1 -10 4 0 6 5 11 10 11 6 0 10 -2 10
-4z m-65 -26 c-3 -5 -12 -10 -18 -10 -7 0 -6 4 3 10 19 12 23 12 15 0z m120 0
c-3 -5 -14 -10 -23 -10 -15 0 -15 2 -2 10 20 13 33 13 25 0z m-228 -7 c-4 -3
-2 -12 4 -19 13 -16 3 -34 -19 -34 -14 0 -13 2 2 13 17 13 18 14 2 20 -18 7
-13 27 6 27 6 0 8 -3 5 -7z m-32 -22 c3 -5 1 -12 -4 -16 -6 -3 -7 -13 -4 -23
4 -12 0 -10 -14 6 -20 22 -21 22 -26 2 -3 -11 -1 -18 4 -14 5 3 9 -1 9 -8 0
-7 -9 -19 -19 -25 -16 -10 -22 -9 -36 7 -16 18 -15 20 26 49 45 33 55 36 64
22z m95 -40 c0 -5 -10 -13 -22 -17 -13 -3 -30 -13 -40 -21 -9 -8 -22 -15 -30
-17 -19 -2 -58 -43 -50 -51 4 -4 0 -5 -8 -3 -8 2 -14 -1 -13 -7 1 -5 -10 -11
-23 -11 -39 -3 -196 -147 -187 -171 4 -9 0 -14 -8 -12 -21 4 -69 -22 -69 -38
0 -11 5 -10 25 3 16 10 25 12 25 5 0 -12 -16 -21 -44 -25 -18 -3 -70 -47 -84
-73 -6 -10 -14 -14 -19 -10 -4 5 7 22 25 38 17 16 32 32 32 36 1 13 110 122
185 184 39 32 77 64 85 72 38 31 89 64 144 94 67 35 76 38 76 24z m285 -7 c14
-9 36 -14 50 -12 13 3 22 2 19 -3 -2 -4 4 -12 13 -18 10 -6 16 -11 13 -11 -3
-1 -32 -3 -65 -6 -65 -5 -224 -50 -240 -68 -6 -6 -16 -12 -23 -14 -7 -1 -32
-14 -55 -29 -23 -15 -45 -27 -48 -28 -3 0 -13 -8 -23 -17 -10 -10 -20 -18 -24
-18 -4 0 -21 -13 -38 -28 -17 -15 -49 -40 -70 -57 -98 -76 -344 -350 -344
-384 0 -6 -7 -14 -15 -17 -8 -4 -15 -12 -15 -18 0 -7 -16 -35 -35 -62 -19 -27
-35 -53 -35 -57 0 -5 -11 -32 -25 -62 -13 -30 -27 -78 -31 -107 -4 -29 -13
-66 -21 -81 -28 -56 -117 -84 -169 -54 -20 11 -87 67 -157 131 -18 15 -46 39
-62 52 -17 12 -51 42 -75 65 -25 22 -70 62 -100 87 -79 66 -200 188 -201 204
-3 29 4 42 49 86 26 26 58 64 72 84 14 20 41 46 61 57 l37 21 47 -56 c27 -31
106 -114 177 -185 120 -121 129 -128 137 -107 9 21 99 170 118 193 13 16 77
99 85 110 35 47 76 86 82 76 4 -6 3 -11 -3 -11 -6 0 -8 -7 -5 -15 4 -8 -2 -27
-12 -43 -10 -15 -17 -30 -16 -34 1 -5 -4 -8 -11 -8 -8 0 -20 -11 -27 -25 -13
-25 -30 -33 -30 -15 0 6 4 10 9 10 5 0 12 8 15 18 3 9 -8 1 -24 -18 -31 -36
-41 -61 -15 -40 26 21 17 -7 -11 -35 -14 -14 -23 -29 -20 -34 3 -4 -4 -8 -15
-7 -15 1 -28 -12 -44 -41 -13 -23 -20 -43 -14 -45 5 -2 10 -21 11 -42 1 -35 3
-37 15 -20 17 24 16 6 -2 -26 -8 -14 -14 -19 -15 -12 0 7 -4 10 -10 7 -6 -4
-5 -11 3 -19 6 -8 15 -12 19 -10 3 2 8 -4 10 -13 2 -13 12 -3 32 32 16 27 31
44 33 38 3 -7 -7 -29 -21 -49 -23 -34 -24 -38 -9 -60 19 -30 26 -30 47 -1 15
19 16 20 10 2 -15 -45 -16 -55 -5 -55 5 0 8 7 5 15 -4 11 -2 13 9 9 12 -4 14
-1 10 16 -4 15 0 26 11 32 9 5 13 14 10 20 -4 6 6 22 22 35 l29 23 -28 0 c-17
0 -26 4 -22 10 4 6 12 10 18 9 27 -3 37 2 37 19 0 9 18 32 40 51 22 19 40 41
40 48 0 7 5 13 11 13 7 0 9 11 6 30 -4 20 -3 29 5 27 6 -1 14 7 17 18 3 11 12
21 20 23 9 2 11 -3 7 -15 -5 -13 -4 -15 4 -7 10 10 17 30 19 59 1 6 5 4 9 -3
7 -10 12 -8 26 7 16 18 16 20 -1 37 -19 18 -28 58 -11 48 5 -3 7 -12 4 -19 -9
-24 29 -10 42 15 7 14 10 17 8 8 -3 -10 0 -20 6 -24 6 -4 8 -3 4 4 -3 6 -2 13
4 17 6 4 8 10 5 15 -9 15 31 54 49 47 24 -10 31 -7 28 9 -2 9 9 19 28 25 25 9
28 14 19 25 -7 8 -9 17 -5 21 3 3 6 2 6 -4 0 -5 7 -10 15 -10 8 0 15 7 15 14
0 8 -5 11 -12 7 -7 -5 -8 -3 -4 5 5 7 10 10 13 7 3 -3 14 5 25 17 11 12 17 17
14 12 -2 -6 4 -12 15 -12 11 -1 19 5 19 13 0 8 -4 12 -10 9 -5 -3 -10 -2 -10
3 0 5 15 15 33 22 17 6 40 16 49 21 11 5 19 5 23 -2 11 -16 36 11 33 35 -2 17
4 22 32 27 19 4 28 7 20 8 -8 1 -2 8 15 17 19 10 31 12 33 4 2 -6 17 1 33 15
23 18 37 23 59 18 22 -4 31 -1 36 11 8 21 48 21 79 0z m-195 -4 c-8 -5 -19
-10 -25 -10 -5 0 -3 5 5 10 8 5 20 10 25 10 6 0 3 -5 -5 -10z m-311 -52 c11
-15 8 -19 -19 -33 -30 -15 -50 -13 -50 5 0 5 7 7 15 4 9 -4 15 0 15 8 0 12 22
43 25 35 0 -1 6 -10 14 -19z m-83 -43 c-3 -8 -1 -15 5 -15 6 0 9 -6 7 -12 -6
-16 -51 -19 -60 -4 -11 16 -10 26 3 26 5 0 7 -4 4 -10 -3 -5 -2 -10 4 -10 5 0
13 9 16 20 3 11 11 20 17 20 5 0 8 -7 4 -15z m104 -44 c0 -5 -7 -12 -16 -15
-14 -5 -15 -4 -4 9 14 17 20 19 20 6z m-123 -17 c-3 -3 -12 -4 -19 -1 -8 3 -5
6 6 6 11 1 17 -2 13 -5z m-48 -37 c0 -9 -2 -8 -6 1 -2 6 -9 10 -13 7 -5 -3 -7
-12 -4 -19 7 -19 -22 -39 -41 -28 -15 8 -12 12 15 35 31 26 51 28 49 4z m-84
-78 c-4 -6 -13 -8 -21 -5 -8 3 -14 0 -14 -6 0 -6 -3 -8 -6 -5 -4 4 1 18 11 33
15 24 19 25 27 10 5 -9 6 -21 3 -27z m175 27 c0 -3 -4 -8 -10 -11 -5 -3 -10
-1 -10 4 0 6 5 11 10 11 6 0 10 -2 10 -4z m-220 -56 c12 -8 12 -10 -3 -16 -9
-3 -14 -10 -11 -15 3 -5 -3 -6 -12 -2 -13 5 -15 3 -9 -8 6 -10 5 -11 -3 -4
-14 12 -4 55 12 55 6 0 18 -4 26 -10z m-106 -142 c-3 -5 -12 -8 -20 -8 -9 0
-12 -5 -8 -12 4 -7 3 -8 -4 -4 -15 9 -16 36 -2 36 6 0 10 8 10 17 0 15 2 14
14 -2 8 -11 12 -23 10 -27z m-69 -48 c-4 -12 -2 -20 5 -20 6 0 8 -5 5 -11 -5
-6 -12 -4 -20 8 -12 16 -13 15 -10 -15 3 -23 0 -32 -8 -29 -20 6 -19 32 3 60
25 32 34 34 25 7z m86 -8 c-5 -10 -17 -24 -25 -32 -9 -7 -16 -18 -16 -26 0
-12 -29 -34 -45 -34 -4 0 7 18 24 39 17 21 31 43 31 49 0 10 15 19 33 21 4 1
3 -7 -2 -17z m57 -11 c-7 -12 -16 -21 -21 -21 -8 0 -2 14 16 38 16 20 20 6 5
-17z m-153 -120 c-3 -6 -11 -11 -17 -11 -6 0 -6 6 2 15 14 17 26 13 15 -4z
m-44 -64 c-10 -9 -11 -8 -5 6 3 10 9 15 12 12 3 -3 0 -11 -7 -18z m44 2 c-4
-5 -12 -9 -18 -8 -9 0 -8 2 1 6 6 2 9 10 6 15 -4 7 -2 8 5 4 6 -4 9 -12 6 -17z
m-55 -99 c0 -5 -5 -10 -11 -10 -5 0 -7 5 -4 10 3 6 8 10 11 10 2 0 4 -4 4 -10z"/>
<path d="M1725 1770 c-3 -5 -1 -10 4 -10 6 0 11 5 11 10 0 6 -2 10 -4 10 -3 0
-8 -4 -11 -10z"/>
<path d="M2170 1723 c0 -10 4 -14 8 -8 4 6 11 13 16 18 5 4 2 7 -7 7 -10 0
-17 -8 -17 -17z"/>
<path d="M1820 1560 c-9 -6 -10 -10 -3 -10 6 0 15 5 18 10 8 12 4 12 -15 0z"/>
<path d="M1065 1040 c-3 -5 -1 -10 4 -10 6 0 11 5 11 10 0 6 -2 10 -4 10 -3 0
-8 -4 -11 -10z"/>
<path d="M1075 1011 c-3 -5 -1 -12 5 -16 5 -3 10 1 10 9 0 18 -6 21 -15 7z"/>
<path d="M827 996 c13 -22 84 -76 101 -76 8 0 12 -3 9 -7 -8 -7 11 -33 24 -33
5 0 9 8 9 18 0 14 -2 15 -10 2 -5 -8 -10 -13 -11 -10 -9 48 -3 60 20 38 10
-11 11 -10 6 3 -5 12 -18 17 -47 16 -34 -1 -45 4 -68 31 -27 33 -48 44 -33 18z"/>
<path d="M877 999 c7 -7 15 -10 18 -7 3 3 -2 9 -12 12 -14 6 -15 5 -6 -5z"/>
<path d="M1011 976 c-7 -8 -9 -21 -5 -27 5 -9 10 -5 16 11 10 28 5 36 -11 16z"/>
<path d="M855 884 c11 -8 19 -21 17 -27 -2 -7 0 -9 4 -4 10 9 44 -22 44 -40 0
-8 5 -13 12 -11 23 8 19 27 -9 45 -15 9 -35 25 -44 35 -9 10 -23 18 -30 18 -9
-1 -7 -6 6 -16z"/>
<path d="M1070 877 c12 -16 12 -20 -1 -28 -8 -5 -10 -9 -6 -9 4 0 3 -9 -3 -20
-13 -24 -3 -25 25 -4 16 12 17 16 6 23 -10 6 -10 10 -1 13 7 2 3 11 -12 23
-19 17 -20 17 -8 2z"/>
<path d="M961 844 c0 -11 3 -14 6 -6 3 7 2 16 -1 19 -3 4 -6 -2 -5 -13z"/>
<path d="M991 830 c-9 -5 -10 -10 -2 -14 6 -4 11 -2 11 5 0 8 7 6 19 -6 19
-16 20 -16 18 2 -1 20 -25 27 -46 13z"/>
<path d="M1178 796 c-4 -18 -1 -26 8 -26 16 0 18 18 5 38 -6 10 -10 7 -13 -12z"/>
<path d="M995 790 c-3 -5 -1 -10 4 -10 6 0 11 5 11 10 0 6 -2 10 -4 10 -3 0
-8 -4 -11 -10z"/>
<path d="M1122 776 c-18 -7 -30 -15 -26 -19 4 -3 3 -14 -1 -24 -6 -17 -8 -16
-25 5 -15 18 -23 21 -37 14 -10 -5 -24 -7 -30 -5 -7 3 -13 0 -13 -6 0 -11 13
-15 39 -12 11 2 11 0 0 -12 -8 -8 -19 -13 -25 -10 -6 2 -11 -3 -11 -12 0 -8 6
-15 14 -15 7 0 13 -7 13 -15 0 -22 47 -42 62 -27 9 9 7 12 -9 12 -11 0 -26 7
-33 15 -10 13 -9 15 9 15 11 0 21 4 21 8 0 14 52 34 59 23 12 -18 26 4 27 42
1 20 1 36 0 36 0 -1 -16 -7 -34 -13z"/>
</g>
</svg>
